<svg width="20" height="21" viewBox="0 0 20 21" fill="none" xmlns="http://www.w3.org/2000/svg">
<g id="maletin 2">
<path id="Vector" d="M19.863 7.67489C19.6925 7.13231 19.352 6.65899 18.8917 6.32492C18.4314 5.99086 17.8759 5.81378 17.3072 5.81989H13.6663L12.5605 2.37323C12.3866 1.83069 12.0449 1.35741 11.5846 1.02161C11.1244 0.685824 10.5694 0.504883 9.99967 0.504883C9.42995 0.504883 8.87495 0.685824 8.4147 1.02161C7.95445 1.35741 7.61274 1.83069 7.43884 2.37323L6.33301 5.81989H2.69217C2.12529 5.8207 1.57317 6.00063 1.11466 6.33398C0.656146 6.66733 0.314706 7.13705 0.139107 7.67605C-0.0364925 8.21505 -0.0372697 8.79575 0.136886 9.33522C0.311042 9.87468 0.651223 10.3453 1.10884 10.6799L4.07217 12.8466L2.94551 16.3357C2.76343 16.8769 2.76113 17.4624 2.93893 18.005C3.11673 18.5475 3.46513 19.0181 3.93217 19.3466C4.39122 19.6855 4.9475 19.8671 5.51813 19.8643C6.08877 19.8614 6.64321 19.6743 7.09884 19.3307L9.99967 17.1957L12.9013 19.3282C13.3596 19.6653 13.9128 19.8483 14.4816 19.8511C15.0505 19.8539 15.6055 19.6762 16.067 19.3437C16.5285 19.0111 16.8726 18.5408 17.0499 18.0003C17.2272 17.4598 17.2286 16.877 17.0538 16.3357L15.9272 12.8466L18.8938 10.6799C19.3567 10.3495 19.7009 9.87889 19.8754 9.33768C20.05 8.79647 20.0456 8.21344 19.863 7.67489ZM17.9105 9.33406L14.4572 11.8582C14.3153 11.9617 14.2098 12.1073 14.1556 12.2743C14.1014 12.4413 14.1014 12.6212 14.1555 12.7882L15.468 16.8466C15.5344 17.0524 15.5339 17.274 15.4664 17.4795C15.3989 17.685 15.268 17.8638 15.0925 17.9902C14.917 18.1166 14.706 18.1841 14.4897 18.183C14.2734 18.1819 14.063 18.1123 13.8888 17.9841L10.493 15.4841C10.35 15.379 10.1771 15.3223 9.99967 15.3223C9.8222 15.3223 9.64937 15.379 9.50634 15.4841L6.11051 17.9841C5.93641 18.114 5.72545 18.1851 5.50823 18.1871C5.291 18.189 5.07879 18.1218 4.90236 17.995C4.72594 17.8683 4.59446 17.6886 4.527 17.4821C4.45954 17.2756 4.4596 17.053 4.52717 16.8466L5.84384 12.7882C5.89794 12.6212 5.8979 12.4413 5.84372 12.2743C5.78955 12.1073 5.68401 11.9617 5.54217 11.8582L2.08884 9.33406C1.91493 9.20672 1.7857 9.02768 1.71962 8.82251C1.65355 8.61734 1.654 8.39654 1.72091 8.19164C1.78782 7.98674 1.91778 7.80823 2.09221 7.6816C2.26664 7.55498 2.47662 7.48671 2.69217 7.48656H6.94217C7.1186 7.48655 7.29048 7.43055 7.43305 7.32662C7.57561 7.22269 7.68152 7.07619 7.73551 6.90823L9.02717 2.88239C9.09347 2.67638 9.22343 2.49672 9.39834 2.36927C9.57325 2.24182 9.78409 2.17315 10.0005 2.17315C10.2169 2.17315 10.4278 2.24182 10.6027 2.36927C10.7776 2.49672 10.9075 2.67638 10.9738 2.88239L12.2655 6.90823C12.3195 7.07619 12.4254 7.22269 12.568 7.32662C12.7105 7.43055 12.8824 7.48655 13.0588 7.48656H17.3088C17.5244 7.48671 17.7344 7.55498 17.9088 7.6816C18.0832 7.80823 18.2132 7.98674 18.2801 8.19164C18.347 8.39654 18.3475 8.61734 18.2814 8.82251C18.2153 9.02768 18.0861 9.20672 17.9122 9.33406H17.9105Z" fill="#3F2071"/>
</g>
</svg>
