<svg width="20" height="20" viewBox="0 0 20 20" fill="none" xmlns="http://www.w3.org/2000/svg">
<g id="salida (1) 1" clip-path="url(#clip0_1497_17035)">
<path id="Vector" d="M19.0239 7.64343L15.7914 4.41093C15.6342 4.25913 15.4237 4.17513 15.2052 4.17703C14.9867 4.17893 14.7777 4.26657 14.6232 4.42108C14.4687 4.57559 14.3811 4.7846 14.3792 5.00309C14.3773 5.22159 14.4613 5.43209 14.6131 5.58926L17.8456 8.82176C17.9416 8.9197 18.0255 9.02882 18.0956 9.14676C18.0831 9.14676 18.0731 9.1401 18.0606 9.1401L4.99056 9.16676C4.76955 9.16676 4.55758 9.25456 4.4013 9.41084C4.24502 9.56712 4.15723 9.77908 4.15723 10.0001C4.15723 10.2211 4.24502 10.4331 4.4013 10.5894C4.55758 10.7456 4.76955 10.8334 4.99056 10.8334L18.0556 10.8068C18.0789 10.8068 18.0981 10.7951 18.1206 10.7934C18.0466 10.9344 17.9529 11.064 17.8422 11.1784L14.6097 14.4109C14.5301 14.4878 14.4667 14.5798 14.423 14.6814C14.3793 14.7831 14.3563 14.8924 14.3554 15.0031C14.3544 15.1137 14.3755 15.2235 14.4174 15.3259C14.4593 15.4283 14.5212 15.5213 14.5994 15.5996C14.6776 15.6778 14.7707 15.7397 14.8731 15.7816C14.9755 15.8235 15.0852 15.8446 15.1959 15.8436C15.3065 15.8427 15.4159 15.8197 15.5176 15.776C15.6192 15.7323 15.7112 15.6689 15.7881 15.5893L19.0206 12.3568C19.6455 11.7317 19.9965 10.884 19.9965 10.0001C19.9965 9.11621 19.6455 8.26852 19.0206 7.64343H19.0239Z" fill="#C51C00"/>
<path id="Vector_2" d="M5.83333 18.3333H4.16667C3.50363 18.3333 2.86774 18.0699 2.3989 17.6011C1.93006 17.1323 1.66667 16.4964 1.66667 15.8333V4.16667C1.66667 3.50363 1.93006 2.86774 2.3989 2.3989C2.86774 1.93006 3.50363 1.66667 4.16667 1.66667H5.83333C6.05435 1.66667 6.26631 1.57887 6.42259 1.42259C6.57887 1.26631 6.66667 1.05435 6.66667 0.833333C6.66667 0.61232 6.57887 0.400358 6.42259 0.244078C6.26631 0.0877974 6.05435 0 5.83333 0L4.16667 0C3.062 0.00132321 2.00296 0.440735 1.22185 1.22185C0.440735 2.00296 0.00132321 3.062 0 4.16667L0 15.8333C0.00132321 16.938 0.440735 17.997 1.22185 18.7782C2.00296 19.5593 3.062 19.9987 4.16667 20H5.83333C6.05435 20 6.26631 19.9122 6.42259 19.7559C6.57887 19.5996 6.66667 19.3877 6.66667 19.1667C6.66667 18.9457 6.57887 18.7337 6.42259 18.5774C6.26631 18.4211 6.05435 18.3333 5.83333 18.3333Z" fill="#C51C00"/>
</g>
<defs>
<clipPath id="clip0_1497_17035">
<rect width="20" height="20" fill="white"/>
</clipPath>
</defs>
</svg>
