<svg width="20" height="21" viewBox="0 0 20 21" fill="none" xmlns="http://www.w3.org/2000/svg">
<g id="maletin 1" clip-path="url(#clip0_1869_14961)">
<path id="Vector" d="M15.8333 3.34676H14.9167C14.7233 2.40627 14.2115 1.56122 13.4677 0.954026C12.7239 0.346836 11.7935 0.0146398 10.8333 0.0134277L9.16667 0.0134277C8.2065 0.0146398 7.2761 0.346836 6.53229 0.954026C5.78848 1.56122 5.27675 2.40627 5.08333 3.34676H4.16667C3.062 3.34808 2.00296 3.7875 1.22185 4.56861C0.440735 5.34973 0.00132321 6.40876 0 7.51343L0 15.8468C0.00132321 16.9514 0.440735 18.0105 1.22185 18.7916C2.00296 19.5727 3.062 20.0121 4.16667 20.0134H15.8333C16.938 20.0121 17.997 19.5727 18.7782 18.7916C19.5593 18.0105 19.9987 16.9514 20 15.8468V7.51343C19.9987 6.40876 19.5593 5.34973 18.7782 4.56861C17.997 3.7875 16.938 3.34808 15.8333 3.34676ZM9.16667 1.68009H10.8333C11.3485 1.68223 11.8505 1.8435 12.2706 2.14183C12.6906 2.44017 13.0083 2.861 13.18 3.34676H6.82C6.99174 2.861 7.30936 2.44017 7.72942 2.14183C8.14948 1.8435 8.65145 1.68223 9.16667 1.68009ZM4.16667 5.01343H15.8333C16.4964 5.01343 17.1323 5.27682 17.6011 5.74566C18.0699 6.2145 18.3333 6.85039 18.3333 7.51343V10.0134H1.66667V7.51343C1.66667 6.85039 1.93006 6.2145 2.3989 5.74566C2.86774 5.27682 3.50363 5.01343 4.16667 5.01343ZM15.8333 18.3468H4.16667C3.50363 18.3468 2.86774 18.0834 2.3989 17.6145C1.93006 17.1457 1.66667 16.5098 1.66667 15.8468V11.6801H9.16667V12.5134C9.16667 12.7344 9.25446 12.9464 9.41074 13.1027C9.56702 13.259 9.77899 13.3468 10 13.3468C10.221 13.3468 10.433 13.259 10.5893 13.1027C10.7455 12.9464 10.8333 12.7344 10.8333 12.5134V11.6801H18.3333V15.8468C18.3333 16.5098 18.0699 17.1457 17.6011 17.6145C17.1323 18.0834 16.4964 18.3468 15.8333 18.3468Z" fill="#3F2071"/>
</g>
<defs>
<clipPath id="clip0_1869_14961">
<rect width="20" height="20" fill="white" transform="translate(0 0.0134277)"/>
</clipPath>
</defs>
</svg>
