<svg width="30" height="30" viewBox="0 0 30 30" fill="none" xmlns="http://www.w3.org/2000/svg">
<g id="mensaje">
<g id="mensajes 1" clip-path="url(#clip0_1497_17053)">
<path id="Vector" d="M19.9371 9H19.1389C18.8018 7.29075 17.3373 6 15.5871 6H9.78711C7.78828 6 6.16211 7.68225 6.16211 9.75V19.3905C6.16211 19.986 6.47748 20.5305 6.98426 20.811C7.21481 20.9392 7.46783 21.0023 7.72013 21.0023C8.02173 21.0023 8.32261 20.9115 8.58288 20.7323L10.7216 19.257C11.2226 20.7083 12.5639 21.75 14.1371 21.75H18.2674L21.1413 23.7323C21.4023 23.9123 21.7025 24.003 22.0041 24.003C22.2564 24.003 22.5087 23.9392 22.74 23.811C23.2475 23.5305 23.5621 22.986 23.5621 22.3905V12.75C23.5621 10.6823 21.9359 9 19.9371 9ZM7.77886 19.4843C7.76508 19.4932 7.72448 19.5203 7.66866 19.4895C7.61138 19.458 7.61138 19.4078 7.61138 19.3912V9.75C7.61138 8.5095 8.58723 7.5 9.78638 7.5H15.5864C16.7855 7.5 17.7614 8.5095 17.7614 9.75V15C17.7614 16.2405 16.7855 17.25 15.5864 17.25H11.2364C10.9993 17.25 10.8442 17.3693 10.8268 17.3813L7.77886 19.4843ZM22.1121 22.3913C22.1121 22.407 22.1121 22.458 22.0548 22.4895C21.9976 22.5203 21.9584 22.4932 21.9454 22.4842L18.8895 20.376C18.7706 20.2942 18.6307 20.25 18.4871 20.25H14.1371C13.1917 20.25 12.3862 19.623 12.0868 18.75H15.5871C17.5859 18.75 19.2121 17.0677 19.2121 15V10.5H19.9371C21.1363 10.5 22.1121 11.5095 22.1121 12.75V22.3913Z" fill="black"/>
</g>
</g>
<defs>
<clipPath id="clip0_1497_17053">
<rect width="17.4" height="18" fill="white" transform="translate(6.16211 6)"/>
</clipPath>
</defs>
</svg>
