<svg width="20" height="21" viewBox="0 0 20 21" fill="none" xmlns="http://www.w3.org/2000/svg">
<g id="maletin 4">
<path id="Vector" d="M19.3923 8.19575C18.0998 6.09075 15.1598 2.55908 9.9998 2.55908C4.8398 2.55908 1.8998 6.09075 0.607299 8.19575C0.207739 8.842 -0.00390625 9.58678 -0.00390625 10.3466C-0.00390625 11.1064 0.207739 11.8512 0.607299 12.4974C1.8998 14.6024 4.8398 18.1341 9.9998 18.1341C15.1598 18.1341 18.0998 14.6024 19.3923 12.4974C19.7919 11.8512 20.0035 11.1064 20.0035 10.3466C20.0035 9.58678 19.7919 8.842 19.3923 8.19575ZM17.9715 11.6249C16.8615 13.4299 14.349 16.4674 9.9998 16.4674C5.65063 16.4674 3.13813 13.4299 2.02813 11.6249C1.79074 11.2408 1.66501 10.7981 1.66501 10.3466C1.66501 9.89502 1.79074 9.45238 2.02813 9.06825C3.13813 7.26325 5.65063 4.22575 9.9998 4.22575C14.349 4.22575 16.8615 7.25991 17.9715 9.06825C18.2089 9.45238 18.3346 9.89502 18.3346 10.3466C18.3346 10.7981 18.2089 11.2408 17.9715 11.6249Z" fill="black"/>
<path id="Vector_2" d="M9.99968 6.17993C9.17559 6.17993 8.37001 6.4243 7.6848 6.88214C6.9996 7.33998 6.46554 7.99073 6.15018 8.75208C5.83481 9.51344 5.7523 10.3512 5.91307 11.1595C6.07384 11.9677 6.47068 12.7102 7.0534 13.2929C7.63612 13.8756 8.37855 14.2724 9.1868 14.4332C9.99505 14.594 10.8328 14.5115 11.5942 14.1961C12.3555 13.8807 13.0063 13.3467 13.4641 12.6615C13.922 11.9763 14.1663 11.1707 14.1663 10.3466C14.165 9.24194 13.7256 8.1829 12.9445 7.40178C12.1634 6.62067 11.1043 6.18125 9.99968 6.17993ZM9.99968 12.8466C9.50522 12.8466 9.02187 12.7 8.61075 12.4253C8.19963 12.1506 7.8792 11.7601 7.68998 11.3033C7.50076 10.8465 7.45125 10.3438 7.54771 9.85887C7.64418 9.37392 7.88228 8.92846 8.23191 8.57883C8.58154 8.2292 9.027 7.9911 9.51195 7.89463C9.9969 7.79817 10.4996 7.84768 10.9564 8.0369C11.4132 8.22612 11.8036 8.54655 12.0784 8.95767C12.3531 9.3688 12.4997 9.85215 12.4997 10.3466C12.4997 11.0096 12.2363 11.6455 11.7674 12.1144C11.2986 12.5832 10.6627 12.8466 9.99968 12.8466Z" fill="black"/>
</g>
</svg>
