<svg width="20" height="21" viewBox="0 0 20 21" fill="none" xmlns="http://www.w3.org/2000/svg">
<g id="maletin 3">
<path id="Vector" d="M7.5 10.6799C10.2575 10.6799 12.5 8.43743 12.5 5.67993C12.5 2.92243 10.2575 0.679932 7.5 0.679932C4.7425 0.679932 2.5 2.92243 2.5 5.67993C2.5 8.43743 4.7425 10.6799 7.5 10.6799ZM7.5 2.3466C9.33833 2.3466 10.8333 3.8416 10.8333 5.67993C10.8333 7.51827 9.33833 9.01327 7.5 9.01327C5.66167 9.01327 4.16667 7.51827 4.16667 5.67993C4.16667 3.8416 5.66167 2.3466 7.5 2.3466ZM8.95833 14.1966C8.485 14.0749 7.99417 14.0133 7.5 14.0133C4.28333 14.0133 1.66667 16.6299 1.66667 19.8466C1.66667 20.3066 1.29333 20.6799 0.833333 20.6799C0.373333 20.6799 0 20.3066 0 19.8466C0 15.7116 3.365 12.3466 7.5 12.3466C8.135 12.3466 8.76583 12.4258 9.375 12.5833C9.82083 12.6983 10.0883 13.1524 9.97417 13.5983C9.86 14.0441 9.4075 14.3116 8.95917 14.1974L8.95833 14.1966ZM19.2675 10.5791C18.3225 9.6341 16.6758 9.6341 15.7317 10.5791L10.1425 16.1683C9.51333 16.7974 9.16583 17.6349 9.16583 18.5258V19.8474C9.16583 20.3074 9.53917 20.6808 9.99917 20.6808H11.3208C12.2117 20.6808 13.0483 20.3333 13.6775 19.7041L19.2667 14.1149C19.7392 13.6424 19.9992 13.0149 19.9992 12.3466C19.9992 11.6783 19.7392 11.0508 19.2675 10.5791ZM18.0883 12.9358L12.4983 18.5249C12.1842 18.8399 11.7658 19.0133 11.32 19.0133H10.8317V18.5249C10.8317 18.0799 11.005 17.6616 11.32 17.3466L16.91 11.7574C17.2242 11.4424 17.7733 11.4424 18.0883 11.7574C18.2458 11.9141 18.3325 12.1233 18.3325 12.3466C18.3325 12.5699 18.2458 12.7783 18.0883 12.9358Z" fill="black"/>
</g>
</svg>
