<svg width="48" height="48" viewBox="0 0 48 48" fill="none" xmlns="http://www.w3.org/2000/svg">
<g clip-path="url(#clip0_1294_11895)">
<path d="M38 4H36V2C36 0.896 35.104 0 34 0C32.896 0 32 0.896 32 2V4H16V2C16 0.896 15.104 0 14 0C12.896 0 12 0.896 12 2V4H10C4.486 4 0 8.486 0 14V38C0 43.514 4.486 48 10 48H18C19.104 48 20 47.104 20 46C20 44.896 19.104 44 18 44H10C6.692 44 4 41.308 4 38V20H46C47.104 20 48 19.104 48 18V14C48 8.486 43.514 4 38 4ZM44 16H4V14C4 10.692 6.692 8 10 8H38C41.308 8 44 10.692 44 14V16ZM37.758 25.758L26.344 37.172C24.834 38.682 24 40.692 24 42.83V46.002C24 47.106 24.896 48.002 26 48.002H29.172C31.31 48.002 33.318 47.168 34.828 45.658L46.242 34.244C47.376 33.11 48 31.604 48 30C48 28.396 47.376 26.89 46.244 25.758C43.976 23.49 40.024 23.49 37.758 25.758ZM43.414 31.414L31.998 42.828C31.244 43.584 30.24 44 29.17 44H27.998V42.828C27.998 41.76 28.414 40.756 29.17 40L40.586 28.586C41.34 27.83 42.658 27.83 43.414 28.586C43.792 28.962 44 29.464 44 30C44 30.536 43.792 31.036 43.414 31.414ZM10 28C10 26.896 10.896 26 12 26H26C27.104 26 28 26.896 28 28C28 29.104 27.104 30 26 30H12C10.896 30 10 29.104 10 28ZM22 36C22 37.104 21.104 38 20 38H12C10.896 38 10 37.104 10 36C10 34.896 10.896 34 12 34H20C21.104 34 22 34.896 22 36Z" fill="#A851FF"/>
</g>
<defs>
<clipPath id="clip0_1294_11895">
<rect width="48" height="48" fill="white"/>
</clipPath>
</defs>
</svg>
