<svg width="280" height="250" viewBox="0 0 280 250" fill="none" xmlns="http://www.w3.org/2000/svg">
<path d="M247.146 99.3248H181.633V189.99H247.146V99.3248Z" fill="#EBEBEB"/>
<path d="M250.32 95.9619H178.459V99.3248H250.32V95.9619Z" fill="#DBDBDB"/>
<path d="M272.922 95.9619H250.32V99.3248H272.922V95.9619Z" fill="#EBEBEB"/>
<path d="M269.345 99.3248H247.146V189.99H269.345V99.3248Z" fill="#DBDBDB"/>
<path d="M240.086 141.285H188.686V112.241H240.086V141.285ZM188.843 141.128H239.929V112.398H188.843V141.128Z" fill="#C7C7C7"/>
<path d="M217.22 120.73H207.213V126.48H217.22V120.73Z" fill="#C7C7C7"/>
<path d="M220.262 126.127H210.091V121.089H220.262V126.127ZM210.249 125.97H220.104V121.24H210.249V125.97Z" fill="#C7C7C7"/>
<path d="M240.086 177.786H188.686V148.742H240.086V177.786ZM188.843 177.628H239.929V148.899H188.843V177.628Z" fill="#C7C7C7"/>
<path d="M217.22 157.231H207.213V162.98H217.22V157.231Z" fill="#C7C7C7"/>
<path d="M220.262 162.628H210.091V157.59H220.262V162.628ZM210.249 162.47H220.104V157.741H210.249V162.47Z" fill="#C7C7C7"/>
<path d="M17.7391 0.54158H121.573V136.254H17.7391V0.54158ZM118.834 3.28101H20.4786V133.514H118.834V3.28101Z" fill="#EBEBEB"/>
<path d="M72.0932 3.99266H69.3538V134.881H72.0932V3.99266Z" fill="#EBEBEB"/>
<path d="M15.2516 9.88715L124.054 9.88715V6.07713L15.2516 6.07713V9.88715Z" fill="#EBEBEB"/>
<path d="M15.2516 14.1758L124.054 14.1758V10.3658L15.2516 10.3658V14.1758Z" fill="#EBEBEB"/>
<path d="M15.2516 18.4644L124.054 18.4644V14.6544L15.2516 14.6544V18.4644Z" fill="#EBEBEB"/>
<path d="M15.2516 22.753L124.054 22.753V18.943L15.2516 18.943V22.753Z" fill="#EBEBEB"/>
<path d="M15.2516 27.0416L124.054 27.0416V23.2316L15.2516 23.2316V27.0416Z" fill="#EBEBEB"/>
<path d="M15.2516 31.3303L124.054 31.3303V27.5202L15.2516 27.5202V31.3303Z" fill="#EBEBEB"/>
<path d="M15.2516 35.6189L124.054 35.6189V31.8089L15.2516 31.8089V35.6189Z" fill="#EBEBEB"/>
<path d="M15.2516 39.9075L124.054 39.9075V36.0975L15.2516 36.0975V39.9075Z" fill="#EBEBEB"/>
<path d="M15.2516 44.2024L124.054 44.2024V40.3924L15.2516 40.3924V44.2024Z" fill="#EBEBEB"/>
<path d="M24.0745 5.29621H23.3881V93.1784H24.0745V5.29621Z" fill="#263238"/>
<path d="M22.5127 96.3712H24.9435L24.3327 92.8761H23.1236L22.5127 96.3712Z" fill="#263238"/>
<path d="M21.6059 5.29621H20.9194V132.431H21.6059V5.29621Z" fill="#263238"/>
<path d="M20.0503 135H22.4811L21.8703 131.512H20.6549L20.0503 135Z" fill="#263238"/>
<path d="M11.0071 7.97897L128.305 7.97897V-1.14441e-05L11.0071 -1.14441e-05V7.97897Z" fill="#DBDBDB"/>
<path d="M222.951 54.1777C229.878 60.9287 231.012 71.3763 229.557 80.5329C229.519 80.7408 229.198 80.6841 229.198 80.4888C229.198 78.4044 229.261 76.3388 229.255 74.2795L229.148 74.0024C227.29 72.7802 225.752 71.1303 224.664 69.1911C223.511 66.9239 223.058 64.3671 222.176 61.9993C222.094 61.7726 222.34 61.8418 222.497 61.9552C226.691 65.0536 228.033 68.385 229.236 72.831C229.21 70.5041 228.966 68.1848 228.505 65.9037C227.598 61.6781 225.804 57.4902 222.768 54.3604C222.655 54.2407 222.831 54.0707 222.951 54.1777Z" fill="#A6A6A6"/>
<path d="M221.653 54.9649C220.47 55.0027 219.726 56.8983 218.801 57.4839C218.704 57.5633 218.591 57.6212 218.47 57.6539C218.349 57.6866 218.223 57.6934 218.099 57.6738C217.975 57.6542 217.857 57.6086 217.752 57.54C217.648 57.4715 217.558 57.3815 217.491 57.2761C216.571 56.0166 217.831 54.4233 219.015 53.5354C218.165 53.888 217.466 54.4989 216.552 54.6689C216.436 54.7069 216.313 54.7195 216.192 54.7059C216.07 54.6923 215.953 54.6529 215.848 54.5902C215.743 54.5276 215.653 54.4432 215.583 54.3427C215.513 54.2422 215.466 54.128 215.444 54.0077C215.041 52.2633 217.233 51.4887 218.731 51.4509C218.001 50.9408 215.916 49.5616 217.025 48.8878C218.133 48.2139 220.595 50.1473 221.395 50.8274C222.567 51.7784 223.965 53.2016 224.021 54.6878C224.091 56.3945 222.567 55.3302 221.653 54.9649Z" fill="#DBDBDB"/>
<path d="M222 55.2546C220.482 54.5619 217.592 55.5569 217.321 54.9838C216.817 53.8125 219.147 53.0127 220.4 52.8553C219.242 52.5404 217.025 52.0429 217.094 50.9282C217.176 49.5616 220.495 50.733 222.176 52.024C224.298 53.6487 224.28 55.2168 223.933 55.5254C223.448 55.9599 222.252 55.368 222 55.2546Z" fill="#EBEBEB"/>
<path d="M238.663 53.5039C231.515 59.9903 229.96 70.3939 231.062 79.5946C231.062 79.8024 231.415 79.7583 231.421 79.5631C231.503 77.4786 231.522 75.413 231.604 73.36C231.648 73.2656 231.679 73.1774 231.723 73.0829C233.628 71.9339 235.227 70.3416 236.383 68.4416C237.643 66.2249 238.172 63.687 239.142 61.3569C239.23 61.1302 238.991 61.1869 238.827 61.3002C234.513 64.2349 233.052 67.5096 231.679 71.9116C231.792 69.5767 232.123 67.2575 232.668 64.9843C233.738 60.7964 235.691 56.6841 238.839 53.6487C238.843 53.6259 238.841 53.6026 238.832 53.581C238.824 53.5595 238.811 53.5404 238.793 53.5258C238.775 53.5111 238.754 53.5014 238.731 53.4976C238.708 53.4937 238.685 53.4959 238.663 53.5039Z" fill="#A6A6A6"/>
<path d="M239.929 54.3415C241.113 54.4296 241.787 56.3504 242.687 56.9424C242.782 57.0244 242.893 57.0858 243.013 57.1226C243.133 57.1594 243.259 57.1707 243.383 57.1559C243.508 57.1411 243.628 57.1004 243.736 57.0365C243.843 56.9727 243.937 56.887 244.01 56.7849C244.973 55.5254 243.777 53.9132 242.624 53.0064C243.462 53.3843 244.136 54.0266 245.042 54.2659C245.158 54.3072 245.281 54.3234 245.403 54.3133C245.526 54.3033 245.645 54.2673 245.752 54.2077C245.859 54.1481 245.952 54.0663 246.026 53.9677C246.099 53.8691 246.15 53.7561 246.176 53.6362C246.642 51.9043 244.488 51.0479 242.989 50.9534C243.733 50.4748 245.874 49.1838 244.791 48.4344C243.707 47.685 241.176 49.5805 240.382 50.1977C239.173 51.1045 237.718 52.4774 237.611 53.9762C237.448 55.6829 239.003 54.7004 239.929 54.3415Z" fill="#DBDBDB"/>
<path d="M239.576 54.6185C241.119 53.9888 243.985 55.0909 244.262 54.5304C244.809 53.3779 242.511 52.49 241.264 52.2884C242.429 52.0177 244.671 51.602 244.646 50.4811C244.614 49.1145 241.251 50.1599 239.52 51.3879C237.341 52.9308 237.297 54.4926 237.63 54.8201C238.096 55.2672 239.324 54.7004 239.576 54.6185Z" fill="#EBEBEB"/>
<path d="M231.352 70.6395C230.867 74.1096 230.124 77.5387 229.129 80.8982C229.122 80.9309 229.109 80.9619 229.09 80.9895C229.072 81.0172 229.048 81.0409 229.02 81.0593C228.992 81.0777 228.961 81.0905 228.929 81.0969C228.896 81.1033 228.862 81.1032 228.829 81.0965C228.797 81.0899 228.766 81.077 228.738 81.0583C228.711 81.0397 228.687 81.0159 228.668 80.9881C228.65 80.9603 228.637 80.9292 228.631 80.8964C228.624 80.8637 228.625 80.8301 228.631 80.7974C229.103 77.6487 229.96 74.5314 230.426 71.3511C230.941 68.1542 231.126 64.9129 230.98 61.6781C230.678 56.3504 229.229 50.6826 225.753 46.5136C225.678 46.4192 225.841 46.2806 225.917 46.3688C232.876 54.4863 231.767 64.4301 231.761 65.3244C232.75 61.9615 233.764 58.1137 237.492 54.6941C237.649 54.543 237.775 54.6186 237.75 54.8642C237.082 61.0987 235.351 64.3482 231.736 67.6796C231.635 68.6873 231.509 69.6697 231.352 70.6395Z" fill="#A6A6A6"/>
<path d="M225.69 47.4709C224.431 46.9104 222.711 48.5037 221.471 48.617C221.33 48.6509 221.184 48.6547 221.041 48.6279C220.899 48.6012 220.764 48.5446 220.645 48.462C220.526 48.3793 220.426 48.2723 220.351 48.1482C220.276 48.0241 220.229 47.8855 220.211 47.7416C219.903 45.9531 222.006 44.9518 223.675 44.6307C222.623 44.5614 221.59 44.8448 220.526 44.5677C220.385 44.5481 220.25 44.4984 220.13 44.4219C220.01 44.3454 219.908 44.2438 219.831 44.1243C219.754 44.0047 219.704 43.8699 219.683 43.729C219.663 43.5882 219.673 43.4446 219.714 43.3082C220.174 41.2993 222.831 41.5953 224.412 42.3132C223.908 41.4189 222.434 38.944 223.927 38.7991C225.419 38.6543 226.981 41.9479 227.485 43.0059C228.222 44.5866 228.959 46.7844 228.266 48.3336C227.491 50.1788 226.452 48.3084 225.69 47.4709Z" fill="#DBDBDB"/>
<path d="M225.898 47.9432C224.67 46.4633 221.15 46.0539 221.181 45.3045C221.244 43.8435 224.065 44.1836 225.451 44.6748C224.406 43.7616 222.359 42.1557 222.989 41.0033C223.763 39.6304 226.616 42.521 227.712 44.7C229.091 47.452 228.291 49.0704 227.768 49.2216C227.05 49.4042 226.1 48.1888 225.898 47.9432Z" fill="#EBEBEB"/>
<path d="M235.93 72.5161L238.997 95.9619H220.325C220.709 93.8837 224.185 72.4847 224.185 72.4847L235.93 72.5161Z" fill="#EBEBEB"/>
<path fill-rule="evenodd" clip-rule="evenodd" d="M172.35 80.9112C171.77 80.4578 171.292 79.8406 170.461 79.8343C170.139 79.8343 170.234 79.5761 170.253 79.3998L171.216 70.0731C171.216 69.8464 171.273 69.6638 171.537 69.563C174.056 68.6184 175.316 66.3702 176.972 64.525C177.823 63.6028 178.48 62.5186 178.903 61.3371C179.326 60.1556 179.507 58.901 179.435 57.6481C179.435 56.9428 179.768 56.6594 180.411 56.5838C180.739 56.5062 181.084 56.5366 181.393 56.6705C181.703 56.8044 181.961 57.0346 182.13 57.3269C182.679 58.6676 182.995 60.0926 183.062 61.54C183.062 62.7365 182.533 63.8386 182.262 64.991C182.067 65.8349 181.777 66.6599 181.525 67.51C181.714 67.6864 181.966 67.6297 182.193 67.6549C184.817 67.9362 187.443 68.2112 190.071 68.4799C191.18 68.5995 191.683 68.9711 191.765 69.7394C191.802 70.2013 191.686 70.6625 191.436 71.0525C191.186 71.4425 190.815 71.74 190.38 71.8994C190.172 71.975 189.832 71.849 189.75 72.1576C189.668 72.4662 190.059 72.4725 190.229 72.6173C191.11 73.373 190.795 74.6955 189.599 75.3568C189.315 75.5205 188.812 75.3568 188.761 75.7661C188.711 76.1754 189.202 76.1188 189.391 76.3959C190.077 77.2334 189.548 78.6063 188.339 79.0597C188.177 79.0911 188.017 79.1354 187.861 79.192C187.722 79.2612 187.584 79.3494 187.817 79.5572C188.868 80.483 188.73 81.6165 187.495 82.3218L187.13 82.5297C186.688 82.7381 186.19 82.7935 185.713 82.6871C181.595 82.2673 177.476 81.8474 173.357 81.4276C172.967 81.3945 172.605 81.209 172.35 80.9112Z" fill="#EBEBEB"/>
<path fill-rule="evenodd" clip-rule="evenodd" d="M161.21 74.2232C161.417 72.2521 161.631 70.2746 161.839 68.2972C161.877 67.8942 161.94 67.7053 162.431 67.7619C164.845 68.039 167.255 68.2909 169.661 68.5176C170.133 68.5617 170.19 68.7318 170.146 69.1474C169.726 73.1232 169.306 77.0991 168.886 81.0749C168.836 81.585 168.685 81.7047 168.181 81.648C165.842 81.3793 163.506 81.1379 161.172 80.9238C160.586 80.8734 160.542 80.6593 160.586 80.1492C160.819 78.1592 161.002 76.1817 161.21 74.2232Z" fill="#EBEBEB"/>
<path fill-rule="evenodd" clip-rule="evenodd" d="M156.303 54.624C155.781 54.4225 155.296 54.0824 154.691 54.2587C154.458 54.328 154.471 54.1202 154.445 53.9942L153.085 46.9977C153.085 46.8276 153.035 46.6891 153.205 46.5568C154.811 45.2973 155.239 43.4081 156.039 41.6762C156.454 40.818 156.692 39.885 156.738 38.9329C156.785 37.9807 156.639 37.029 156.309 36.1344C156.264 36.0396 156.241 35.9359 156.241 35.8309C156.241 35.7259 156.265 35.6222 156.31 35.5275C156.355 35.4328 156.421 35.3493 156.503 35.2833C156.584 35.2172 156.68 35.1702 156.782 35.1457C157.004 35.0174 157.261 34.9635 157.516 34.9919C157.771 35.0202 158.01 35.1293 158.199 35.3031C158.891 36.1591 159.434 37.1257 159.805 38.1622C159.97 39.0463 160.031 39.9467 159.987 40.845C160.031 41.4747 159.987 42.1675 159.987 42.835C160.164 42.9232 160.334 42.835 160.504 42.7972L166.417 41.6574C167.242 41.4936 167.677 41.6574 167.916 42.1863C168.051 42.5146 168.072 42.8784 167.978 43.2204C167.883 43.5624 167.678 43.8633 167.393 44.0756C167.261 44.1764 166.978 44.1638 167.003 44.3968C167.028 44.6298 167.305 44.5605 167.456 44.6298C168.262 44.9762 168.325 46.0153 167.614 46.7584C167.444 46.9347 167.047 46.941 167.091 47.237C167.135 47.533 167.494 47.4007 167.689 47.5267C168.376 47.9864 168.319 49.1073 167.519 49.6993C167.407 49.7576 167.299 49.825 167.198 49.9008C167.11 49.9827 167.028 50.0772 167.242 50.1779C168.218 50.6188 168.363 51.4374 167.62 52.2561L167.399 52.4891C167.126 52.7369 166.778 52.8874 166.411 52.9174C163.317 53.5219 160.227 54.1202 157.141 54.7122C157.002 54.7534 156.857 54.7669 156.713 54.7517C156.569 54.7366 156.43 54.6932 156.303 54.624Z" fill="#EBEBEB"/>
<path fill-rule="evenodd" clip-rule="evenodd" d="M146.725 52.212C146.435 50.7321 146.158 49.2459 145.856 47.766C145.799 47.47 145.799 47.3125 146.17 47.2433C147.984 46.9158 149.785 46.5694 151.593 46.1979C151.945 46.1286 152.021 46.2357 152.084 46.5505C152.651 49.5356 153.228 52.5185 153.816 55.4993C153.891 55.8772 153.816 56.0031 153.425 56.0724C151.668 56.3936 149.918 56.7022 148.167 57.0926C147.732 57.1808 147.644 57.0422 147.575 56.6581C147.31 55.1719 147.008 53.692 146.725 52.212Z" fill="#EBEBEB"/>
<path d="M140 250C216.958 250 279.346 242.41 279.346 233.047C279.346 223.684 216.958 216.094 140 216.094C63.0415 216.094 0.654297 223.684 0.654297 233.047C0.654297 242.41 63.0415 250 140 250Z" fill="#EBEBEB"/>
<path d="M11.0071 190.097L43.2568 189.946L75.5065 189.889L140 189.782L204.499 189.889L236.742 189.946L268.992 190.097L236.742 190.255L204.499 190.305L140 190.412L75.5065 190.305L43.2568 190.248L11.0071 190.097Z" fill="#263238"/>
<path d="M39.0447 136.247C43.5664 126.958 51.4761 122.184 60.3871 124.823C69.2981 127.462 70.6836 139.887 64.0271 143.029C57.3706 146.172 50.7204 137.002 47.2063 135.119C43.6923 133.236 39.0447 136.247 39.0447 136.247Z" fill="#496445"/>
<path d="M34.6679 160.977C34.6679 159.856 34.7372 158.735 34.775 157.62C34.8568 155.385 34.9324 153.143 35.0143 150.907C35.1654 146.82 35.6062 142.802 37.3003 139.036C38.7962 135.619 41.2955 132.738 44.4669 130.774C45.6457 130.061 46.9172 129.515 48.2454 129.149C49.4489 127.932 50.9807 127.092 52.6537 126.731C54.7271 126.307 56.8592 126.254 58.9512 126.574C59.0268 126.574 59.0268 126.7 58.9512 126.693C56.9655 126.436 54.9482 126.579 53.0189 127.115C52.1917 127.341 51.3898 127.651 50.6259 128.041C50.1466 128.301 49.6858 128.593 49.2467 128.916C51.0459 128.548 52.9029 128.567 54.6941 128.973C55.3396 129.132 55.9713 129.343 56.5833 129.603C57.0705 129.492 57.5707 129.45 58.0696 129.477C58.7203 129.497 59.3667 129.589 59.9966 129.754C61.288 130.116 62.5234 130.654 63.6681 131.353C63.731 131.391 63.6681 131.492 63.6051 131.454C62.4793 130.84 61.2732 130.387 60.0218 130.106C59.4168 129.969 58.802 129.878 58.1829 129.836C57.8431 129.817 57.5025 129.817 57.1627 129.836C59.7022 131.008 61.7438 133.043 62.925 135.579C62.925 135.648 62.8494 135.705 62.8242 135.636C62.1206 134.165 61.0945 132.872 59.8221 131.852C58.5497 130.833 57.0638 130.113 55.475 129.748C55.2797 129.697 55.0782 129.672 54.883 129.634C54.9297 129.933 54.9612 130.233 54.9775 130.535C55.0341 130.982 55.1097 131.435 55.2042 131.882C55.3855 132.804 55.6275 133.713 55.9284 134.603C56.2296 135.503 56.5893 136.382 57.0053 137.235C57.4069 138.132 57.9143 138.978 58.5167 139.754C58.5671 139.824 58.4663 139.899 58.4222 139.824C57.8869 138.986 57.2635 138.211 56.7723 137.342C56.3034 136.51 55.8992 135.642 55.5631 134.748C55.2205 133.844 54.955 132.913 54.7696 131.964C54.6689 131.46 54.5933 130.957 54.5366 130.453C54.4737 130.149 54.4547 129.837 54.48 129.527C53.4373 129.372 52.3792 129.351 51.3312 129.464C51.7279 131.681 52.1499 133.992 53.3968 135.919C53.4346 135.982 53.3275 136.039 53.2897 135.976C52.709 134.962 52.1977 133.91 51.7594 132.827C51.3497 131.769 51.0931 130.658 50.9974 129.527C49.1568 129.773 47.3804 130.37 45.7642 131.284C42.7187 133.055 40.2865 135.714 38.7928 138.904C37.224 142.342 36.3466 146.054 36.2108 149.83C35.9148 154.579 35.8518 159.359 35.3795 164.088C35.3795 164.403 34.8568 164.504 34.8001 164.157C34.6553 163.104 34.6111 162.039 34.6679 160.977Z" fill="#263238"/>
<path d="M45.1156 130.025C45.4157 129.667 45.7607 129.349 46.1421 129.08C46.5136 128.771 46.8915 128.45 47.2882 128.205C48.0731 127.669 48.9413 127.266 49.8576 127.014C49.9332 127.014 49.9584 127.115 49.8576 127.128C48.9401 127.369 48.0825 127.798 47.3386 128.387C46.9608 128.664 46.6018 128.96 46.2491 129.269C45.9345 129.598 45.5862 129.894 45.2101 130.151C45.1934 130.157 45.1752 130.158 45.1581 130.153C45.141 130.148 45.126 130.137 45.1153 130.123C45.1046 130.109 45.0989 130.092 45.0989 130.074C45.099 130.056 45.1048 130.039 45.1156 130.025Z" fill="#263238"/>
<path d="M59.5432 133.419C60.2905 134.29 60.9825 135.207 61.6151 136.165C62.2324 137.127 62.7494 138.151 63.158 139.219C63.158 139.25 63.1202 139.269 63.1014 139.219C62.0669 137.197 60.8462 135.277 59.4551 133.482C59.3921 133.419 59.4929 133.337 59.5432 133.419Z" fill="#263238"/>
<path d="M49.8198 132.474C49.9138 133.055 50.0853 133.621 50.3299 134.156C50.576 134.675 50.8624 135.174 51.1864 135.648C51.1864 135.648 51.1864 135.711 51.136 135.686C50.3626 134.798 49.8638 133.704 49.7001 132.537C49.6938 132.43 49.8072 132.399 49.8198 132.474Z" fill="#263238"/>
<path d="M35.2977 136.473C35.2977 136.473 28.8994 128.431 16.5688 131.284C4.82391 133.992 -0.591969 155.523 11.2726 158.099C23.1372 160.675 21.0464 140.749 25.3665 137.368C28.5342 134.886 33.081 135.422 35.2977 136.473Z" fill="#496445"/>
<path d="M7.00912 143.042C7.80448 142.336 8.64601 141.683 9.52813 141.089C10.3724 140.506 11.2946 140.043 12.2676 139.717C13.6239 137.638 15.4542 135.912 17.6079 134.678H17.2426C16.6129 134.678 15.9327 134.678 15.2778 134.678C13.9612 134.765 12.6708 135.088 11.4678 135.629C11.4536 135.636 11.4373 135.637 11.4225 135.632C11.4078 135.626 11.3957 135.615 11.3891 135.601C11.3824 135.587 11.3816 135.571 11.3869 135.556C11.3922 135.541 11.4032 135.529 11.4174 135.522C12.6294 134.998 13.8971 134.614 15.1959 134.376C15.8318 134.262 16.4769 134.207 17.123 134.212C17.4693 134.212 17.822 134.212 18.1621 134.269H18.3636C19.4954 133.697 20.6893 133.258 21.9217 132.959C21.8083 132.928 21.695 132.89 21.5753 132.865C20.9722 132.732 20.3626 132.632 19.749 132.562C18.5194 132.424 17.2772 132.443 16.0524 132.619C15.9768 132.619 15.9579 132.512 16.0524 132.506C17.2932 132.355 18.5442 132.304 19.7931 132.355C20.839 132.383 21.8793 132.518 22.8978 132.758C23.6422 132.618 24.3956 132.532 25.1523 132.5C29.4598 132.317 34.1515 133.929 36.8028 137.468C39.454 141.007 39.9515 145.737 40.4428 150.013C41.1663 155.969 41.3244 161.981 40.9151 167.967C40.9151 168.32 40.3924 168.257 40.3798 167.917C40.2223 162.841 40.0397 157.765 39.5548 152.708C39.3281 150.366 39.0825 148.01 38.692 145.693C38.4108 143.694 37.8357 141.748 36.9854 139.918C36.0702 138.044 34.6193 136.483 32.8164 135.434C31.0081 134.399 28.9928 133.778 26.9156 133.614C25.052 133.462 23.1761 133.639 21.3738 134.137C21.4274 134.498 21.4274 134.865 21.3738 135.226C21.3341 135.686 21.2432 136.14 21.103 136.58C20.965 136.993 20.7922 137.393 20.5866 137.777C20.3536 138.199 20.0702 138.577 19.812 138.986C19.7742 139.049 19.6672 138.986 19.7176 138.917C20.2263 138.192 20.5545 137.357 20.6748 136.48C20.7503 136.063 20.8008 135.643 20.8259 135.22C20.8259 134.905 20.8259 134.59 20.8259 134.269C18.8662 134.871 17.0374 135.837 15.4352 137.116C15.1329 137.355 14.8433 137.607 14.5599 137.871C14.9635 138.242 15.3152 138.666 15.6053 139.131C16.0284 139.751 16.3972 140.406 16.7073 141.089C17.2783 142.463 17.6616 143.908 17.8472 145.384C17.8472 145.46 17.7401 145.485 17.7338 145.384C17.5063 143.954 17.0288 142.575 16.3232 141.31C16.0016 140.683 15.6376 140.079 15.2337 139.502C15.0259 139.206 14.8055 138.91 14.604 138.627C14.478 138.47 14.3458 138.318 14.2324 138.148C12.7821 139.574 11.5966 141.246 10.731 143.086C11.3125 143.705 11.7986 144.408 12.1731 145.17C12.6176 145.964 13.0048 146.789 13.3318 147.639C13.9288 149.285 14.421 150.968 14.8055 152.677C14.8055 152.752 14.7047 152.771 14.6921 152.677C14.3162 150.956 13.7259 149.289 12.9351 147.714C12.5698 146.94 12.1794 146.178 11.7701 145.422C11.3371 144.728 10.95 144.007 10.6113 143.262C9.78482 145.064 9.30621 147.007 9.20066 148.986C9.20066 149.062 9.07471 149.049 9.08101 148.986C9.30835 145.884 10.2572 142.878 11.8519 140.208C11.0962 140.529 10.3405 140.837 9.6163 141.234C8.6881 141.725 7.82494 142.33 7.0469 143.035C7.02801 143.18 6.95244 143.092 7.00912 143.042Z" fill="#263238"/>
<path d="M16.065 143.495C16.4366 144.717 16.9026 145.901 17.2363 147.135C17.5784 148.315 17.7627 149.534 17.7842 150.762C17.7842 150.8 17.7276 150.8 17.7276 150.762C17.3857 148.297 16.7863 145.874 15.9391 143.533C15.9366 143.525 15.9357 143.516 15.9366 143.507C15.9375 143.499 15.94 143.49 15.9441 143.483C15.9482 143.475 15.9538 143.468 15.9605 143.463C15.9672 143.458 15.9749 143.453 15.9831 143.451C15.9914 143.448 16.0001 143.448 16.0087 143.449C16.0173 143.449 16.0256 143.452 16.0332 143.456C16.0408 143.46 16.0475 143.466 16.053 143.472C16.0584 143.479 16.0625 143.487 16.065 143.495Z" fill="#263238"/>
<path d="M8.24353 140.472C8.72614 140.003 9.27584 139.608 9.87459 139.301C10.4844 139.026 11.1164 138.802 11.7639 138.633C11.8394 138.633 11.8583 138.734 11.7639 138.747C11.1249 138.916 10.5109 139.168 9.93757 139.496C9.35603 139.801 8.79632 140.146 8.26242 140.529C8.25849 140.535 8.25299 140.539 8.24654 140.542C8.2401 140.545 8.23297 140.546 8.22597 140.545C8.21897 140.544 8.21237 140.541 8.20693 140.537C8.20148 140.532 8.19741 140.527 8.19518 140.52C8.19294 140.513 8.19263 140.506 8.19428 140.499C8.19593 140.492 8.19948 140.486 8.20451 140.481C8.20955 140.476 8.21587 140.473 8.22277 140.471C8.22967 140.469 8.23686 140.47 8.24353 140.472Z" fill="#263238"/>
<path d="M29.2205 125.736C29.2205 125.736 28.0366 111.252 17.293 106.598C8.32532 102.687 3.18653 112.769 9.52815 118.941C14.6795 123.929 22.8663 121.68 29.2205 125.736Z" fill="#496445"/>
<path d="M11.5308 109.4C13.1652 110.059 14.7592 110.814 16.3044 111.661C17.5922 112.402 18.8311 113.224 20.0136 114.123C19.8373 113.758 19.6799 113.374 19.5035 113.015C19.2201 112.461 18.9242 111.913 18.5904 111.384C17.9272 110.291 17.1319 109.284 16.2225 108.386C16.1658 108.336 16.2225 108.254 16.3107 108.304C17.2275 109.202 18.0699 110.173 18.8297 111.208C19.2028 111.73 19.5435 112.275 19.8499 112.839C20.1541 113.367 20.383 113.935 20.53 114.526L20.6497 114.608C22.5266 116.11 24.2462 117.798 25.7822 119.646C25.7822 119.501 25.7192 119.363 25.6814 119.231C25.4799 118.525 25.2658 117.826 25.0517 117.127C24.5882 115.646 23.9363 114.23 23.112 112.914C23.0679 112.851 23.175 112.795 23.2128 112.858C24.0552 114.175 24.8064 115.549 25.461 116.97C25.7582 117.663 26.0065 118.377 26.2041 119.105C26.3586 119.577 26.4744 120.062 26.5505 120.553C27.0228 121.151 27.4825 121.75 27.917 122.367C32.5268 128.929 34.8443 136.851 35.3985 144.818C35.558 147.186 35.598 149.561 35.5182 151.934C35.498 154.329 35.2874 156.719 34.8884 159.081C34.8884 159.226 34.6239 159.182 34.6302 159.037C34.6806 156.953 34.8947 154.868 34.9388 152.784C34.9829 150.699 34.9388 148.596 34.7373 146.486C34.396 142.317 33.6107 138.196 32.3946 134.194C31.1442 130.094 29.3028 126.199 26.9283 122.631C26.4749 122.543 26.0278 122.423 25.587 122.31C25.0454 122.172 24.5101 122.033 23.9748 121.882C22.9418 121.611 21.9378 121.24 20.9772 120.774C20.9079 120.736 20.9772 120.635 21.0401 120.673C21.9857 121.19 23.012 121.544 24.0755 121.718C24.9131 121.888 25.7885 121.995 26.6323 122.19C25.8515 121.057 25.0202 119.955 24.1133 118.903C22.0661 119.09 20.002 118.937 18.0047 118.45C16.9345 118.195 15.8826 117.869 14.8559 117.474C13.7791 117.058 12.7589 116.529 11.7072 116.082C11.6253 116.05 11.7072 115.931 11.7513 115.975C13.6753 117.024 15.7757 117.712 17.948 118.003C19.8666 118.309 21.8053 118.471 23.7481 118.488C22.9798 117.612 22.1926 116.756 21.355 115.969C18.5463 113.267 15.196 110.798 11.4805 109.488C11.4112 109.488 11.449 109.369 11.5308 109.4Z" fill="#263238"/>
<path d="M20.2592 109.444C20.7546 110.055 21.205 110.701 21.6068 111.378C22.0079 112.083 22.3249 112.834 22.5515 113.613C22.5515 113.613 22.52 113.657 22.5137 113.613C22.1547 112.908 21.8839 112.171 21.4872 111.466C21.1404 110.771 20.718 110.116 20.2277 109.514C20.1269 109.488 20.2088 109.381 20.2592 109.444Z" fill="#263238"/>
<path d="M10.2713 114.256C10.9706 114.631 11.7072 114.933 12.4691 115.156C13.2069 115.397 13.9575 115.596 14.7173 115.754C14.7173 115.754 14.7173 115.824 14.7173 115.817C13.9264 115.733 13.1471 115.562 12.3935 115.307C11.65 115.029 10.9243 114.705 10.2209 114.337C10.2108 114.338 10.2008 114.335 10.1921 114.33C10.1833 114.325 10.1761 114.317 10.1711 114.309C10.1661 114.3 10.1636 114.29 10.1638 114.28C10.164 114.27 10.1669 114.26 10.1722 114.251C10.1775 114.242 10.185 114.235 10.194 114.231C10.2029 114.226 10.213 114.224 10.2231 114.224C10.2332 114.225 10.243 114.228 10.2515 114.233C10.2599 114.239 10.2668 114.247 10.2713 114.256Z" fill="#263238"/>
<path d="M37.5711 123.135C37.6341 123.765 39.1959 117.889 48.277 112.675C56.5267 107.939 66.3698 95.6337 58.2837 87.8563C51.7532 81.5776 34.5546 95.2622 37.5711 123.135Z" fill="#496445"/>
<path d="M31.3177 156.789C31.4485 150.679 31.93 144.581 32.7598 138.526C33.4755 132.952 34.7606 127.465 36.5951 122.153C37.2689 120.263 38.0435 118.374 38.8811 116.485C38.8336 115.765 38.8462 115.043 38.9188 114.325C38.9629 113.399 39.0448 112.48 39.133 111.554C39.2211 110.628 39.3093 109.709 39.4226 108.789C39.536 107.87 39.7249 106.957 39.7627 106.037C39.7627 105.955 39.9013 105.968 39.8761 106.037C39.6966 107.002 39.5892 107.979 39.5549 108.959C39.4856 109.854 39.4352 110.742 39.4038 111.636C39.3723 112.53 39.4038 113.424 39.4038 114.319C39.4038 114.64 39.4038 114.986 39.4038 115.326C40.2602 113.525 41.1734 111.743 42.1621 110.017C41.5323 106.239 42.351 102.309 43.1193 98.6314C43.1193 98.5558 43.2452 98.5873 43.2327 98.6314C42.8541 100.555 42.6539 102.509 42.6344 104.469C42.5966 106.018 42.6722 107.561 42.6785 109.11C42.8926 108.739 43.113 108.367 43.3082 108.002C44.4838 106.075 45.7433 104.186 47.0868 102.334C46.9805 101.441 47.0102 100.536 47.1749 99.6516C47.3124 98.6592 47.5229 97.6783 47.8047 96.7169C48.0944 95.7513 48.4281 94.8046 48.806 93.8767C49.2027 92.9258 49.7254 92.019 50.1033 91.0617C50.11 91.0475 50.122 91.0366 50.1368 91.0312C50.1515 91.0259 50.1678 91.0267 50.182 91.0334C50.1962 91.0401 50.2071 91.0521 50.2125 91.0669C50.2178 91.0816 50.217 91.0979 50.2103 91.1121C49.7288 92.0163 49.3486 92.9709 49.0768 93.9586C48.7761 94.8864 48.528 95.8304 48.3337 96.7862C48.1384 97.7434 47.981 98.6754 47.8488 99.6642C47.7606 100.294 47.7039 100.968 47.5906 101.616C49.56 99.0572 51.7042 96.6374 54.0077 94.3742C54.0644 94.3239 54.14 94.4057 54.0896 94.4624C50.63 98.3353 47.5393 102.522 44.8574 106.969C44.7567 107.133 44.6622 107.303 44.5677 107.473C45.0652 107.158 45.6383 106.913 46.1106 106.648C46.9923 106.157 47.876 105.672 48.7619 105.193L51.3313 103.821C51.7721 103.575 52.2066 103.317 52.6538 103.09C53.1904 102.849 53.7064 102.565 54.1967 102.24C54.2659 102.183 54.3352 102.29 54.2659 102.328C53.3906 102.813 52.616 103.525 51.7469 104.066C50.8779 104.608 50.034 105.13 49.1523 105.622C47.5402 106.522 45.7832 107.171 44.1962 108.103C43.0941 110.03 42.0802 112.014 41.1419 114.029C42.1075 113.412 43.0899 112.822 44.0891 112.259C44.7315 111.902 45.3801 111.55 46.0351 111.201C46.6835 110.904 47.2961 110.534 47.8613 110.099C47.918 110.049 47.9999 110.099 47.9432 110.181C46.8944 111.139 45.731 111.964 44.4796 112.637C43.3082 113.317 42.1306 113.978 40.9215 114.57C39.9432 116.699 39.0658 118.865 38.2891 121.069C34.4665 131.895 33.0621 143.388 32.3883 154.805C32.1931 158.206 32.086 161.607 32.0419 165.014C31.9978 168.421 32.1805 171.815 32.1742 175.216C32.1742 175.316 32.0104 175.342 31.9978 175.216C31.5885 172.193 31.5129 169.126 31.3681 166.091C31.2233 163.055 31.2484 159.869 31.3177 156.789Z" fill="#263238"/>
<path d="M47.8172 107.782C49.478 107.043 51.0912 106.202 52.6474 105.263C54.2261 104.375 55.7564 103.404 57.2321 102.353C57.2321 102.353 57.2824 102.353 57.2321 102.397C55.8373 103.527 54.3642 104.556 52.8238 105.477C51.2114 106.373 49.5457 107.17 47.8361 107.864C47.8046 107.914 47.748 107.807 47.8172 107.782Z" fill="#263238"/>
<path d="M45.1848 95.5393C45.3234 95.0166 45.4871 94.4939 45.6697 93.9775C45.6697 93.9775 45.632 93.946 45.6697 93.9208C45.7831 93.6248 45.9027 93.3351 46.0224 93.0454C46.0224 93.0077 46.0224 92.9699 46.0665 92.9384C46.1106 92.9069 46.1106 92.8313 46.1358 92.7747C46.1358 92.7747 46.0791 92.9762 46.0476 93.0769C46.0359 93.1343 46.0211 93.1911 46.0035 93.247C45.4004 95.2654 44.9499 97.3263 44.6558 99.4123C44.6558 99.4752 44.5425 99.4815 44.5488 99.4123C44.6376 98.104 44.8506 96.8072 45.1848 95.5393Z" fill="#263238"/>
<path d="M21.7202 158.987L22.3689 166.67L24.3526 190.097H45.6068L47.5905 166.67L48.2392 158.987H21.7202Z" fill="#455A64"/>
<path d="M21.7202 158.987L22.3689 166.67H47.5905L48.2392 158.987H21.7202Z" fill="#263238"/>
<path d="M19.6357 163.269H50.3236V155.901H19.6357V163.269Z" fill="#455A64"/>
<path d="M110.157 155.788C109.647 155.82 107.266 155.958 103.796 156.179C102.493 154.006 100.918 150.139 101.328 144.56C101.397 143.64 99.4383 148.999 100.566 156.38C93.846 156.789 84.7146 157.344 76.7293 157.753C76.4585 154.642 76.0681 151.77 76.0681 151.77C75.8888 153.824 75.5285 155.857 74.9912 157.847C73.9017 157.917 72.8312 157.954 71.8047 158.005C71.855 153.156 70.7278 144.755 70.7278 144.755C70.3217 149.401 69.1558 153.95 67.2767 158.219C62.2387 158.427 58.8632 158.471 59.0899 158.219C66.4329 149.132 60.6265 144.276 62.5221 136.448C64.7955 127.065 72.743 125.295 72.2455 118.33C71.855 112.663 70.7656 102.398 77.8503 99.9289C79.7189 97.9598 82.1263 96.5847 84.7717 95.9755C87.4171 95.3662 90.1833 95.5497 92.7251 96.5031C104.212 100.42 100.383 118.085 101.29 121.611C102.549 126.649 105.068 128.356 107.083 134.087C109.099 139.818 106.624 143.879 106.454 147.866C106.284 151.852 111.429 155.731 110.157 155.788Z" fill="#263238"/>
<path d="M58.7625 156.972C59.7522 155.407 60.5175 153.711 61.0359 151.934C61.5523 150.183 61.2374 148.426 60.8155 146.606C60.3394 144.772 59.9589 142.913 59.6756 141.039C59.3956 139.082 59.5113 137.088 60.0157 135.176C60.5654 133.264 61.548 131.503 62.8873 130.031C64.1826 128.63 65.5918 127.339 67.1004 126.171C68.562 125.051 69.8705 123.745 70.9923 122.285C72.0644 120.77 72.7025 118.991 72.8375 117.14C72.9839 119.064 72.5449 120.987 71.5779 122.657C70.5592 124.285 69.3001 125.75 67.8435 127.002C66.4592 128.225 65.1531 129.533 63.9327 130.919C62.7844 132.276 61.9404 133.863 61.4578 135.573C61.0181 137.304 60.9049 139.103 61.124 140.876C61.2941 142.689 61.7034 144.503 62.012 146.373C62.1847 147.326 62.2837 148.29 62.308 149.258C62.3033 150.251 62.1221 151.237 61.7727 152.167C61.0574 153.932 60.0386 155.558 58.7625 156.972Z" fill="#263238"/>
<path d="M99.3438 102.769C100.21 104.928 100.81 107.185 101.132 109.489C101.51 111.781 101.762 114.086 102.008 116.378L102.379 119.804C102.482 120.909 102.693 122.002 103.009 123.066C103.639 125.169 104.898 126.977 106.321 128.816C107.042 129.757 107.698 130.746 108.286 131.776C108.87 132.833 109.335 133.953 109.672 135.113C109.967 136.27 110.178 137.446 110.301 138.634C110.429 139.83 110.407 141.038 110.238 142.229C110.075 143.42 109.785 144.547 109.546 145.655C109.303 146.757 109.166 147.878 109.136 149.006C109.145 150.134 109.422 151.243 109.944 152.243C110.467 153.243 111.219 154.104 112.14 154.755C111.095 154.182 110.208 153.358 109.558 152.358C108.909 151.358 108.517 150.213 108.419 149.025C108.355 147.842 108.412 146.656 108.589 145.485C108.746 144.32 108.992 143.206 109.08 142.097C109.222 139.875 108.96 137.645 108.305 135.516C107.977 134.466 107.54 133.453 107.002 132.494C106.435 131.525 105.803 130.595 105.112 129.71C104.395 128.775 103.727 127.804 103.11 126.801C102.486 125.759 101.993 124.644 101.642 123.482C101.336 122.323 101.14 121.138 101.057 119.943C100.95 118.777 100.887 117.625 100.824 116.473C100.691 114.168 100.584 111.869 100.389 109.583C100.275 107.282 99.9249 104.999 99.3438 102.769Z" fill="#263238"/>
<path d="M276.594 227.53C274.629 228.279 217.63 230.823 215.401 229.551C215.156 229.406 215.225 226.887 214.387 220.382C214.343 220.073 213.04 218.864 211.012 217.164C203.392 210.772 185.475 197.301 185.475 197.301L213.921 172.59L241.492 199.669L248.658 206.716C248.658 206.716 271.959 217.787 274.252 219.45C276.544 221.112 278.547 226.774 276.594 227.53Z" fill="#FFD7D1"/>
<path d="M276.594 227.53C274.629 228.279 217.63 230.823 215.395 229.551C215.156 229.406 215.218 226.887 214.381 220.382C222.536 221.641 266.021 223.877 267.507 218.757C268.099 216.742 261.638 213.089 260.473 212.422C266.619 215.407 273.068 218.625 274.258 219.456C276.544 221.125 278.547 226.774 276.594 227.53Z" fill="#263238"/>
<path d="M231.435 187.037L227.026 192.043L205.142 217.032C205.142 217.032 175.021 195.135 166.173 187.906C165.89 187.666 131.096 212.283 105.654 217.032C86.1315 220.678 72.9067 213.316 65.2426 195.129L97.4797 180.865C124.496 167.546 154.938 146.348 173.346 148.577C193.341 151.002 231.435 187.037 231.435 187.037Z" fill="#37474F"/>
<path d="M224.551 185.21C220.055 190.072 221.283 188.617 216.843 193.529C214.664 195.935 203.713 208.014 202.063 210.564C202.025 210.621 202.101 210.69 202.157 210.652C204.519 208.7 215.212 196.414 217.341 193.97C221.692 188.982 220.389 190.368 224.69 185.336C224.703 185.317 224.709 185.294 224.706 185.272C224.703 185.249 224.693 185.228 224.676 185.213C224.659 185.197 224.637 185.189 224.614 185.188C224.591 185.188 224.569 185.195 224.551 185.21Z" fill="#263238"/>
<path d="M223.563 196.017L205.161 217.038C205.161 217.038 175.021 195.135 166.173 187.906C165.89 187.666 131.096 212.283 105.66 217.038C86.1378 220.678 72.8815 213.316 65.2426 195.129L97.4797 180.859C101.057 179.095 104.69 177.2 108.356 175.235C136.663 180.393 198.7 191.552 223.563 196.017Z" fill="#263238"/>
<path d="M271.903 238.116C269.944 238.872 212.939 241.409 210.709 240.137C210.464 239.992 210.533 237.48 209.696 230.968C209.651 230.66 208.354 229.45 206.32 227.75C198.7 221.358 180.784 207.894 180.784 207.894L209.23 183.17L236.8 210.249L243.967 217.29C243.967 217.29 267.268 228.361 269.566 230.023C271.865 231.686 273.868 237.36 271.903 238.116Z" fill="#FFD7D1"/>
<path d="M271.909 238.116C269.944 238.865 212.939 241.416 210.709 240.137C210.464 239.992 210.533 237.48 209.689 230.974C217.845 232.202 261.329 234.47 262.822 229.343C263.414 227.334 256.946 223.676 255.781 223.008C261.927 225.993 268.376 229.211 269.566 230.049C271.852 231.718 273.867 237.36 271.909 238.116Z" fill="#263238"/>
<path d="M254.282 222.422C251.965 221.163 249.66 219.903 247.304 218.77C246.186 218.28 245.145 217.631 244.212 216.843C243.249 215.967 242.323 215.029 241.397 214.128C237.575 210.482 233.765 206.817 229.911 203.196C227.826 201.237 225.767 199.26 223.701 197.283C223.651 197.232 223.563 197.283 223.607 197.358C223.733 197.553 227.209 201.269 228.878 202.95C230.767 204.84 232.656 206.697 234.546 208.555L240.213 214.097C241.164 215.029 242.103 215.948 243.079 216.868C243.925 217.715 244.906 218.415 245.982 218.94C248.684 220.199 251.429 221.39 254.169 222.567C254.301 222.605 254.377 222.473 254.282 222.422Z" fill="#263238"/>
<path d="M60.0219 189.467C60.0219 189.467 55.8404 212.359 67.8057 222.139C76.3955 229.199 87.7311 229.891 97.5112 228.512C124.591 224.664 147.526 191.986 156.532 190.217C161.148 189.322 197.466 225.244 197.466 225.244L225.685 197.931C218.506 191.697 175.708 148.426 154.107 148.426C139.321 148.426 101.838 179.146 100.924 178.787C99.4508 178.195 92.8888 175.046 92.8888 175.046L60.0219 189.467Z" fill="#37474F"/>
<path d="M219.979 195.022C216.447 197.994 213.147 201.237 209.809 204.399C206.471 207.56 203.184 210.728 199.928 213.946C198.077 215.772 196.238 217.605 194.462 219.488C194.411 219.532 194.462 219.601 194.531 219.557C198.02 216.534 201.364 213.36 204.708 210.186C208.052 207.012 211.333 203.889 214.601 200.652C216.453 198.838 218.323 197.018 220.074 195.116C220.131 195.053 220.042 194.971 219.979 195.022Z" fill="#263238"/>
<path d="M82.4286 185.941C82.3782 185.815 82.1893 185.903 82.2208 186.023C83.0307 189.456 82.6071 193.065 81.0242 196.218C79.1916 199.713 75.8665 202.22 72.913 204.707C72.6296 204.953 72.9886 205.4 73.3034 205.217C75.2178 204.097 77.0043 202.771 78.6312 201.263C80.1374 199.934 81.3567 198.312 82.2145 196.495C82.9815 194.848 83.3968 193.058 83.4336 191.241C83.4705 189.423 83.1282 187.618 82.4286 185.941Z" fill="#263238"/>
<path d="M101.453 181.073C100.622 180.443 99.7405 179.895 98.8903 179.303C96.8751 177.911 94.8473 176.52 92.7754 175.21C92.5802 175.09 92.3472 175.399 92.5361 175.543C93.9971 176.652 95.5022 177.697 96.9948 178.755C97.7631 179.303 98.5251 179.845 99.2997 180.38C100.073 180.84 100.799 181.376 101.466 181.98C102.096 182.641 101.737 183.459 100.95 183.762C100.242 183.979 99.4775 183.915 98.8147 183.585C97.297 182.956 95.9242 181.86 94.5576 180.972C93.7179 180.422 92.8783 179.88 92.0386 179.347C91.138 178.78 90.206 178.27 89.3118 177.704C89.2551 177.666 89.1858 177.76 89.2425 177.804C90.0675 178.434 90.8609 179.171 91.6922 179.832C92.5235 180.493 93.3611 181.142 94.2112 181.784C95.0614 182.427 95.8297 182.975 96.6547 183.541C97.3571 184.049 98.1378 184.438 98.9659 184.694C100.307 185.053 102.348 184.65 102.555 182.987C102.559 182.599 102.459 182.217 102.265 181.88C102.071 181.543 101.791 181.265 101.453 181.073Z" fill="#263238"/>
<path d="M223.821 195.765C222.039 193.932 220.162 192.188 218.304 190.437C216.446 188.686 214.601 186.967 212.725 185.261C208.946 181.828 205.136 178.434 201.238 175.147C197.34 171.859 193.322 168.692 189.21 165.669C185.097 162.646 180.966 159.837 176.615 157.262C174.442 155.971 172.206 154.743 169.958 153.584C167.753 152.419 165.489 151.368 163.176 150.435C162.546 150.202 161.916 149.969 161.286 149.711C161.192 149.673 161.11 149.812 161.204 149.85C162.363 150.372 163.478 150.989 164.611 151.556C165.745 152.123 166.834 152.696 167.937 153.275C170.153 154.453 172.345 155.681 174.511 156.966C178.852 159.548 183.082 162.31 187.201 165.253C191.326 168.201 195.325 171.312 199.223 174.542C203.121 177.773 207.025 181.117 210.829 184.517C214.633 187.918 218.355 191.331 222.165 194.713C222.643 195.135 223.122 195.557 223.613 195.973C223.642 195.986 223.674 195.989 223.706 195.984C223.737 195.978 223.766 195.963 223.788 195.94C223.811 195.918 223.826 195.889 223.832 195.858C223.838 195.826 223.834 195.794 223.821 195.765Z" fill="#263238"/>
<path d="M196.011 215.848C187.314 207.573 163.761 186.495 158.427 182.968C157.89 182.618 157.286 182.381 156.654 182.273C156.021 182.164 155.373 182.187 154.75 182.338C153.377 182.679 152.275 183.699 151.191 184.555L147.318 187.622L139.365 193.92C134.396 197.868 129.459 201.855 124.439 205.734C120.008 209.267 115.315 212.461 110.402 215.287C100.956 220.539 88.9906 223.896 78.5934 219.362C73.8573 217.251 70.0517 213.488 67.8876 208.776C65.6393 204.084 64.6884 198.87 64.109 193.737C63.9705 192.478 63.8571 191.25 63.7564 190.003C63.7592 189.995 63.7601 189.987 63.7591 189.979C63.7581 189.971 63.7551 189.963 63.7505 189.956C63.7459 189.95 63.7397 189.944 63.7325 189.94C63.7253 189.937 63.7173 189.935 63.7091 189.935C63.701 189.935 63.693 189.937 63.6858 189.94C63.6786 189.944 63.6724 189.95 63.6678 189.956C63.6631 189.963 63.6602 189.971 63.6592 189.979C63.6581 189.987 63.6591 189.995 63.6619 190.003C64.1468 199.682 65.6771 210.91 73.8702 217.277C82.5797 224.041 94.8284 222.863 104.451 218.915C115.239 214.506 124.282 206.748 133.313 199.569L149.101 187.024C150.36 186.01 151.62 184.952 152.936 183.982C154.252 183.012 155.795 182.288 157.3 183.163C162.288 186.067 194.626 215.016 195.772 216.024C195.948 216.175 196.15 215.974 196.011 215.848Z" fill="#263238"/>
<path d="M89.3433 140.284C95.1433 143.804 124.439 159.963 134.005 155.127C145.599 149.258 157.842 137.928 161.973 131.108C164.284 127.285 145.158 116.321 142.646 119.489C138.691 124.527 128.42 133.81 126.555 135.233C124.691 136.656 104.464 132.311 93.147 131.543C82.9513 130.831 85.2562 137.828 89.3433 140.284Z" fill="#FFD7D1"/>
<path d="M168.629 122.084C166.891 126.454 159.813 133.999 157.426 135.164C155.039 136.329 141.795 124.754 141.965 122.021C142.136 119.288 149.132 105.017 153.301 102.649C157.47 100.282 170.437 117.531 168.629 122.084Z" fill="#FFD7D1"/>
<path d="M142.727 119.357C142.727 119.357 142.797 113.236 141.052 108.135C139.591 103.84 136.927 97.6366 139.207 96.7612C143.88 94.9664 150.511 110.446 150.511 110.446C150.511 110.446 152.338 117.745 147.866 119.93C147.04 120.317 146.123 120.469 145.216 120.368C144.309 120.267 143.448 119.917 142.727 119.357Z" fill="#FFD7D1"/>
<path d="M147.621 107.562C148.03 110.024 150.694 108.135 150.694 108.135C150.694 108.135 147.514 111.775 148.912 114.149C150.272 116.428 153.408 114.035 153.635 113.865C153.471 114.061 150.637 117.486 152.287 119.722C153.937 121.958 156.746 119.092 156.922 118.916C156.821 119.149 155.556 122.247 157.199 123.664C160.027 126.089 163.497 118.255 166.337 117.285C166.337 117.285 168.541 121.933 168.629 122.058C168.629 122.058 172.068 114.671 170.519 110.887C170.304 110.334 169.908 109.871 169.395 109.574C168.882 109.278 168.283 109.165 167.697 109.256C167.697 109.256 169.07 106.995 167.823 105.187C167.193 104.268 165.128 104.469 165.128 104.469C165.128 104.469 166.154 102.618 164.945 101.081C163.982 99.8219 162.08 100.25 162.08 100.25C162.08 100.25 162.231 98.0145 160.82 97.1013C158.068 95.1806 146.745 102.297 147.621 107.562Z" fill="#FFD7D1"/>
<path d="M161.79 100.263C161.798 100.263 161.806 100.259 161.812 100.253C161.818 100.248 161.822 100.24 161.822 100.231C161.822 100.223 161.818 100.215 161.812 100.209C161.806 100.203 161.798 100.2 161.79 100.2C157.31 101.671 153.385 104.472 150.536 108.229C150.448 108.355 150.606 108.55 150.732 108.431C154.004 105.188 157.729 102.436 161.79 100.263Z" fill="#263238"/>
<path d="M165.191 104.413C165.235 104.413 165.191 104.312 165.147 104.331C160.738 105.83 155.996 109.212 153.44 113.84C153.351 113.998 153.44 114.231 153.547 114.054C155.486 111.107 161.356 106.39 165.191 104.413Z" fill="#263238"/>
<path d="M156.853 119.3C159.479 114.955 163.232 111.894 167.559 109.306C167.615 109.268 167.559 109.193 167.508 109.212C165.059 109.904 162.47 111.844 160.613 113.519C158.845 115.037 157.506 116.991 156.727 119.187C156.67 119.294 156.803 119.388 156.853 119.3Z" fill="#263238"/>
<path d="M150.606 108.135C150.505 108.279 150.832 108.273 150.732 108.418C150.31 109.048 148.112 113.034 149.239 114.205C150.14 115.144 152.029 114.577 152.665 114.079L154.277 112.82L153.207 114.564C152.72 115.34 152.364 116.192 152.155 117.083C152.035 117.487 152.001 117.912 152.056 118.33C152.112 118.748 152.255 119.149 152.476 119.508C152.683 119.833 152.995 120.078 153.36 120.203C153.725 120.328 154.122 120.325 154.485 120.194C155.302 119.877 156.025 119.354 156.582 118.677L158.188 116.863L157.269 119.092C157.012 119.712 156.837 120.362 156.746 121.026C156.628 121.663 156.703 122.32 156.96 122.915C157.085 123.173 157.28 123.391 157.523 123.545C157.765 123.698 158.046 123.781 158.333 123.784C158.972 123.691 159.572 123.42 160.065 123.003C161.143 122.108 162.152 121.131 163.081 120.081C163.572 119.565 164.057 119.048 164.574 118.551C165.06 118.027 165.653 117.613 166.312 117.335C165.695 117.678 165.152 118.138 164.712 118.689C164.246 119.218 163.799 119.766 163.352 120.314C162.477 121.451 161.499 122.505 160.43 123.463C159.857 123.988 159.144 124.336 158.377 124.464C157.951 124.487 157.528 124.385 157.159 124.172C156.79 123.958 156.491 123.642 156.299 123.261C155.964 122.547 155.85 121.749 155.971 120.969C156.061 120.226 156.247 119.498 156.525 118.803L157.212 119.218C156.565 120.031 155.716 120.658 154.749 121.038C154.209 121.237 153.615 121.237 153.074 121.038C152.548 120.832 152.096 120.472 151.777 120.005C151.497 119.552 151.317 119.044 151.247 118.515C151.178 117.987 151.221 117.449 151.374 116.939C151.622 115.969 152.026 115.045 152.571 114.205L153.106 114.69C152.275 115.32 150.234 116.164 148.647 114.886C146.852 112.864 149.982 108.859 150.606 108.135Z" fill="#263238"/>
<path d="M150.706 108.135C150.236 108.343 149.737 108.479 149.227 108.538C149.023 108.568 148.815 108.543 148.625 108.466C148.434 108.388 148.268 108.261 148.143 108.097C147.925 107.696 147.822 107.243 147.847 106.787C147.847 106.283 147.891 105.76 147.948 105.213C147.635 105.671 147.42 106.19 147.318 106.737C147.245 107.034 147.231 107.343 147.278 107.645C147.324 107.948 147.43 108.238 147.589 108.5C147.794 108.769 148.075 108.971 148.395 109.079C148.702 109.164 149.027 109.164 149.334 109.079C149.879 108.917 150.36 108.586 150.706 108.135Z" fill="#263238"/>
<path d="M124.351 134.868L116.794 154.264C116.794 154.264 99.0666 147.576 90.5398 142.198C82.0129 136.82 81.3894 131.234 94.0034 131.234C101.989 131.234 124.351 134.868 124.351 134.868Z" fill="#C496FF"/>
<path d="M85.4766 135.044L85.0169 135.611L85.0546 136.341L84.4942 136.127C84.2871 135.558 84.2694 134.937 84.4438 134.358L84.7713 134.861L85.4766 135.044Z" fill="#EEE1FF"/>
<path d="M97.6812 135.044L97.2215 135.611L97.2593 136.341L96.5728 136.083L95.8927 136.341L95.9305 135.611L95.4708 135.044L96.1761 134.861L96.5728 134.244L96.9759 134.861L97.6812 135.044Z" fill="#EEE1FF"/>
<path d="M103.777 143.867L103.317 144.434L103.355 145.164L102.675 144.906L101.995 145.164L102.033 144.434L101.573 143.867L102.278 143.684L102.675 143.067L103.072 143.684L103.777 143.867Z" fill="#EEE1FF"/>
<path d="M109.88 135.044L109.42 135.611L109.458 136.341L108.777 136.083L108.097 136.341L108.135 135.611L107.675 135.044L108.381 134.861L108.777 134.244L109.174 134.861L109.88 135.044Z" fill="#EEE1FF"/>
<path d="M115.982 143.867L115.522 144.434L115.56 145.164L114.88 144.906L114.193 145.164L114.237 144.434L113.778 143.867L114.483 143.684L114.88 143.067L115.277 143.684L115.982 143.867Z" fill="#EEE1FF"/>
<path d="M121.618 135.611L121.662 136.341L120.976 136.083L120.296 136.341L120.333 135.611L119.874 135.044L120.579 134.861L120.913 134.345H121.058L121.379 134.842L122.084 135.025L121.618 135.611Z" fill="#EEE1FF"/>
<g opacity="0.2">
<path d="M85.0171 135.611L85.0549 136.342L84.4944 136.128C84.2903 135.556 84.2727 134.934 84.444 134.352L84.7715 134.856L85.4768 135.038L85.0171 135.611Z" fill="black"/>
<path d="M97.2217 135.611L97.2595 136.342L96.5731 136.084L95.893 136.342L95.9307 135.611L95.471 135.045L96.1763 134.862L96.5731 134.245L96.9761 134.862L97.6814 135.045L97.2217 135.611Z" fill="black"/>
<path d="M109.42 135.611L109.458 136.342L108.778 136.084L108.098 136.342L108.135 135.611L107.676 135.045L108.381 134.862L108.778 134.245L109.174 134.862L109.88 135.045L109.42 135.611Z" fill="black"/>
<path d="M121.618 135.611L121.662 136.342L120.976 136.084L120.296 136.342L120.334 135.611L119.874 135.045L120.579 134.862L120.913 134.346H121.039L121.36 134.843L122.066 135.026L121.618 135.611Z" fill="black"/>
<path d="M103.318 144.434L103.356 145.165L102.675 144.907L101.995 145.165L102.033 144.434L101.573 143.867L102.279 143.685L102.675 143.068L103.072 143.685L103.777 143.867L103.318 144.434Z" fill="black"/>
<path d="M115.522 144.434L115.56 145.165L114.88 144.907L114.194 145.165L114.238 144.434L113.778 143.867L114.483 143.685L114.88 143.068L115.277 143.685L115.982 143.867L115.522 144.434Z" fill="black"/>
</g>
<path d="M113.652 151.569C114.911 148.955 115.969 146.21 117.002 143.489C118.035 140.768 118.98 138.067 119.792 135.302C119.792 135.252 119.723 135.214 119.704 135.271C118.558 137.947 117.506 140.668 116.486 143.395C115.465 146.121 114.414 148.785 113.551 151.537C113.551 151.594 113.627 151.625 113.652 151.569Z" fill="#263238"/>
<path opacity="0.1" d="M118.923 148.76L116.769 154.264C116.769 154.264 99.0667 147.576 90.5398 142.198C85.061 138.728 82.8442 135.176 85.3444 133.092L118.923 148.76Z" fill="black"/>
<path d="M104.281 169.851L106.082 176.444C106.082 176.444 58.2208 213.001 56.0482 211.83C56.0482 211.83 63.1392 147.967 75.4005 135.29C81.5343 128.948 88.5372 129.622 92.8951 134.244C94.0286 135.422 105.994 150.423 107.253 157.281C108.337 163.326 104.281 169.851 104.281 169.851Z" fill="#C496FF"/>
<path d="M103.393 148.666C102.663 147.318 101.888 146.014 101.057 144.723C100.864 144.24 100.641 143.769 100.389 143.313C100.049 142.639 99.7153 141.971 99.4193 141.279C99.4186 141.271 99.416 141.263 99.4117 141.256C99.4075 141.25 99.4017 141.244 99.3949 141.24C99.3881 141.236 99.3804 141.234 99.3724 141.233C99.3645 141.232 99.3566 141.234 99.3493 141.237C99.342 141.24 99.3356 141.245 99.3305 141.251C99.3254 141.257 99.3218 141.264 99.32 141.272C99.3183 141.28 99.3184 141.288 99.3203 141.296C99.3222 141.303 99.3259 141.31 99.3311 141.316C99.646 142.003 99.9609 142.696 100.2 143.395C100.218 143.431 100.232 143.469 100.244 143.508C99.9357 143.073 99.6145 142.639 99.306 142.211C98.8275 141.522 98.3147 140.858 97.7694 140.221C97.7379 140.189 97.6938 140.221 97.7127 140.265C98.1157 140.989 98.6195 141.663 99.0666 142.355C99.5138 143.048 99.9924 143.804 100.465 144.516C101.403 145.926 102.354 147.318 103.311 148.716C103.313 148.724 103.317 148.731 103.322 148.737C103.327 148.743 103.334 148.747 103.341 148.75C103.348 148.753 103.356 148.755 103.364 148.754C103.372 148.753 103.38 148.751 103.386 148.747C103.393 148.742 103.399 148.737 103.403 148.73C103.407 148.723 103.41 148.716 103.41 148.708C103.411 148.7 103.41 148.692 103.407 148.685C103.404 148.677 103.399 148.671 103.393 148.666Z" fill="#263238"/>
<g opacity="0.2">
<path d="M84.3742 134.245L84.7709 134.856L85.4762 135.045L85.0165 135.618L85.0543 136.342L84.3742 136.084L83.694 136.342L83.7318 135.618L83.2721 135.045L83.9774 134.856L84.3742 134.245Z" fill="black"/>
<path d="M72.1695 151.632L72.5726 152.25L73.2779 152.438L72.8119 153.005L72.856 153.729L72.1695 153.471L71.4894 153.729L71.5272 153.005L71.0674 152.438L71.7728 152.25L72.1695 151.632Z" fill="black"/>
<path d="M84.3742 151.632L84.7709 152.25L85.4762 152.438L85.0165 153.005L85.0543 153.729L84.3742 153.471L83.694 153.729L83.7318 153.005L83.2721 152.438L83.9774 152.25L84.3742 151.632Z" fill="black"/>
<path d="M96.5725 151.632L96.9756 152.25L97.6809 152.438L97.2149 153.005L97.259 153.729L96.5725 153.471L95.8924 153.729L95.9302 153.005L95.4705 152.438L96.1758 152.25L96.5725 151.632Z" fill="black"/>
<path d="M78.2719 143.068L78.6686 143.685L79.3739 143.867L78.9142 144.441L78.952 145.165L78.2719 144.907L77.5917 145.165L77.6295 144.441L77.1698 143.867L77.8751 143.685L78.2719 143.068Z" fill="black"/>
<path d="M90.4765 143.068L90.8732 143.685L91.5785 143.867L91.1188 144.441L91.1566 145.165L90.4765 144.907L89.79 145.165L89.8341 144.441L89.3681 143.867L90.0797 143.685L90.4765 143.068Z" fill="black"/>
<path d="M72.1695 169.026L72.5726 169.637L73.2779 169.826L72.8119 170.393L72.856 171.123L72.1695 170.859L71.4894 171.123L71.5272 170.393L71.0674 169.826L71.7728 169.637L72.1695 169.026Z" fill="black"/>
<path d="M84.3742 169.026L84.7709 169.637L85.4762 169.826L85.0165 170.393L85.0543 171.123L84.3742 170.859L83.694 171.123L83.7318 170.393L83.2721 169.826L83.9774 169.637L84.3742 169.026Z" fill="black"/>
<path d="M96.5725 169.026L96.9756 169.637L97.6809 169.826L97.2149 170.393L97.259 171.123L96.5725 170.859L95.8924 171.123L95.9302 170.393L95.4705 169.826L96.1758 169.637L96.5725 169.026Z" fill="black"/>
<path d="M66.0735 160.455L66.4703 161.072L67.1756 161.261L66.7159 161.828L66.7536 162.552L66.0735 162.294L65.3934 162.552L65.4312 161.828L64.9714 161.261L65.6768 161.072L66.0735 160.455Z" fill="black"/>
<path d="M78.2719 160.455L78.6686 161.072L79.3739 161.261L78.9142 161.828L78.952 162.552L78.2719 162.294L77.5917 162.552L77.6295 161.828L77.1698 161.261L77.8751 161.072L78.2719 160.455Z" fill="black"/>
<path d="M90.4765 160.455L90.8732 161.072L91.5785 161.261L91.1188 161.828L91.1566 162.552L90.4765 162.294L89.79 162.552L89.8341 161.828L89.3681 161.261L90.0797 161.072L90.4765 160.455Z" fill="black"/>
<path d="M102.675 160.455L103.072 161.072L103.777 161.261L103.317 161.828L103.355 162.552L102.675 162.294L101.995 162.552L102.032 161.828L101.573 161.261L102.278 161.072L102.675 160.455Z" fill="black"/>
<path d="M60.6135 187.78L60.6513 188.511L59.9712 188.246L59.3414 188.492C59.417 188.007 59.4989 187.516 59.5807 187.025L59.9712 186.395L60.3679 187.025L61.0733 187.213L60.6135 187.78Z" fill="black"/>
<path d="M72.1695 186.414L72.5726 187.025L73.2779 187.213L72.8119 187.78L72.856 188.511L72.1695 188.246L71.4894 188.511L71.5272 187.78L71.0674 187.213L71.7728 187.025L72.1695 186.414Z" fill="black"/>
<path d="M84.3742 186.414L84.7709 187.025L85.4762 187.213L85.0165 187.78L85.0543 188.511L84.3742 188.246L83.694 188.511L83.7318 187.78L83.2721 187.213L83.9774 187.025L84.3742 186.414Z" fill="black"/>
<path d="M66.0735 177.849L66.4703 178.46L67.1756 178.649L66.7159 179.216L66.7536 179.946L66.0735 179.682L65.3934 179.946L65.4312 179.216L64.9714 178.649L65.6768 178.46L66.0735 177.849Z" fill="black"/>
<path d="M78.2719 177.849L78.6686 178.46L79.3739 178.649L78.9142 179.216L78.952 179.946L78.2719 179.682L77.5917 179.946L77.6295 179.216L77.1698 178.649L77.8751 178.46L78.2719 177.849Z" fill="black"/>
<path d="M90.4765 177.849L90.8732 178.46L91.5785 178.649L91.1188 179.216L91.1566 179.946L90.4765 179.682L89.79 179.946L89.8341 179.216L89.3681 178.649L90.0797 178.46L90.4765 177.849Z" fill="black"/>
<path d="M102.014 179.53V179.216L101.554 178.649L102.259 178.46L102.656 177.83L103.053 178.46L103.323 178.529L102.014 179.53Z" fill="black"/>
<path d="M59.9712 203.801L60.368 204.412L61.0733 204.601L60.6136 205.168L60.6513 205.898L59.9712 205.634L59.2911 205.898L59.3289 205.168L58.8691 204.601L59.5745 204.412L59.9712 203.801Z" fill="black"/>
<path d="M66.0735 195.237L66.4703 195.847L67.1756 196.036L66.7159 196.603L66.7536 197.334L66.0735 197.069L65.3934 197.334L65.4312 196.603L64.9714 196.036L65.6768 195.847L66.0735 195.237Z" fill="black"/>
<path d="M78.9142 196.603V196.742L78.3978 197.119L78.2656 197.069L77.5854 197.334L77.6232 196.603L77.1635 196.036L77.8688 195.847L78.2656 195.218L78.6623 195.847L79.3677 196.036L78.9142 196.603Z" fill="black"/>
</g>
<path d="M74.5063 136.511C57.6226 154.088 33.0055 198.592 29.9638 204.972C27.8982 209.305 50.5442 220.716 51.5077 217.567C52.7672 213.537 72.4659 163.729 77.7054 144.937C80.6086 134.578 78.0014 132.884 74.5063 136.511Z" fill="#FFD7D1"/>
<path d="M52.5845 214.601C51.7973 216.755 49.1083 225.936 47.2253 227.064C45.3424 228.191 35.4615 227.958 30.4991 227.958C25.5366 227.958 24.5479 226.572 24.6298 224.859C24.7116 223.147 35.1466 222.844 35.1466 222.844C35.1466 222.844 21.2102 226.843 17.7025 227.492C14.1947 228.141 6.11499 230.187 4.94995 227.278C4.42095 225.968 6.63139 224.639 6.63139 224.639C6.63139 224.639 3.24331 225.628 2.70173 223.946C2.07197 222.057 4.78621 220.968 4.78621 220.968C4.78621 220.968 2.66394 221.396 2.61986 219.834C2.5065 216.339 15.7691 214.626 15.7691 214.626C15.7691 214.626 5.61749 219.563 5.29001 216.717C4.83659 212.768 25.6437 208.442 27.81 206.723C29.2252 205.523 30.4023 204.068 31.28 202.434L52.5845 214.601Z" fill="#FFD7D1"/>
<path d="M24.7053 225.729C24.6707 225.484 24.6955 225.236 24.7777 225.003C24.86 224.771 24.9972 224.562 25.1776 224.394C25.533 224.064 25.9419 223.798 26.3867 223.606C27.308 223.214 28.2628 222.907 29.2395 222.687C31.1981 222.183 33.207 221.837 35.2096 221.314C33.1419 221.286 31.079 221.519 29.0695 222.007C28.0442 222.243 27.0566 222.62 26.1349 223.128C25.6615 223.393 25.2461 223.751 24.9131 224.179C24.7483 224.398 24.6426 224.655 24.6062 224.927C24.5698 225.198 24.6039 225.474 24.7053 225.729Z" fill="#263238"/>
<path d="M6.63135 224.614C8.06719 224.261 9.47784 223.858 10.8948 223.449C12.3117 223.04 13.7035 222.611 15.1141 222.189L19.3083 220.873C20.7126 220.432 22.1107 219.998 23.5213 219.576C22.0561 219.731 20.6025 219.982 19.1697 220.325C17.7276 220.653 16.317 221.068 14.9063 221.497C13.4957 221.925 12.1039 222.397 10.7247 222.92C9.34559 223.443 7.97272 223.99 6.63135 224.614Z" fill="#263238"/>
<path d="M20.1586 216.093C18.8055 216.18 17.4606 216.366 16.1344 216.648C14.8056 216.916 13.4919 217.255 12.1985 217.661C10.9005 218.056 9.6263 218.525 8.38217 219.066C7.1355 219.608 5.92954 220.239 4.77368 220.955C6.03319 220.514 7.2927 220.023 8.55221 219.595C9.81171 219.167 11.0712 218.732 12.3748 218.335C13.6784 217.939 14.9379 217.554 16.2226 217.177C17.5073 216.799 18.8487 216.446 20.1586 216.093Z" fill="#263238"/>
<path d="M18.1055 212.768C15.9226 212.933 13.7711 213.386 11.7072 214.116C9.62525 214.803 7.64324 215.762 5.81274 216.969C7.87834 216.232 9.88096 215.457 11.9277 214.777C13.9744 214.097 16.0274 213.436 18.1055 212.768Z" fill="#263238"/>
<path d="M51.2054 164.693L69.9721 171.255C69.9721 171.255 77.3213 152.727 78.9397 142.803C80.5582 132.878 78.6815 130.736 70.1232 139.988C61.5648 149.239 51.2054 164.693 51.2054 164.693Z" fill="#C496FF"/>
<g opacity="0.2">
<path d="M60.6148 153.005L60.6526 153.729L59.9725 153.471L59.2924 153.729V153.307C59.5946 152.898 59.9221 152.482 60.2181 152.047L60.344 152.249L61.0494 152.438L60.6148 153.005Z" fill="black"/>
<path d="M72.1709 151.632L72.5739 152.249L73.2792 152.438L72.8132 153.005L72.8573 153.729L72.1709 153.471L71.4907 153.729L71.5285 153.005L71.0688 152.438L71.7741 152.249L72.1709 151.632Z" fill="black"/>
<path d="M66.7172 144.434L66.755 145.164L66.0748 144.906L65.7537 145.026L66.799 143.766L67.1769 143.867L66.7172 144.434Z" fill="black"/>
<path d="M78.7959 143.716C78.7203 144.131 78.6321 144.566 78.5377 144.975L78.2732 144.875L77.593 145.133L77.6308 144.402L77.1711 143.836L77.8764 143.653L78.2732 143.023L78.6699 143.653L78.7959 143.716Z" fill="black"/>
<path d="M54.5125 161.828L54.5503 162.552L53.8702 162.294L53.1901 162.552L53.2278 161.828V161.796C53.4797 161.443 53.7442 161.059 54.0276 160.656L54.2921 161.072L54.9975 161.261L54.5125 161.828Z" fill="black"/>
<path d="M66.0748 160.455L66.4716 161.072L67.1769 161.261L66.7172 161.828L66.755 162.552L66.0748 162.294L65.3947 162.552L65.4325 161.828L64.9728 161.261L65.6781 161.072L66.0748 160.455Z" fill="black"/>
</g>
<path d="M77.5102 153.099C76.722 154.395 76.003 155.732 75.3564 157.104C75.5517 156.475 75.7469 155.807 75.9358 155.165C76.4018 153.571 76.8804 151.965 77.252 150.347C77.2491 150.34 77.2442 150.335 77.2381 150.331C77.2319 150.326 77.2247 150.324 77.2173 150.324C77.21 150.324 77.2028 150.326 77.1966 150.331C77.1905 150.335 77.1857 150.34 77.1827 150.347C76.1625 153.061 75.2935 155.832 74.311 158.572C73.3286 161.311 72.3777 164.032 71.4268 166.758C70.9041 168.251 70.4192 169.75 69.9594 171.261L69.0148 170.927C68.9518 170.89 68.9329 170.997 69.0148 171.009L70.1484 171.5C70.1862 171.5 73.6057 162.816 74.9723 158.376C75.9232 156.676 76.7923 154.925 77.5984 153.156C77.6021 153.15 77.6046 153.143 77.6058 153.137C77.6071 153.13 77.6069 153.123 77.6055 153.116C77.604 153.11 77.6012 153.103 77.5973 153.098C77.5934 153.092 77.5884 153.087 77.5826 153.083C77.5768 153.08 77.5704 153.077 77.5636 153.076C77.5568 153.075 77.5499 153.075 77.5431 153.076C77.5364 153.078 77.53 153.08 77.5244 153.084C77.5187 153.088 77.5139 153.093 77.5102 153.099Z" fill="#263238"/>
<path d="M70.7278 167.949C68.0954 166.689 65.3371 165.713 62.6039 164.718C59.8708 163.723 57.1503 162.829 54.3731 162.042C54.3164 162.042 54.2912 162.117 54.3731 162.136C57.0684 163.244 59.8015 164.252 62.5599 165.234C65.3182 166.217 67.9757 167.231 70.7467 168.049C70.7554 168.043 70.7621 168.034 70.7661 168.024C70.7701 168.015 70.7711 168.004 70.7691 167.993C70.7672 167.982 70.7622 167.973 70.7549 167.965C70.7476 167.957 70.7382 167.951 70.7278 167.949Z" fill="#263238"/>
<path d="M83.8392 130.9C77.9258 131.492 79.5065 137.45 82.1137 140.177C83.8518 142.003 87.3721 143.842 89.3936 143.117C91.4152 142.393 89.8219 137.872 89.8219 137.872C89.8219 137.872 93.1533 141.109 94.3876 139.71C95.6219 138.312 89.9604 130.27 83.8392 130.9Z" fill="#263238"/>
<path d="M80.766 133.992C81.0998 134.836 85.6088 138.237 89.5826 137.475C90.8421 137.223 90.2753 131.776 90.2753 131.776L90.3194 131.234L90.8924 123.677L81.4461 119.401L80.0922 118.853C80.0922 118.853 80.0922 120.937 80.0922 123.526V123.897C80.0922 124.042 80.0922 124.181 80.0922 124.319C80.0922 124.703 80.0922 125.1 80.0922 125.497C80.0922 125.793 80.0922 126.089 80.0922 126.404C80.0922 126.719 80.0922 127.034 80.0922 127.342C80.1688 129.571 80.3939 131.793 80.766 133.992Z" fill="#FFD7D1"/>
<path d="M80.0795 123.513C81.1191 125.466 82.5722 127.169 84.3375 128.502C86.1028 129.836 88.1378 130.768 90.3004 131.234L90.8735 123.677L81.4272 119.401L80.0732 118.853C80.0732 118.853 80.0795 120.925 80.0795 123.513Z" fill="#263238"/>
<path d="M100.219 111.208C102.625 124.319 95.0426 127.235 92.215 127.751C89.6456 128.217 80.8479 129.49 77.1009 116.693C73.3539 103.896 78.6879 98.6442 84.5005 97.265C90.3131 95.8859 97.8072 98.0963 100.219 111.208Z" fill="#FFD7D1"/>
<path d="M95.9746 108.097C95.6597 108.097 95.3448 108.046 95.0551 108.021C94.7288 108.037 94.4062 107.946 94.1357 107.763C94.0633 107.688 94.0174 107.592 94.0049 107.488C93.9924 107.385 94.014 107.28 94.0664 107.19C94.1968 107.026 94.3696 106.9 94.566 106.827C94.7624 106.754 94.975 106.736 95.1811 106.774C95.61 106.78 96.0213 106.946 96.3335 107.24C96.4001 107.312 96.4445 107.402 96.4616 107.498C96.4786 107.595 96.4676 107.694 96.4297 107.784C96.3919 107.874 96.3288 107.952 96.2481 108.007C96.1674 108.063 96.0724 108.094 95.9746 108.097Z" fill="#263238"/>
<path d="M86.9628 109.671C87.2599 109.587 87.5521 109.486 87.8382 109.369C88.1581 109.308 88.4485 109.142 88.6631 108.897C88.7177 108.807 88.7405 108.702 88.7279 108.598C88.7154 108.494 88.6681 108.397 88.5939 108.324C88.4264 108.198 88.2282 108.119 88.02 108.096C87.8117 108.072 87.6011 108.105 87.4099 108.191C86.9955 108.306 86.6386 108.571 86.4086 108.934C86.3609 109.02 86.3389 109.117 86.3455 109.214C86.352 109.312 86.3868 109.405 86.4455 109.483C86.5043 109.562 86.5844 109.621 86.6763 109.654C86.7681 109.688 86.8677 109.693 86.9628 109.671Z" fill="#263238"/>
<path d="M89.4314 112.839C89.4314 112.839 89.3684 112.889 89.3747 112.927C89.5385 113.821 89.5699 114.873 88.8016 115.289C88.8016 115.289 88.8016 115.345 88.8016 115.339C89.7904 115.049 89.7274 113.658 89.4314 112.839Z" fill="#263238"/>
<path d="M88.4931 112.008C87.0321 112.115 87.3469 115.024 88.7009 114.93C90.0549 114.835 89.7148 111.932 88.4931 112.008Z" fill="#263238"/>
<path d="M87.9326 112.234C87.6996 112.43 87.4792 112.744 87.1769 112.807C86.8746 112.87 86.5471 112.606 86.2638 112.341C86.2638 112.31 86.2134 112.341 86.2134 112.379C86.2701 112.94 86.5472 113.488 87.1517 113.506C87.7563 113.525 88.046 112.984 88.1215 112.411C88.1404 112.304 88.0334 112.159 87.9326 112.234Z" fill="#263238"/>
<path d="M94.6584 111.8C94.6584 111.762 94.734 111.831 94.7403 111.869C94.8033 112.776 95.0237 113.802 95.8738 114.017V114.073C94.841 114.029 94.5576 112.637 94.6584 111.8Z" fill="#263238"/>
<path d="M95.3511 110.748C96.7932 110.49 97.2026 113.393 95.8675 113.632C94.5324 113.872 94.142 110.987 95.3511 110.748Z" fill="#263238"/>
<path d="M95.9809 110.88C96.2328 111 96.5036 111.246 96.7744 111.227C97.0452 111.208 97.2908 110.855 97.4482 110.528C97.4482 110.49 97.4923 110.528 97.4986 110.528C97.5931 111.076 97.4986 111.68 96.9696 111.863C96.4406 112.045 96.0754 111.605 95.8675 111.069C95.8235 110.994 95.8801 110.83 95.9809 110.88Z" fill="#263238"/>
<path d="M93.8649 116.019C93.8649 116.019 94.2113 117.342 94.2868 117.978C94.2868 118.034 94.142 118.085 93.9279 118.123C93.3955 118.289 92.8274 118.306 92.2862 118.17C91.745 118.035 91.2518 117.752 90.861 117.354C90.8043 117.298 90.861 117.222 90.9428 117.253C91.8199 117.708 92.8207 117.868 93.7956 117.707C93.7956 117.531 93.1218 115.465 93.2162 115.446C93.7163 115.425 94.2168 115.476 94.7025 115.597C94.0727 112.82 92.9643 110.169 92.3661 107.41C92.3661 107.31 92.4857 107.266 92.5235 107.347C93.8586 110.049 94.6773 113.229 95.4141 116.076C95.4959 116.416 94.1294 116.095 93.8649 116.019Z" fill="#263238"/>
<path d="M93.8649 117.675C93.6026 118.254 93.1947 118.756 92.681 119.13C92.3939 119.321 92.0561 119.422 91.7111 119.42C90.9554 119.42 90.7854 118.746 90.7854 118.16C90.7893 117.846 90.8294 117.533 90.905 117.228C91.8186 117.689 92.8559 117.846 93.8649 117.675Z" fill="#263238"/>
<path d="M92.681 119.149C92.3939 119.34 92.0561 119.441 91.7111 119.439C90.9554 119.439 90.7854 118.765 90.7854 118.179C91.1644 118.104 91.5575 118.159 91.9014 118.335C92.2453 118.511 92.5199 118.798 92.681 119.149Z" fill="#FF9ABB"/>
<path d="M78.0392 116C81.2257 115.641 81.4146 105.742 81.4209 104.526C81.4524 105.294 81.6476 109.35 81.9688 109.489C82.3114 109.455 82.6457 109.364 82.9575 109.218C82.9167 108.734 82.9167 108.247 82.9575 107.763C82.9575 107.536 83.0772 108.242 83.2661 109.111L83.8455 108.897C83.7293 107.865 83.7526 106.823 83.9148 105.798C83.9777 105.408 84.2107 107.121 84.6956 108.594C87.3621 107.591 90.1307 106.883 92.9517 106.485C93.7452 106.396 94.4379 106.352 95.0488 106.34C94.9606 105.143 94.7276 103.877 94.8347 104.148C95.1302 104.85 95.3538 105.58 95.5022 106.327H96.4154C96.3713 104.633 95.3637 102.001 95.666 102.398C96.5652 103.605 97.2257 104.973 97.6119 106.428C98.7769 106.56 99.117 106.762 99.1233 106.459C99.1233 105.918 98.122 101.245 94.1797 98.0648C89.8974 94.6012 81.8555 94.2863 77.8061 100.401C77.8061 100.401 74.2858 103.097 74.0276 107.033C73.7694 110.969 76.194 116.202 78.0392 116Z" fill="#263238"/>
<path d="M79.3743 117.323C79.3743 117.323 76.0807 113.456 74.3363 114.665C72.5918 115.874 75.2998 121.674 77.5858 122.285C77.8733 122.383 78.1778 122.423 78.4808 122.4C78.7838 122.378 79.0792 122.294 79.3492 122.155C79.6192 122.016 79.8582 121.823 80.0519 121.589C80.2456 121.355 80.39 121.084 80.4764 120.793L79.3743 117.323Z" fill="#FFD7D1"/>
<path d="M75.136 116.309V116.366C76.7419 116.85 77.6928 118.204 78.4045 119.64C78.2984 119.495 78.1625 119.375 78.006 119.287C77.8495 119.199 77.6759 119.145 77.497 119.13C77.3181 119.114 77.1379 119.137 76.9686 119.197C76.7992 119.257 76.6447 119.352 76.5152 119.476C76.4774 119.476 76.5152 119.565 76.5656 119.552C76.8292 119.44 77.1208 119.413 77.4005 119.474C77.6801 119.535 77.9341 119.681 78.1274 119.892C78.453 120.244 78.7362 120.633 78.9712 121.051C79.0594 121.183 79.2987 121.051 79.2357 120.931V120.893C79.0657 118.935 77.2646 116.303 75.136 116.309Z" fill="#263238"/>
<path d="M144.023 76.0182C143.634 79.7819 142.205 83.3631 139.897 86.3615C137.589 89.36 134.493 91.6576 130.954 92.9977C127.415 94.3377 123.574 94.6674 119.859 93.9498C116.144 93.2323 112.701 91.4958 109.916 88.9344L99.6951 90.4333L104.802 81.6167C103.526 78.5073 103.045 75.1283 103.404 71.7862C103.967 66.4006 106.646 61.4592 110.853 58.049C115.059 54.6388 120.447 53.0392 125.833 53.6021C131.219 54.165 136.16 56.8442 139.57 61.0504C142.98 65.2566 144.58 70.6452 144.017 76.0308L144.023 76.0182Z" fill="white"/>
<path d="M144.023 76.0182C143.627 79.782 142.202 83.364 139.905 86.3714C138.778 87.8848 137.427 89.2183 135.9 90.3262C132.102 93.2182 127.404 94.6727 122.637 94.4322C121.69 94.406 120.747 94.307 119.816 94.1362C116.059 93.4411 112.57 91.7141 109.74 89.1486L109.979 89.2241L99.7769 90.7922L99.0338 90.9056L99.4117 90.2758L104.494 81.4593V81.8119C103.294 78.8848 102.784 75.721 103.003 72.5652C103.221 69.4094 104.162 66.3461 105.753 63.612C107.343 60.89 109.529 58.5627 112.145 56.8044C114.76 55.0741 117.732 53.9577 120.839 53.5389C123.946 53.1201 127.108 53.4098 130.087 54.3862C133.04 55.3885 135.732 57.0388 137.965 59.2164C140.175 61.3798 141.868 64.0146 142.917 66.924C143.966 69.8333 144.344 72.9422 144.023 76.0182ZM144.023 76.0182C144.349 72.944 143.965 69.8359 142.901 66.9336C141.836 64.0312 140.119 61.412 137.883 59.2777C135.646 57.1434 132.95 55.551 130.001 54.6233C127.052 53.6955 123.929 53.4571 120.874 53.9264C117.845 54.3774 114.96 55.5171 112.441 57.2578C109.946 59.0095 107.862 61.283 106.333 63.9206C104.826 66.5676 103.939 69.5217 103.738 72.5609C103.549 75.5948 104.04 78.6326 105.174 81.453L105.249 81.6356L105.155 81.7993L100.01 90.6159L99.6447 90.0743L109.872 88.6448H110.01L110.111 88.7392C112.838 91.294 116.222 93.0386 119.885 93.7773C120.798 93.9629 121.725 94.0766 122.656 94.1173C123.587 94.1803 124.521 94.1803 125.452 94.1173C127.317 93.9728 129.153 93.568 130.906 92.9145C132.669 92.2774 134.328 91.3841 135.83 90.2632C136.584 89.7064 137.303 89.105 137.984 88.4621C138.65 87.801 139.27 87.0962 139.842 86.3525C142.163 83.3597 143.61 79.7829 144.023 76.0182Z" fill="#263238"/>
<path d="M121.699 69.5947C122.799 70.7503 123.412 72.2847 123.412 73.8802C123.412 75.4756 122.799 77.01 121.699 78.1656C121.185 78.7309 120.561 79.1838 119.864 79.4959C119.167 79.8081 118.413 79.9726 117.649 79.9793C116.871 79.9758 116.102 79.8131 115.39 79.5012C114.677 79.1893 114.036 78.7347 113.506 78.1656C112.424 77.0008 111.823 75.4699 111.823 73.8802C111.823 72.2904 112.424 70.7595 113.506 69.5947C114.035 69.0241 114.676 68.5686 115.389 68.2566C116.102 67.9445 116.871 67.7826 117.649 67.781C118.413 67.7846 119.168 67.9478 119.866 68.2601C120.563 68.5725 121.187 69.027 121.699 69.5947ZM121.478 73.8833C121.481 72.7848 121.07 71.7256 120.326 70.9172C119.984 70.538 119.566 70.2349 119.1 70.0274C118.633 69.8199 118.128 69.7127 117.618 69.7127C117.107 69.7127 116.602 69.8199 116.136 70.0274C115.669 70.2349 115.252 70.538 114.91 70.9172C114.161 71.7225 113.749 72.7837 113.757 73.8833C113.747 74.9777 114.16 76.0338 114.91 76.8306C115.25 77.2133 115.667 77.5196 116.133 77.7294C116.6 77.9392 117.106 78.0476 117.618 78.0476C118.13 78.0476 118.636 77.9392 119.102 77.7294C119.569 77.5196 119.986 77.2133 120.326 76.8306C121.071 76.0306 121.483 74.9766 121.478 73.8833Z" fill="#3F2071"/>
<path d="M126.246 79.0473V69.1413C126.246 68.8908 126.345 68.6505 126.522 68.4733C126.699 68.2962 126.94 68.1967 127.19 68.1967C127.441 68.1967 127.681 68.2962 127.858 68.4733C128.035 68.6505 128.135 68.8908 128.135 69.1413V73.9967L133.62 68.4926C133.706 68.4047 133.809 68.3348 133.923 68.2871C134.036 68.2394 134.158 68.2148 134.281 68.2148C134.404 68.2148 134.526 68.2394 134.64 68.2871C134.753 68.3348 134.856 68.4047 134.942 68.4926C135.113 68.6707 135.208 68.9076 135.208 69.1539C135.208 69.4002 135.113 69.637 134.942 69.8151L131.183 73.5244L134.961 78.4554C135.041 78.5485 135.101 78.6568 135.137 78.7737C135.173 78.8905 135.186 79.0136 135.174 79.1354C135.161 79.2572 135.124 79.3753 135.065 79.4824C135.006 79.5896 134.926 79.6836 134.829 79.7589C134.667 79.9046 134.455 79.9834 134.237 79.9794C134.103 79.9767 133.971 79.945 133.85 79.8863C133.729 79.8275 133.623 79.7433 133.538 79.6393L129.885 74.8469L128.122 76.6417V79.0473C128.122 79.2979 128.023 79.5381 127.845 79.7153C127.668 79.8924 127.428 79.992 127.178 79.992C126.927 79.992 126.687 79.8924 126.51 79.7153C126.332 79.5381 126.233 79.2979 126.233 79.0473H126.246Z" fill="#3F2071"/>
</svg>
