<svg width="40" height="40" viewBox="0 0 40 40" fill="none" xmlns="http://www.w3.org/2000/svg">
<g clip-path="url(#clip0_1265_6380)">
<path d="M23.22 6.66667C24.5758 6.66799 25.8756 7.20714 26.8343 8.16579C27.7929 9.12444 28.3321 10.4243 28.3334 11.78C28.3334 12.222 28.509 12.646 28.8215 12.9585C29.1341 13.2711 29.558 13.4467 30 13.4467C30.4421 13.4467 30.866 13.2711 31.1786 12.9585C31.4911 12.646 31.6667 12.222 31.6667 11.78V11.6667C31.6667 11.635 31.6667 11.6067 31.6667 11.575C31.6111 9.37122 30.6969 7.2763 29.1191 5.73676C27.5413 4.19722 25.4245 3.3348 23.22 3.33333H21.6667V1.66667C21.6667 1.22464 21.4911 0.800716 21.1786 0.488155C20.866 0.175595 20.4421 0 20 0C19.558 0 19.1341 0.175595 18.8215 0.488155C18.509 0.800716 18.3334 1.22464 18.3334 1.66667V3.33333H16.78C14.7756 3.33547 12.8372 4.05039 11.3114 5.3503C9.78554 6.6502 8.77172 8.45037 8.45113 10.429C8.13053 12.4077 8.52406 14.4359 9.56136 16.1511C10.5987 17.8663 12.2121 19.1567 14.1134 19.7917L18.3334 21.2V33.3333H16.78C15.4243 33.332 14.1245 32.7929 13.1658 31.8342C12.2072 30.8756 11.668 29.5757 11.6667 28.22C11.6667 27.778 11.4911 27.354 11.1786 27.0415C10.866 26.7289 10.4421 26.5533 10 26.5533C9.55801 26.5533 9.13409 26.7289 8.82153 27.0415C8.50897 27.354 8.33337 27.778 8.33337 28.22V28.3333C8.33337 28.365 8.33337 28.3933 8.33337 28.425C8.389 30.6288 9.30314 32.7237 10.881 34.2632C12.4588 35.8028 14.5756 36.6652 16.78 36.6667H18.3334V38.3333C18.3334 38.7754 18.509 39.1993 18.8215 39.5118C19.1341 39.8244 19.558 40 20 40C20.4421 40 20.866 39.8244 21.1786 39.5118C21.4911 39.1993 21.6667 38.7754 21.6667 38.3333V36.6667H23.22C25.2245 36.6645 27.1629 35.9496 28.6887 34.6497C30.2145 33.3498 31.2284 31.5496 31.549 29.571C31.8695 27.5923 31.476 25.5641 30.4387 23.8489C29.4014 22.1337 27.788 20.8433 25.8867 20.2083L21.6667 18.8V6.66667H23.22ZM24.8367 23.3683C25.9891 23.7519 26.9673 24.5331 27.5963 25.5721C28.2252 26.6111 28.4638 27.84 28.2693 29.0389C28.0748 30.2377 27.4599 31.3282 26.5348 32.115C25.6096 32.9019 24.4346 33.3338 23.22 33.3333H21.6667V22.3117L24.8367 23.3683ZM18.3334 17.6883L15.1667 16.6317C14.0146 16.2482 13.0366 15.4673 12.4076 14.4286C11.7786 13.39 11.5398 12.1614 11.7339 10.9628C11.9279 9.76416 12.5422 8.6737 13.4668 7.88657C14.3913 7.09944 15.5658 6.66701 16.78 6.66667H18.3334V17.6883Z" fill="#A851FF"/>
</g>
<defs>
<clipPath id="clip0_1265_6380">
<rect width="40" height="40" fill="white"/>
</clipPath>
</defs>
</svg>
