<svg width="40" height="40" viewBox="0 0 40 40" fill="none" xmlns="http://www.w3.org/2000/svg">
<g clip-path="url(#clip0_1265_6381)">
<path d="M38.6583 23.4751L35.0599 27.0701V29.9401C35.0599 32.6967 32.8166 34.9401 30.0599 34.9401H27.1916L23.5949 38.5351C22.6533 39.4784 21.3966 40.0001 20.0599 40.0001C18.7233 40.0001 17.4683 39.4801 16.5249 38.5351L12.9299 34.9401H10.0599C7.30327 34.9401 5.05994 32.6967 5.05994 29.9401V27.0701L1.46494 23.4751C-0.485059 21.5267 -0.485059 18.3534 1.46494 16.4034L5.05994 12.8084V9.94006C5.05994 7.18339 7.30327 4.94006 10.0599 4.94006H12.9299L16.5249 1.34339C18.4149 -0.548277 21.7099 -0.543277 23.5966 1.34339L27.1916 4.93839H30.0599C30.9816 4.93839 31.7266 5.68506 31.7266 6.60506C31.7266 7.52506 30.9816 8.27172 30.0599 8.27172H26.5016C26.0583 8.27172 25.6349 8.09672 25.3233 7.78339L21.2383 3.69839C20.6099 3.07172 19.5149 3.06839 18.8816 3.69839L14.7983 7.78339C14.4849 8.09672 14.0633 8.27172 13.6199 8.27172H10.0599C9.13994 8.27172 8.39327 9.02006 8.39327 9.93839V13.4967C8.39327 13.9384 8.21827 14.3634 7.90494 14.6751L3.82161 18.7584C3.17161 19.4084 3.17161 20.4651 3.82161 21.1167L7.90494 25.2001C8.21827 25.5134 8.39327 25.9351 8.39327 26.3784V29.9384C8.39327 30.8584 9.13994 31.6051 10.0599 31.6051H13.6199C14.0633 31.6051 14.4866 31.7801 14.7983 32.0934L18.8816 36.1767C19.5133 36.8067 20.6099 36.8067 21.2366 36.1767L25.3233 32.0934C25.6366 31.7801 26.0583 31.6051 26.5016 31.6051H30.0599C30.9799 31.6051 31.7266 30.8584 31.7266 29.9384V26.3784C31.7266 25.9351 31.9016 25.5117 32.2149 25.2001L36.2999 21.1167C36.9499 20.4667 36.9499 19.4084 36.2999 18.7584C35.6499 18.1067 35.6499 17.0517 36.2999 16.4017C36.9516 15.7517 38.0066 15.7501 38.6583 16.4017C40.6049 18.3501 40.6049 21.5217 38.6583 23.4717V23.4751ZM17.8683 22.7701L12.8383 17.7901C12.1816 17.1401 11.1299 17.1484 10.4799 17.8017C9.83161 18.4551 9.83827 19.5101 10.4916 20.1584L15.5233 25.1401C16.5466 26.1534 17.8933 26.6617 19.2383 26.6617C20.5833 26.6617 21.9333 26.1501 22.9583 25.1317L37.8416 10.3467C38.4949 9.69839 38.4983 8.64339 37.8483 7.99006C37.1983 7.33672 36.1449 7.33172 35.4916 7.98172L20.6083 22.7684C19.8533 23.5201 18.6249 23.5201 17.8683 22.7701Z" fill="#A851FF"/>
</g>
<defs>
<clipPath id="clip0_1265_6381">
<rect width="40" height="40" fill="white"/>
</clipPath>
</defs>
</svg>
