<svg width="250" height="270" viewBox="0 0 250 270" fill="none" xmlns="http://www.w3.org/2000/svg">
<path d="M230.078 139.14C226.956 141.019 223.32 141.861 219.69 141.546C216.06 141.231 212.624 139.775 209.872 137.387C207.121 134.998 205.197 131.8 204.375 128.25C203.553 124.701 203.877 120.982 205.298 117.628C206.72 114.273 209.168 111.455 212.29 109.577C215.412 107.699 219.048 106.857 222.678 107.173C226.308 107.489 229.744 108.946 232.495 111.336C235.245 113.725 237.169 116.924 237.99 120.473C238.816 124.022 238.495 127.741 237.073 131.095C235.651 134.449 233.202 137.266 230.078 139.14Z" fill="#EBEBEB"/>
<path d="M226.455 122.454C226.442 123.492 226.122 124.502 225.535 125.357C224.948 126.212 224.121 126.875 223.158 127.26C222.194 127.645 221.138 127.736 220.123 127.522C219.108 127.307 218.18 126.796 217.455 126.054C216.73 125.312 216.242 124.371 216.051 123.352C215.861 122.332 215.977 121.278 216.385 120.325C216.793 119.371 217.475 118.559 218.344 117.993C219.213 117.426 220.231 117.13 221.268 117.142C221.958 117.15 222.639 117.293 223.273 117.565C223.907 117.836 224.481 118.229 224.963 118.723C225.445 119.216 225.824 119.8 226.081 120.44C226.337 121.08 226.464 121.765 226.455 122.454Z" fill="white"/>
<path d="M230.102 136.975V139.14C227.356 140.791 224.204 141.643 221.001 141.604C217.797 141.564 214.668 140.632 211.964 138.914L211.994 136.755C212.008 135.564 212.257 134.388 212.726 133.294C213.195 132.2 213.875 131.208 214.727 130.377C215.579 129.545 216.587 128.889 217.692 128.447C218.797 128.005 219.979 127.785 221.17 127.799C222.36 127.814 223.536 128.062 224.631 128.531C225.725 129 226.716 129.68 227.548 130.532C228.38 131.384 229.035 132.392 229.478 133.497C229.92 134.603 230.14 135.784 230.126 136.975H230.102Z" fill="white"/>
<path d="M36.1204 87.797C34.3196 88.8809 32.2522 89.4412 30.1505 89.4149C28.0489 89.3887 25.9961 88.7769 24.223 87.6483C22.149 86.3283 20.562 84.3681 19.7025 82.0649C18.8431 79.7617 18.7579 77.241 19.4601 74.885C20.1623 72.5291 21.6134 70.4663 23.5936 69.0094C25.5737 67.5525 27.9749 66.7809 30.4331 66.8116C32.8913 66.8423 35.2724 67.6737 37.2155 69.1796C39.1586 70.6856 40.5578 72.784 41.2008 75.1568C41.8439 77.5296 41.6958 80.0473 40.779 82.3283C39.8622 84.6094 38.2267 86.5293 36.1204 87.797Z" fill="#EBEBEB"/>
<path d="M33.7466 76.8633C33.7395 77.5435 33.5308 78.2064 33.1468 78.7679C32.7629 79.3295 32.221 79.7646 31.5897 80.0181C30.9584 80.2715 30.2661 80.3321 29.6004 80.192C28.9347 80.0519 28.3256 79.7175 27.85 79.2311C27.3744 78.7447 27.0538 78.1281 26.9287 77.4595C26.8037 76.7908 26.8798 76.1 27.1474 75.4746C27.415 74.8492 27.8622 74.3172 28.4323 73.946C29.0023 73.5748 29.6697 73.381 30.3499 73.3892C30.8012 73.3939 31.2471 73.4875 31.6622 73.6647C32.0772 73.8419 32.4532 74.0992 32.7687 74.4218C33.0842 74.7445 33.333 75.1263 33.5008 75.5452C33.6686 75.9641 33.7521 76.412 33.7466 76.8633Z" fill="white"/>
<path d="M36.1383 86.3753V87.797C34.3375 88.8809 32.2701 89.4412 30.1684 89.4149C28.0667 89.3887 26.014 88.7769 24.2408 87.6483V86.2385C24.259 84.6608 24.9031 83.1549 26.0316 82.0521C27.16 80.9493 28.6803 80.34 30.258 80.3582C31.8357 80.3763 33.3415 81.0204 34.4443 82.1489C35.5471 83.2773 36.1564 84.7976 36.1383 86.3753Z" fill="white"/>
<path d="M86.6013 89.421H11.2668V37.8814H86.6013V89.421ZM11.8617 88.8261H86.0064V38.4763H11.8617V88.8261Z" fill="#EBEBEB"/>
<path d="M17.156 41.2008C17.156 41.4973 17.0681 41.7871 16.9033 42.0336C16.7386 42.2801 16.5045 42.4723 16.2306 42.5857C15.9567 42.6992 15.6552 42.7289 15.3645 42.6711C15.0737 42.6132 14.8066 42.4704 14.5969 42.2608C14.3873 42.0511 14.2445 41.784 14.1866 41.4932C14.1288 41.2024 14.1585 40.901 14.2719 40.6271C14.3854 40.3532 14.5775 40.1191 14.8241 39.9543C15.0706 39.7896 15.3604 39.7017 15.6569 39.7017C16.0545 39.7017 16.4358 39.8596 16.7169 40.1408C16.998 40.4219 17.156 40.8032 17.156 41.2008Z" fill="#A6A6A6"/>
<path d="M23.2774 41.2008C23.2774 41.4973 23.1895 41.7871 23.0248 42.0336C22.8601 42.2801 22.626 42.4723 22.352 42.5857C22.0781 42.6992 21.7767 42.7289 21.4859 42.6711C21.1951 42.6132 20.928 42.4704 20.7184 42.2608C20.5087 42.0511 20.3659 41.784 20.3081 41.4932C20.2503 41.2024 20.2799 40.901 20.3934 40.6271C20.5069 40.3532 20.699 40.1191 20.9455 39.9543C21.1921 39.7896 21.4819 39.7017 21.7784 39.7017C22.176 39.7017 22.5572 39.8596 22.8384 40.1408C23.1195 40.4219 23.2774 40.8032 23.2774 41.2008Z" fill="#EBEBEB"/>
<path d="M29.3985 41.2008C29.3985 41.4973 29.3106 41.7871 29.1459 42.0336C28.9812 42.2801 28.7471 42.4723 28.4731 42.5857C28.1992 42.6992 27.8978 42.7289 27.607 42.6711C27.3162 42.6132 27.0491 42.4704 26.8395 42.2608C26.6298 42.0511 26.487 41.784 26.4292 41.4932C26.3714 41.2024 26.401 40.901 26.5145 40.6271C26.628 40.3532 26.8201 40.1191 27.0666 39.9543C27.3131 39.7896 27.603 39.7017 27.8995 39.7017C28.297 39.7017 28.6783 39.8596 28.9595 40.1408C29.2406 40.4219 29.3985 40.8032 29.3985 41.2008Z" fill="#A851FF"/>
<path d="M86.3035 43.842H11.564V44.4369H86.3035V43.842Z" fill="#EBEBEB"/>
<path d="M57.5636 102.945L18.3148 108.3L21.7112 133.191L60.9599 127.835L57.5636 102.945Z" fill="#EBEBEB"/>
<path d="M57.5596 102.954C56.1795 104.685 54.7638 106.357 53.3955 108.064C52.0273 109.772 50.564 111.425 49.1422 113.091C47.7205 114.757 46.1679 116.553 44.6688 118.266L44.532 118.433C43.2114 119.944 41.8828 121.457 40.5463 122.972L40.35 123.186L40.1061 123.031C38.4167 121.931 36.7392 120.83 35.0557 119.718L34.8772 119.605C32.9736 118.35 31.07 117.088 29.1724 115.804C27.2748 114.519 25.5437 113.353 23.7353 112.109C21.9269 110.866 20.1244 109.605 18.3339 108.302C20.1958 109.373 22.0399 110.509 23.884 111.616C25.7281 112.722 27.5782 113.876 29.4223 115.03C31.4686 116.303 33.515 117.598 35.5613 118.915C37.0961 119.89 38.6289 120.882 40.1597 121.889C41.3494 120.527 42.5808 119.165 43.8003 117.82C45.4243 116.036 47.0423 114.215 48.6782 112.431C50.1416 110.844 51.6129 109.258 53.0922 107.672C54.5793 106.071 56.0487 104.483 57.5596 102.954Z" fill="white"/>
<path d="M35.6743 119.474L35.6326 119.521C35.4542 119.724 35.2698 119.932 35.0854 120.116C34.2168 121.08 33.3007 122.014 32.3965 122.93C31.2782 124.054 30.1241 125.143 28.9582 126.226C27.7922 127.308 26.6144 128.349 25.389 129.378C24.1635 130.408 22.95 131.425 21.671 132.353C22.718 131.163 23.8245 130.009 24.9428 128.891C26.0612 127.772 27.2212 126.672 28.3812 125.595C29.5412 124.518 30.7606 123.46 31.9504 122.43C32.9141 121.609 33.8956 120.794 34.9247 120.021C35.1567 119.837 35.3947 119.664 35.6326 119.486L35.6743 119.474Z" fill="white"/>
<path d="M60.754 127.058C59.2669 126.464 57.7797 125.839 56.3758 125.173C54.9719 124.506 53.5145 123.793 52.0987 123.079C50.6829 122.365 49.2849 121.609 47.9346 120.824C46.8103 120.194 45.6919 119.539 44.6033 118.843L43.9014 118.397L43.8538 118.361H43.9133L44.7401 118.689C45.9299 119.165 47.078 119.688 48.232 120.223C49.6775 120.89 51.0933 121.598 52.5032 122.317C53.913 123.037 55.3169 123.787 56.697 124.572C58.0771 125.357 59.4156 126.178 60.754 127.058Z" fill="white"/>
<path d="M229.103 37.0248H180.526V67.8331H229.103V37.0248Z" fill="#EBEBEB"/>
<path d="M229.102 37.0248C227.139 38.8986 225.141 40.6951 223.154 42.5452C221.167 44.3952 219.162 46.156 217.157 47.9466C215.153 49.7372 212.964 51.6586 210.858 53.4908L210.673 53.6693C208.813 55.2913 206.947 56.9113 205.076 58.5294L204.796 58.7554L204.528 58.5294C202.66 56.9113 200.798 55.2893 198.942 53.6633L198.746 53.4908C196.632 51.6586 194.531 49.8066 192.441 47.9347C190.442 46.1501 188.443 44.3655 186.45 42.5452C184.457 40.7249 182.476 38.8986 180.501 37.0248C182.589 38.6309 184.666 40.3204 186.7 41.9682C188.734 43.616 190.817 45.3232 192.857 47.0305C195.137 48.9143 197.412 50.8278 199.68 52.771C201.381 54.2106 203.083 55.6581 204.784 57.1136C206.474 55.6621 208.175 54.2047 209.876 52.771C212.145 50.8436 214.419 48.9301 216.699 47.0305C218.738 45.3331 220.788 43.6497 222.85 41.9801C224.968 40.3204 227.014 38.6309 229.102 37.0248Z" fill="white"/>
<path d="M199.775 53.473C199.757 53.4903 199.737 53.5062 199.716 53.5206C199.46 53.7407 199.21 53.9608 198.954 54.169C197.735 55.1981 196.486 56.1856 195.219 57.1433C193.672 58.3331 192.09 59.4574 190.495 60.5817C188.901 61.706 187.295 62.7768 185.653 63.8297C184.011 64.8826 182.358 65.9058 180.644 66.8457C182.114 65.5548 183.619 64.3532 185.195 63.1813C186.771 62.0094 188.33 60.8672 189.912 59.7429C191.495 58.6186 193.125 57.5419 194.767 56.489C196.069 55.6502 197.396 54.8233 198.758 54.05C199.067 53.8715 199.383 53.6931 199.704 53.5206L199.775 53.473Z" fill="white"/>
<path d="M228.99 66.8397C227.27 65.8998 225.611 64.8707 223.975 63.8237C222.339 62.7767 220.727 61.6762 219.121 60.5757C217.515 59.4752 215.95 58.3212 214.403 57.1374C213.142 56.1856 211.893 55.204 210.685 54.163C210.418 53.9429 210.168 53.7228 209.912 53.5027C209.891 53.4883 209.871 53.4724 209.853 53.4551L209.924 53.4908L210.87 54.0262C212.232 54.7995 213.553 55.6264 214.861 56.4652C216.503 57.5181 218.109 58.6127 219.71 59.7191C221.31 60.8256 222.88 61.9737 224.427 63.1575C225.974 64.3413 227.514 65.5488 228.99 66.8397Z" fill="white"/>
<path d="M116.725 270C163.769 270 201.905 267.046 201.905 263.403C201.905 259.759 163.769 256.806 116.725 256.806C69.6821 256.806 31.5459 259.759 31.5459 263.403C31.5459 267.046 69.6821 270 116.725 270Z" fill="#EBEBEB"/>
<path d="M145.559 0H144.964V81.8304H145.559V0Z" fill="#C7C7C7"/>
<path d="M120.979 105.239L122.936 109.534H167.599L169.544 105.239L150.532 92.0741H139.997L120.979 105.239Z" fill="#FFC727"/>
<path d="M138.676 79.3974L139.997 92.0741H150.532L151.852 79.3974H138.676Z" fill="#FFC727"/>
<path opacity="0.1" d="M120.984 105.239L122.936 109.534H167.604L169.55 105.239H120.984Z" fill="black"/>
<path opacity="0.1" d="M139.997 92.0741L139.854 90.7119L150.752 89.9266L150.532 92.0741H139.997Z" fill="black"/>
<path d="M105.03 0H104.435V56.0785H105.03V0Z" fill="#C7C7C7"/>
<path d="M80.4503 79.4867L82.4074 83.7816H127.07L129.016 79.4867L110.003 66.3281H99.4683L80.4503 79.4867Z" fill="#FFC727"/>
<path d="M98.1473 53.6454L99.468 66.3281H110.003L111.324 53.6454H98.1473Z" fill="#FFC727"/>
<path opacity="0.1" d="M80.4562 79.4926L82.4074 83.7816H127.07L129.021 79.4926H80.4562Z" fill="black"/>
<path opacity="0.1" d="M99.4679 66.3281L99.3132 64.8588L110.229 64.1509L110.003 66.3281H99.4679Z" fill="black"/>
<path d="M206.676 186.611C206.854 183.607 207.28 180.622 207.949 177.688C208.58 175.041 209.472 172.334 211.143 170.139C211.878 169.108 212.81 168.232 213.885 167.562C214.961 166.892 216.158 166.442 217.407 166.237C219.864 165.939 222.166 167.034 224.005 168.575C226.277 170.49 228.02 173.03 229.656 175.487C231.447 178.237 233.076 181.089 234.534 184.029C234.587 184.124 234.439 184.208 234.391 184.113C233.124 181.623 231.664 179.236 230.025 176.974C228.53 174.803 226.848 172.767 224.998 170.889C223.314 169.247 221.173 167.706 218.728 167.629C216.283 167.551 214.058 168.914 212.601 170.787C210.965 172.881 210.132 175.493 209.508 178.039C208.876 180.83 208.466 183.666 208.282 186.522C207.8 192.417 207.687 198.348 207.538 204.255C207.461 207.598 207.42 210.947 207.384 214.29L207.348 219.376C207.408 221.013 207.342 222.652 207.152 224.278C207.092 224.605 206.557 224.576 206.497 224.278C206.299 222.738 206.226 221.184 206.277 219.632C206.254 218.026 206.234 216.42 206.218 214.814C206.186 211.693 206.174 208.57 206.182 205.445C206.17 199.157 206.248 192.869 206.676 186.611Z" fill="#263238"/>
<path d="M215.099 182.167C215.408 180.502 215.974 178.33 216.919 177.04C218.627 174.72 220.489 175.725 218.77 178.295C217.514 180.203 216.702 182.367 216.39 184.63C216.39 184.63 219.257 188.729 222.719 190.745C222.571 189.169 222.125 186.748 222.434 184.41C223.1 179.348 226.164 179.651 225.408 183.655C224.813 186.879 224.552 190.305 224.718 191.786C225.875 192.536 227.117 193.146 228.418 193.601C228.216 193.006 228.008 192.31 227.776 191.453C226.544 186.914 229.56 185.505 229.668 188.057C229.868 190.234 230.267 192.388 230.857 194.493C232.517 195.052 233.897 195.433 234.736 195.724C236.917 196.533 238.866 197.865 240.411 199.603C241.987 198.179 243.297 196.485 244.278 194.6C243.219 193.69 241.547 192.34 239.227 190.698C234.879 187.628 236.39 183.75 239.822 186.159C242.309 187.902 244.236 191.126 245.116 192.78C246.29 189.896 246.956 186.831 247.085 183.72C243.671 180.514 235.218 176.04 237.764 176.04C240.06 176.04 245.188 179.401 247.068 180.698C247.023 179.817 246.927 178.939 246.782 178.069C243.564 175.957 233.1 172.679 234.772 171.733C236.598 170.698 243.897 174.077 246.104 175.142C245.689 173.708 245.035 172.355 244.17 171.138C239.721 165.19 231.678 163.137 228.204 164.268C225.729 165.071 226.42 171.353 225.92 171.138C215.962 167.159 211.441 169.967 215.099 182.167ZM239.489 181.477C240.197 180.627 243.457 183.137 242.517 184.505C241.577 185.873 238.567 182.572 239.477 181.477H239.489ZM222.434 176.123C223.291 176.671 222.023 179.841 220.697 178.884C219.584 178.063 221.559 175.57 222.422 176.123H222.434Z" fill="#496445"/>
<path d="M223.749 177.093C224.195 176.207 224.665 175.308 225.177 174.47C225.647 173.626 226.197 172.83 226.818 172.09C226.682 171.918 226.545 171.739 226.396 171.567C226.337 171.495 226.438 171.4 226.497 171.466C226.664 171.656 226.824 171.852 226.985 172.06C227.002 172.069 227.017 172.081 227.029 172.095C227.041 172.109 227.051 172.126 227.056 172.144C227.671 172.881 228.252 173.637 228.799 174.41C229.778 174.635 230.743 174.915 231.69 175.249C232.666 175.576 233.636 175.915 234.581 176.314C234.683 176.355 234.629 176.522 234.534 176.474C233.594 176.064 232.642 175.659 231.667 175.332C230.691 175.005 229.811 174.779 228.877 174.517C229.18 174.946 229.472 175.374 229.763 175.814C231.519 176.37 233.228 177.066 234.873 177.896C236.598 178.717 238.258 179.681 239.912 180.627C240.007 180.68 239.911 180.829 239.822 180.769C238.196 179.819 236.523 178.953 234.808 178.176C233.207 177.426 231.554 176.814 229.941 176.1C234.004 182.435 236.437 189.752 239.697 196.522C239.745 196.623 239.59 196.7 239.549 196.605C238.555 194.225 237.407 191.917 236.324 189.579C235.355 187.48 234.403 185.374 233.433 183.274C233.148 182.679 232.838 182.048 232.553 181.442C232.731 184.826 232.66 188.271 233.219 191.614C233.219 191.625 233.217 191.636 233.213 191.646C233.209 191.656 233.203 191.665 233.195 191.673C233.187 191.681 233.178 191.687 233.168 191.691C233.158 191.695 233.147 191.697 233.136 191.697C233.125 191.697 233.114 191.695 233.104 191.691C233.094 191.687 233.085 191.681 233.077 191.673C233.069 191.665 233.063 191.656 233.059 191.646C233.055 191.636 233.053 191.625 233.053 191.614C232.815 187.997 232.178 184.434 232.202 180.799C232.202 180.799 232.202 180.769 232.202 180.752C231.512 179.366 230.774 178.003 229.983 176.677C228.639 179.841 227.223 183.06 226.598 186.462C226.598 186.563 226.408 186.522 226.432 186.415C227.348 183.006 228.216 179.592 229.84 176.439C228.978 175.003 228.023 173.626 226.979 172.316C226.527 173.155 225.95 173.952 225.438 174.755C224.927 175.558 224.445 176.332 223.981 177.135C222.98 178.842 222.13 180.634 221.441 182.489C221.399 182.59 221.239 182.536 221.28 182.441C222.053 180.662 222.839 178.848 223.749 177.093Z" fill="#263238"/>
<path d="M191.709 184.803C194.315 182.185 197.343 178.759 201.37 178.765C205.26 178.765 208.122 181.9 209.763 185.13C211.483 188.509 212.101 192.334 212.589 196.052C213.164 200.507 213.513 204.988 213.636 209.478C213.707 211.97 213.696 214.469 213.636 216.961C213.628 219.489 213.429 222.013 213.041 224.51C212.97 224.909 212.321 224.927 212.298 224.51C212.179 222.41 212.262 220.299 212.298 218.199C212.333 216.099 212.298 214.035 212.202 211.994C212.048 207.83 211.744 203.666 211.251 199.502C210.822 195.867 210.483 192.137 209.395 188.628C208.419 185.463 206.581 181.846 203.375 180.454C198.996 178.562 194.719 182.025 191.858 184.951C191.763 185.005 191.626 184.88 191.709 184.803Z" fill="#263238"/>
<path d="M178.413 190.644C178.413 191.18 178.461 191.703 178.497 192.221C179.75 191.281 181.218 190.667 182.768 190.436C186.468 190.043 186.23 192.851 183.761 192.97C182.022 192.992 180.301 193.337 178.687 193.987C179.282 198.871 180.632 202.797 180.835 202.851C184.116 202.681 187.382 202.283 190.608 201.661C189.686 199.698 187.592 197.093 188.663 196.902C189.734 196.712 190.894 199.008 191.489 201.501C193.916 201.037 196.303 200.383 198.627 199.543C196.997 198.134 194.463 196.379 195.445 195.635C196.426 194.892 198.419 197.354 199.609 199.151C200.699 198.706 201.732 198.131 202.684 197.438C200.489 194.213 195.147 193.559 195.843 191.233C196.539 188.907 201.542 192.131 203.785 196.444C206.42 193.708 207.193 189.841 206.914 186.534C204.618 186.266 200.204 186.754 200.525 185.106C200.846 183.458 204.035 183.767 206.646 184.731C206.407 183.422 205.883 182.181 205.111 181.097C202.696 177.991 195.308 181.941 195.308 181.941C195.308 181.941 196.099 174.517 193.285 173.238C191.661 172.501 188.794 172.507 185.921 174.196C187.533 174.333 189.49 174.844 190.263 175.981C191.269 177.402 189.668 178.182 188.681 177.521C187.973 177.057 186.652 175.588 184.267 175.392C183.248 176.258 182.352 177.259 181.602 178.366C181.328 178.753 181.078 179.157 180.823 179.597C182.186 178.982 183.669 178.676 185.165 178.703C186.66 178.73 188.132 179.088 189.472 179.752C192.673 181.34 190.882 184.666 188.128 183.375C185.373 182.084 182.774 180.811 179.829 181.543C178.795 184.157 178.303 186.954 178.384 189.764C179.817 188.719 181.43 187.947 183.143 187.485C186.325 186.653 187.307 188.55 183.791 188.907C181.899 189.112 180.068 189.703 178.413 190.644ZM182.286 185.534C182.066 184.499 184.321 184.208 184.695 185.041C185.011 185.754 182.5 186.563 182.286 185.534ZM201.596 191.245C201.81 190.68 203.321 191.322 203.184 192.024C202.994 192.958 201.387 191.804 201.596 191.245ZM190.936 194.862C192.036 194.422 193.755 197.158 192.554 197.783C191.352 198.407 190.031 195.225 190.936 194.862Z" fill="#496445"/>
<path d="M181.263 202.31C182.923 199.538 184.565 196.754 186.308 194.029C187.117 192.762 187.968 191.519 188.848 190.299L188.455 190.204L187.795 190.079C187.283 189.99 186.772 189.918 186.254 189.865C185.737 189.811 185.285 189.788 184.797 189.782C184.278 189.753 183.757 189.781 183.244 189.865C183.233 189.865 183.223 189.861 183.215 189.853C183.207 189.845 183.203 189.834 183.203 189.823C183.203 189.812 183.207 189.802 183.215 189.794C183.223 189.786 183.233 189.782 183.244 189.782C183.762 189.782 184.291 189.734 184.809 189.728C185.326 189.722 185.82 189.728 186.32 189.764C186.792 189.789 187.263 189.839 187.73 189.913C187.991 189.948 188.247 189.996 188.503 190.043C188.661 190.069 188.818 190.102 188.973 190.145C189.871 188.907 190.805 187.7 191.769 186.51C188.9 185.117 185.848 184.141 182.703 183.613C182.649 183.613 182.673 183.524 182.703 183.53C185.9 183.973 189.007 184.917 191.912 186.325L193.512 184.38C194.107 183.66 194.755 182.953 195.296 182.191C195.332 182.138 195.403 182.191 195.368 182.239C194.619 183.058 193.916 183.918 193.262 184.814C194.449 185.638 195.578 186.542 196.641 187.521C197.743 188.501 198.818 189.512 199.865 190.555C199.907 190.591 199.865 190.65 199.805 190.614C198.77 189.585 197.7 188.604 196.581 187.67C195.463 186.736 194.279 185.885 193.155 184.963C192.899 185.308 192.643 185.647 192.381 185.98C192.251 186.147 192.126 186.319 191.995 186.492L191.965 186.528C191.531 187.087 191.103 187.652 190.674 188.217C191.177 188.945 191.608 189.72 191.959 190.531C192.328 191.31 192.655 192.119 192.953 192.911C193.547 194.605 194.008 196.344 194.333 198.11C194.333 198.157 194.267 198.181 194.255 198.11C193.901 196.37 193.396 194.664 192.744 193.012C192.423 192.167 192.054 191.34 191.68 190.513C191.305 189.686 190.912 189.044 190.591 188.283C190.222 188.776 189.847 189.276 189.484 189.776C189.377 189.918 189.276 190.067 189.175 190.216C189.175 190.246 189.175 190.287 189.139 190.293C187.997 191.882 186.915 193.511 185.862 195.159C185.924 195.272 185.972 195.392 186.004 195.516C186.07 195.718 186.135 195.921 186.195 196.111C186.313 196.518 186.41 196.931 186.486 197.348C186.552 197.735 186.611 198.134 186.647 198.538C186.657 198.988 186.69 199.437 186.748 199.883C186.748 199.948 186.653 199.954 186.665 199.883C186.694 199.464 186.664 199.043 186.576 198.633C186.516 198.205 186.433 197.777 186.338 197.354C186.242 196.932 186.141 196.593 186.028 196.218C185.975 196.034 185.915 195.843 185.85 195.659C185.784 195.475 185.767 195.457 185.731 195.356C185.237 196.129 184.749 196.902 184.267 197.687C183.316 199.24 182.37 200.793 181.412 202.345C181.407 202.365 181.395 202.382 181.378 202.393C181.36 202.403 181.34 202.407 181.32 202.402C181.3 202.397 181.283 202.385 181.273 202.367C181.262 202.35 181.259 202.329 181.263 202.31Z" fill="#263238"/>
<path d="M206.849 223.612C206.89 222.042 207.14 220.453 207.313 218.895C207.485 217.336 207.658 215.754 207.824 214.183C208.151 211.155 208.33 208.062 209.014 205.094C209.541 202.512 210.827 200.146 212.708 198.3C213.684 197.325 214.965 196.714 216.337 196.569C217.716 196.531 219.069 196.949 220.186 197.759C221.456 198.699 222.551 199.855 223.422 201.173C224.362 202.477 225.207 203.847 225.95 205.272C225.95 205.326 225.89 205.361 225.861 205.308C224.461 202.928 222.605 200.848 220.4 199.187C219.418 198.38 218.219 197.882 216.955 197.753C216.338 197.742 215.726 197.854 215.153 198.083C214.58 198.312 214.058 198.653 213.618 199.085C211.786 200.68 210.721 203.024 210.091 205.326C209.341 208.05 209.103 210.923 208.728 213.719C208.502 215.379 208.294 217.045 208.074 218.71C207.854 220.376 207.717 222.059 207.366 223.689C207.341 223.742 207.299 223.786 207.248 223.813C207.196 223.841 207.137 223.851 207.079 223.842C207.021 223.833 206.967 223.806 206.926 223.765C206.884 223.724 206.857 223.67 206.849 223.612Z" fill="#263238"/>
<path d="M214.582 211.405C215.066 212.063 215.641 212.65 216.289 213.148C216.033 211.619 215.694 208.889 216.491 207.443C217.681 205.189 219.121 206.313 218.401 208.27C217.684 210.037 217.293 211.92 217.247 213.826C218.883 214.85 220.634 215.676 222.464 216.289C222.271 215.407 222.212 214.5 222.291 213.6C222.535 211.191 224.379 211.221 223.897 213.743C223.719 214.712 223.635 215.696 223.648 216.682C226.309 217.502 229.03 218.117 231.785 218.52C233.192 216.694 234.326 214.675 235.152 212.524C233.189 212.036 229.204 211.929 229.305 210.519C229.418 208.633 233.261 210.085 235.515 211.453C236.029 209.812 236.258 208.096 236.193 206.379C234.428 205.888 232.615 205.589 230.786 205.486C226.747 205.135 226.943 202.845 229.87 202.899C232.029 202.94 234.76 204.261 236.057 204.951C235.212 199.454 231.024 195.939 227.663 195.802C222.018 195.576 224.052 202.601 224.052 202.601C224.052 202.601 220.221 199.912 216.61 199.984C212.999 200.055 210.721 206.034 214.582 211.405ZM229.662 201.245C229.537 200.454 232.041 200.263 232.19 201.281C232.339 202.417 229.787 202.048 229.662 201.245ZM233.719 209.49C233.665 208.972 234.754 208.895 234.998 209.531C235.164 209.989 233.76 209.989 233.719 209.49ZM220.179 209.989C221.03 210.108 221.518 213.154 220.049 213.095C218.912 213.029 219.436 209.87 220.179 209.989Z" fill="#496445"/>
<path d="M221.333 213.35C221.476 212.97 221.601 212.589 221.72 212.202C221.613 212.589 221.512 212.982 221.441 213.392C221.438 213.399 221.434 213.406 221.429 213.411C221.423 213.416 221.417 213.421 221.41 213.424C221.403 213.427 221.396 213.429 221.388 213.429C221.381 213.429 221.373 213.428 221.366 213.425C221.359 213.422 221.353 213.418 221.347 213.413C221.342 213.408 221.337 213.401 221.334 213.394C221.331 213.387 221.33 213.38 221.33 213.373C221.329 213.365 221.331 213.357 221.333 213.35Z" fill="#263238"/>
<path d="M222.827 208.461C223.089 207.681 223.386 206.908 223.689 206.141C223.85 205.736 224.022 205.326 224.201 204.951C224.326 204.593 224.494 204.252 224.701 203.934C224.527 203.614 224.374 203.285 224.243 202.946C224.243 202.916 224.272 202.887 224.296 202.916C224.714 203.451 225.083 204.022 225.397 204.624C225.557 204.885 225.706 205.159 225.855 205.427C226.175 205.455 226.493 205.505 226.806 205.575C227.146 205.635 227.485 205.706 227.818 205.784C228.151 205.861 228.49 205.932 228.823 206.016C229.156 206.099 229.489 206.206 229.828 206.254C229.906 206.254 229.87 206.39 229.799 206.361C229.454 206.24 229.1 206.148 228.74 206.087C228.419 206.016 228.091 205.956 227.764 205.915C227.437 205.873 227.11 205.825 226.777 205.79L226.033 205.73C226.164 205.968 226.307 206.2 226.438 206.438C226.455 206.479 226.475 206.519 226.497 206.557C226.77 206.553 227.042 206.585 227.306 206.652C227.598 206.706 227.901 206.759 228.181 206.825C228.775 206.956 229.37 207.092 229.935 207.253C231.161 207.598 232.363 207.985 233.57 208.377C233.636 208.377 233.57 208.502 233.528 208.478C232.329 208.078 231.11 207.741 229.876 207.467C229.281 207.336 228.722 207.205 228.145 207.086L227.27 206.902C227.043 206.865 226.819 206.814 226.598 206.747C227.193 207.895 227.788 209.067 228.341 210.257C229.531 212.845 230.501 215.516 231.506 218.175C231.506 218.24 231.429 218.282 231.405 218.216C230.435 215.575 229.31 212.993 228.038 210.483C227.812 210.025 227.58 209.573 227.354 209.109C227.354 209.204 227.312 209.299 227.294 209.395C227.235 209.704 227.181 210.019 227.128 210.334C227.021 210.965 226.914 211.596 226.818 212.226C226.55 213.519 226.398 214.833 226.366 216.152C226.366 216.236 226.241 216.23 226.253 216.152C226.354 215.528 226.354 214.873 226.396 214.243C226.438 213.612 226.485 212.916 226.563 212.262C226.64 211.607 226.717 210.995 226.824 210.364C226.878 210.049 226.931 209.734 226.991 209.418C227.005 209.182 227.064 208.95 227.163 208.734C226.836 208.074 226.509 207.408 226.17 206.747C225.831 206.087 225.539 205.504 225.218 204.891C225.081 204.63 224.933 204.368 224.79 204.1C224.686 204.425 224.561 204.743 224.415 205.052L223.981 206.123C223.654 206.908 223.356 207.705 223.053 208.502C222.624 209.632 222.155 210.787 221.804 211.964C222.149 210.775 222.44 209.597 222.827 208.461Z" fill="#263238"/>
<path d="M221.72 212.202C221.72 212.107 221.774 212.018 221.804 211.929C221.774 212.018 221.75 212.107 221.72 212.202Z" fill="#263238"/>
<path d="M197.408 220.554L197.807 228.96L198.824 250.625H221.179L222.202 228.96L222.595 220.554H197.408Z" fill="#37474F"/>
<path d="M197.408 220.554L197.807 228.96H222.202L222.595 220.554H197.408Z" fill="#263238"/>
<path d="M195.814 223.951H224.183V217.152H195.814V223.951Z" fill="#37474F"/>
<path d="M219.371 250.625H215.444V254.182H219.371V250.625Z" fill="#37474F"/>
<path d="M219.371 250.625H215.444V252.404H219.371V250.625Z" fill="#263238"/>
<path d="M204.558 250.625H200.638V254.182H204.558V250.625Z" fill="#37474F"/>
<path d="M204.558 250.625H200.638V252.404H204.558V250.625Z" fill="#263238"/>
<path d="M0.451904 254.272L31.5874 254.129L62.723 254.075L125 253.974L187.277 254.075L218.413 254.129L249.548 254.272L218.413 254.42L187.277 254.468L125 254.569L62.723 254.468L31.5874 254.42L0.451904 254.272Z" fill="#263238"/>
<path d="M125.137 176.73C124.482 176.73 123.798 176.73 123.114 176.689V176.242C123.804 176.272 124.5 176.284 125.161 176.284H125.482V176.73H125.119H125.137ZM128.486 176.623L128.456 176.177C129.247 176.123 130.039 176.052 130.836 175.957L130.889 176.403C130.086 176.492 129.283 176.57 128.486 176.623ZM120.158 176.498C119.384 176.427 118.581 176.344 117.778 176.242L117.832 175.796C118.629 175.897 119.42 175.987 120.211 176.052L120.158 176.498ZM133.84 175.939L133.751 175.505C134.53 175.35 135.303 175.178 136.059 174.981L136.172 175.416C135.392 175.612 134.607 175.79 133.822 175.939H133.84ZM114.804 175.796C114.025 175.659 113.233 175.511 112.46 175.35L112.549 174.916C113.323 175.076 114.108 175.225 114.881 175.356L114.804 175.796ZM109.533 174.684C108.754 174.493 107.981 174.285 107.225 174.089L107.344 173.661C108.094 173.875 108.867 174.083 109.64 174.256L109.533 174.684ZM138.997 174.541L138.849 174.119C139.598 173.857 140.336 173.565 141.05 173.256L141.228 173.661C140.526 173.976 139.777 174.297 139.015 174.541H138.997ZM104.37 173.185C102.948 172.715 102.121 172.376 102.109 172.376L102.282 171.959C102.282 171.959 103.103 172.292 104.513 172.762L104.37 173.185ZM143.911 172.334L143.691 171.941C144.375 171.561 145.053 171.144 145.707 170.71L145.951 171.085C145.309 171.525 144.631 171.918 143.929 172.334H143.911ZM148.372 169.33L148.099 168.979C148.729 168.491 149.348 167.992 149.937 167.486L150.228 167.825C149.651 168.348 149.027 168.842 148.39 169.33H148.372ZM152.429 165.808L152.12 165.487C152.679 164.934 153.233 164.363 153.762 163.786L154.089 164.089C153.554 164.672 153.018 165.249 152.447 165.808H152.429ZM156.028 161.811L155.677 161.537C156.171 160.942 156.647 160.276 157.093 159.64L157.462 159.895C157.022 160.544 156.528 161.21 156.046 161.805L156.028 161.811ZM159.086 157.391L158.705 157.159C159.116 156.481 159.503 155.785 159.865 155.095L160.258 155.303C159.913 155.999 159.503 156.701 159.104 157.391H159.086ZM161.543 152.602L161.138 152.424C161.442 151.716 161.733 150.972 162.013 150.229L162.435 150.383C162.173 151.139 161.882 151.882 161.561 152.602H161.543ZM163.357 147.54L162.929 147.415C163.149 146.665 163.345 145.892 163.524 145.125L163.958 145.226C163.797 145.999 163.595 146.778 163.375 147.528L163.357 147.54ZM164.511 142.287L164.071 142.216C164.19 141.442 164.285 140.651 164.363 139.872L164.803 139.914C164.749 140.705 164.648 141.502 164.529 142.287H164.511ZM164.987 136.933H164.541C164.541 136.588 164.541 136.243 164.541 135.898C164.541 135.452 164.541 135.006 164.541 134.566H164.987C164.987 135.012 164.987 135.458 164.987 135.91C165.017 136.225 165.011 136.576 165.005 136.927L164.987 136.933ZM167.23 136.416C166.909 136.416 166.593 136.416 166.272 136.416V135.97C167.055 136.014 167.839 136.014 168.622 135.97L168.652 136.416C168.217 136.392 167.73 136.41 167.236 136.41L167.23 136.416ZM163.292 136.059C162.503 135.916 161.723 135.731 160.954 135.506L161.079 135.077C161.832 135.298 162.597 135.479 163.369 135.619L163.292 136.059ZM171.65 135.958L171.561 135.523C172.329 135.37 173.088 135.171 173.833 134.929L173.97 135.351C173.215 135.596 172.446 135.796 171.668 135.952L171.65 135.958ZM158.158 134.441C157.428 134.11 156.717 133.739 156.028 133.328L156.255 132.948C156.93 133.347 157.627 133.709 158.343 134.03L158.158 134.441ZM176.76 134.161L176.563 133.763C177.263 133.404 177.943 133.007 178.598 132.573L178.842 132.942C178.17 133.392 177.473 133.803 176.754 134.173L176.76 134.161ZM153.56 131.621C153.167 131.306 152.775 130.967 152.4 130.616C152.186 130.414 151.977 130.211 151.805 130.021L152.12 129.706C152.316 129.908 152.519 130.104 152.715 130.301C153.084 130.646 153.465 130.973 153.851 131.288L153.56 131.621ZM164.351 131.585C164.261 130.794 164.148 130.009 164.018 129.248L164.458 129.17C164.595 129.944 164.708 130.741 164.791 131.55L164.351 131.585ZM181.233 131.127L180.936 130.794C181.525 130.275 182.086 129.723 182.613 129.141L182.94 129.444C182.401 130.04 181.829 130.606 181.227 131.139L181.233 131.127ZM149.889 127.659C149.444 126.99 149.077 126.271 148.795 125.518L149.211 125.369C149.479 126.097 149.826 126.793 150.246 127.445L149.889 127.659ZM184.814 127.064L184.445 126.809C184.785 126.333 185.106 125.827 185.409 125.321C185.51 125.155 185.611 124.988 185.707 124.816L186.093 125.036C185.992 125.208 185.897 125.381 185.796 125.547C185.481 126.113 185.147 126.618 184.808 127.106L184.814 127.064ZM163.399 126.333C163.185 125.547 162.947 124.792 162.685 124.084L163.107 123.929C163.369 124.649 163.613 125.417 163.827 126.214L163.399 126.333ZM148.753 122.543H148.307C148.335 121.725 148.512 120.918 148.831 120.164L149.241 120.336C148.948 121.037 148.783 121.785 148.753 122.543ZM187.42 122.424L187.015 122.252C187.313 121.55 187.61 120.806 187.866 120.051L188.288 120.194C188.015 120.937 187.723 121.687 187.414 122.395L187.42 122.424ZM161.466 121.473C161.098 120.786 160.668 120.135 160.181 119.527L160.526 119.242C161.031 119.872 161.477 120.547 161.858 121.258L161.466 121.473ZM150.954 118.052L150.681 117.707C151.324 117.189 152.064 116.804 152.858 116.577L152.977 117.005C152.24 117.207 151.551 117.553 150.948 118.022L150.954 118.052ZM157.974 117.683C157.303 117.305 156.576 117.038 155.82 116.892L155.904 116.452C156.707 116.61 157.48 116.896 158.194 117.297L157.974 117.683ZM189.157 117.332L188.723 117.219C188.913 116.511 189.097 115.756 189.288 114.917L189.722 115.012C189.526 115.833 189.341 116.595 189.151 117.303L189.157 117.332ZM190.347 112.097L189.906 112.008L190.364 109.676L190.799 109.76L190.347 112.097ZM191.405 106.857L190.971 106.756C191.162 105.899 191.352 105.137 191.566 104.436L191.994 104.554C191.762 105.221 191.572 105.976 191.382 106.827L191.405 106.857ZM192.893 101.747L192.476 101.592C192.742 100.824 193.054 100.073 193.41 99.3434L193.809 99.5457C193.456 100.254 193.142 100.981 192.869 101.723L192.893 101.747ZM195.373 97.1008L195.01 96.8331C195.485 96.1876 196.004 95.5754 196.563 95.0009L196.878 95.3102C196.33 95.8622 195.819 96.4505 195.349 97.071L195.373 97.1008ZM199.091 93.3947L198.823 93.0318C199.472 92.5614 200.145 92.1265 200.84 91.7291L201.06 92.1217C200.37 92.5048 199.705 92.93 199.067 93.3947H199.091ZM203.701 90.8308L203.523 90.4204C204.148 90.1586 204.808 89.9088 205.492 89.6768L205.635 90.0991C204.939 90.2954 204.29 90.5393 203.678 90.8011L203.701 90.8308Z" fill="#263238"/>
<path d="M204.243 80.5693L199.692 93.0735L209.252 85.6079L245.789 72.3601L204.243 80.5693Z" fill="#FFC727"/>
<path opacity="0.1" d="M204.243 80.5693L199.692 93.0735L209.252 85.6079L245.789 72.3601L204.243 80.5693Z" fill="black"/>
<path d="M210.477 88.5228L199.692 93.0735L209.252 85.6079L210.477 88.5228Z" fill="#263238"/>
<path d="M209.252 85.6079L245.789 72.3601L215.819 101.604L209.252 85.6079Z" fill="#FFC727"/>
<path d="M204.243 80.5693L189.062 70.7658L245.789 72.3601L204.243 80.5693Z" fill="#FFC727"/>
<path d="M25.9065 254.176L125 254.605C149.086 235.694 151.573 207.669 134.387 190.686C123.995 180.407 110.789 182.477 98.2309 180.841H98.1952C93.8169 180.246 89.5219 179.252 85.4411 177.099C72.4908 170.27 65.2155 154.155 54.2996 140.598C52.9433 138.902 51.5216 137.249 50.0344 135.654C41.0757 126.089 23.2652 125.78 13.9198 139.224C-9.79174 173.387 1.05871 224.266 25.9065 254.176Z" fill="#4D4D4D"/>
<path opacity="0.1" d="M23.7049 175.993C26.2985 216.652 73.2577 231.827 102.579 219.65C128.081 209.056 119.735 184.886 98.2303 180.841H98.1946C93.8164 180.246 89.5214 179.252 85.4406 177.099C72.4903 170.27 65.215 154.155 54.2991 140.598C38.0532 132.162 21.8013 146.225 23.7049 175.993Z" fill="black"/>
<path d="M116.999 260.553C115.47 259.994 80.9319 232.392 80.2835 230.507C80.0336 229.793 83.7575 224.558 88.4392 218.294C89.4504 216.949 90.5034 215.563 91.5801 214.165C98.5579 205.07 106.178 195.588 106.178 195.588L129.337 213.981L114.102 232.059L110.759 236.027C110.759 236.027 119.253 252.511 119.747 254.652C120.241 256.794 118.528 261.148 116.999 260.553Z" fill="#FFD7D1"/>
<path d="M116.999 260.553C115.47 259.959 80.9377 232.392 80.2833 230.507C80.0751 229.912 82.5022 226.342 85.9405 221.661C90.9612 227.663 108.468 245.533 113.251 247.924C116.285 249.441 115.684 246.461 114.548 243.499C116.88 248.156 119.479 253.492 119.747 254.646C120.241 256.818 118.528 261.148 116.999 260.553Z" fill="#263238"/>
<path d="M152.721 178.634C151.138 190.662 121.49 225.391 118.064 229.376L117.267 230.281L92.7579 211.435L93.0375 211.072L114.637 182.792C114.637 182.792 78.945 203.612 61.0572 194.172C53.0205 189.924 47.0718 182.376 47.0718 182.376L70.3907 169.943C70.3907 169.943 76.8451 172.031 80.9675 171.43C95.1849 169.348 127.04 157.254 134.601 157.558C144.363 157.956 154.178 167.593 152.721 178.634Z" fill="#37474F"/>
<path d="M122.395 172.281C121.592 173.185 120.847 174.138 120.164 175.136C119.402 176.141 118.623 177.129 117.862 178.11V178.14C117.998 177.843 118.129 177.545 118.272 177.26C118.754 176.26 119.141 175.231 119.706 174.285C119.709 174.274 119.709 174.262 119.705 174.25C119.7 174.239 119.692 174.23 119.682 174.223C119.672 174.217 119.66 174.215 119.648 174.216C119.636 174.218 119.625 174.223 119.616 174.232C119.022 175.178 118.355 176.076 117.832 177.069C117.594 177.539 117.374 178.015 117.166 178.497C117.053 178.759 116.934 179.026 116.832 179.294C116.777 179.42 116.729 179.549 116.69 179.681C116.351 180.145 116.012 180.609 115.684 181.085C114.959 182.138 114.316 183.25 113.579 184.297C113.537 184.351 113.626 184.404 113.668 184.351C114.411 183.369 115.25 182.453 116.006 181.477C116.761 180.502 117.511 179.467 118.23 178.437C118.95 177.408 119.622 176.421 120.33 175.416C121.1 174.426 121.809 173.391 122.454 172.316C122.472 172.292 122.424 172.251 122.395 172.281Z" fill="#263238"/>
<path d="M43.199 137.588C42.8718 144.762 41.2776 153.322 44.3174 160.115C46.6968 165.434 51.7235 169.039 56.9108 171.323C68.3323 176.373 84.3165 177.034 92.3175 165.695C95.5119 161.168 96.0592 151.734 90.7589 148.284C88.0404 146.499 84.8102 146.106 81.7288 145.273C79.8103 144.827 78.0174 143.953 76.4838 142.717C74.9501 141.481 73.7152 139.915 72.8712 138.135C69.2008 130.776 69.9325 125.393 69.2365 117.434C69.221 116.643 69.0404 115.864 68.7065 115.147C68.3726 114.43 67.8925 113.79 67.2972 113.269C65.9898 111.983 64.3571 111.076 62.5739 110.646C61.053 109.983 59.3909 109.709 57.7376 109.849C54.216 110.218 50.8312 113.466 48.1007 115.488C45.3703 117.511 44.0735 119.652 43.8593 123.144C43.5678 127.945 43.4191 132.769 43.199 137.588Z" fill="#263238"/>
<path d="M42.3128 140.984C43.0386 134.441 43.8833 127.897 44.6923 121.354C44.6923 121.318 44.7577 121.318 44.7518 121.354C44.2462 126.755 43.8119 132.163 43.2349 137.558C42.64 142.852 41.7239 148.266 41.6228 153.578C41.3967 165.529 53.6868 170.389 63.8471 169.806C64.3111 169.806 64.2992 170.52 63.8471 170.532C54.9241 170.764 44.2462 167.712 41.5454 157.998C40.0464 152.668 41.718 146.338 42.3128 140.984Z" fill="#263238"/>
<path d="M68.6597 116.803C68.6597 116.678 68.8501 116.684 68.856 116.803C69.1535 123.347 68.856 131.08 72.6275 136.785C74.4708 139.604 77.1257 141.799 80.2419 143.078C82.7106 144.084 85.328 144.173 87.9038 144.679C98.0166 146.66 98.0939 160.282 90.7592 165.594C90.6045 165.707 90.4082 165.446 90.5569 165.327C95.7204 161.216 97.4217 153.738 93.216 148.254C89.8371 143.852 83.353 145.279 78.7487 142.9C69.207 137.951 68.4872 126.345 68.6597 116.803Z" fill="#263238"/>
<path d="M58.3327 145.345C62.6991 151.615 77.6125 168.842 87.9633 171.198C93.6681 172.501 121.222 176.355 125 172.917C129.426 168.89 127.379 153.721 123.858 153.584C113.12 153.161 93.2576 155.261 88.2964 154.179C86.0537 153.679 74.1563 146.005 61.4499 139.866C56.6433 137.534 55.5131 141.3 58.3327 145.345Z" fill="#FFD7D1"/>
<path d="M68.9926 160.371L73.1567 145.03C73.1567 145.03 66.167 141.151 61.997 139.551C56.4766 137.433 54.3945 138.956 57.7793 145.392C60.0517 149.681 68.9926 160.371 68.9926 160.371Z" fill="#EEE1FF"/>
<path d="M67.9639 158.42C68.416 156.148 68.8978 153.881 69.4808 151.639C69.7723 150.52 70.0757 149.402 70.4088 148.295C70.7419 147.189 71.1762 146.106 71.4796 144.994C71.4796 144.934 71.5985 144.964 71.5747 144.994C71.2119 146.088 70.9799 147.242 70.6824 148.355C70.385 149.467 70.0876 150.586 69.7782 151.704C69.1833 153.941 68.5885 156.177 68.0531 158.42C68.0412 158.515 67.952 158.486 67.9639 158.42Z" fill="#263238"/>
<path d="M72.5084 147.445L68.9927 160.377C68.9927 160.377 60.0696 149.67 57.7853 145.392C56.7443 143.411 56.2149 141.895 56.1554 140.812L72.5084 147.445Z" fill="#263238"/>
<path d="M35.8882 187.807C37.2623 188.253 76.2442 176.968 76.2442 176.968L71.6399 163.435C71.6399 163.435 73.9183 159.08 72.8297 154.893C71.4198 149.301 61.0631 140.104 60.2541 139.563C57.018 137.415 53.9544 137.415 51.2359 138.873C39.9749 144.863 35.8882 187.807 35.8882 187.807Z" fill="#C496FF"/>
<path d="M65.6318 144.435C66.6371 145.624 67.7138 146.719 68.7489 147.861C68.267 147.01 67.7852 146.154 67.2736 145.315C68.0319 146.298 68.6933 147.352 69.2486 148.462C70.0269 149.327 70.7444 150.246 71.3961 151.21C72.2036 152.355 72.8073 153.631 73.1807 154.982C73.5038 156.347 73.5443 157.764 73.2996 159.146C73.0019 160.737 72.5619 162.297 71.985 163.81C71.9136 164.012 71.6281 163.881 71.6816 163.685C72.4133 161.043 73.2461 158.254 72.6572 155.493C72.0683 152.733 70.3669 150.461 68.7072 148.289C67.7308 146.963 66.6718 145.699 65.5366 144.506C65.5128 144.453 65.5842 144.387 65.6318 144.435Z" fill="#263238"/>
<path d="M59.1357 162.459C60.8122 162.136 62.5102 161.937 64.2159 161.864C65.0606 161.864 65.9054 161.864 66.7501 161.906C67.1724 161.906 67.5948 161.906 68.0172 161.906C68.4586 161.92 68.9001 161.88 69.3318 161.787C69.3675 161.787 69.3854 161.835 69.3318 161.847C68.9424 161.977 68.545 162.082 68.1421 162.162C67.7483 162.224 67.3508 162.259 66.9523 162.269C66.0898 162.269 65.2332 162.269 64.3706 162.305C62.6395 162.34 60.9025 162.376 59.1774 162.543C59.0703 162.608 59.0584 162.471 59.1357 162.459Z" fill="#263238"/>
<path d="M55.5009 165.041C56.8077 164.523 58.1422 164.078 59.4984 163.709C60.1825 163.524 60.8666 163.387 61.5567 163.262L62.556 163.102C62.9189 163.048 63.2937 163.042 63.6566 162.983C63.6982 162.983 63.7161 163.036 63.6566 163.042C63.3115 163.108 62.9784 163.233 62.6453 163.316L61.6221 163.572C60.944 163.744 60.2658 163.929 59.5817 164.095C58.2194 164.428 56.8631 164.773 55.5128 165.154C55.5003 165.152 55.489 165.145 55.4804 165.136C55.4718 165.126 55.4665 165.115 55.4652 165.102C55.4638 165.089 55.4666 165.077 55.473 165.066C55.4794 165.055 55.4892 165.046 55.5009 165.041Z" fill="#263238"/>
<path d="M53.6807 139.634C53.8354 140.342 57.1369 144.988 60.3611 144.857C61.4081 144.821 61.4676 139.087 61.4676 139.087L61.5687 138.664L62.9845 132.745L55.0727 127.564C55.0727 127.564 53.6153 139.331 53.6807 139.634Z" fill="#FFD7D1"/>
<path d="M62.9845 132.74L61.5687 138.688C59.9748 138.063 58.5297 137.111 57.3267 135.892C56.1238 134.674 55.1897 133.217 54.585 131.615C54.8289 129.575 55.0371 127.879 55.0668 127.63C55.0681 127.618 55.0681 127.606 55.0668 127.594L56.0721 128.189L62.9845 132.74Z" fill="#263238"/>
<path d="M70.6525 121.842C73.2877 132.192 67.3866 134.929 65.1558 135.524C63.1273 136.035 56.1673 137.528 52.4791 127.511C48.7909 117.493 52.7706 112.996 57.3392 111.574C61.9078 110.152 68.0231 111.497 70.6525 121.842Z" fill="#FFD7D1"/>
<path d="M68.6655 120.557C68.4157 120.557 68.1777 120.557 67.9279 120.557C67.6665 120.585 67.4029 120.527 67.1783 120.39C67.1167 120.333 67.0757 120.257 67.0617 120.174C67.0477 120.091 67.0615 120.006 67.101 119.932C67.1982 119.796 67.3301 119.689 67.4829 119.622C67.6358 119.555 67.8039 119.531 67.9695 119.551C68.3145 119.539 68.6515 119.656 68.9154 119.878C68.9665 119.933 69.0015 120.001 69.0163 120.075C69.0312 120.148 69.0253 120.224 68.9994 120.294C68.9735 120.365 68.9286 120.427 68.8696 120.473C68.8106 120.519 68.74 120.548 68.6655 120.557Z" fill="#263238"/>
<path d="M61.7054 122.734C61.9493 122.656 62.1575 122.549 62.3895 122.454C62.6423 122.387 62.8672 122.241 63.0319 122.038C63.0697 121.963 63.082 121.877 63.067 121.795C63.0519 121.712 63.0104 121.637 62.9487 121.58C62.8092 121.487 62.6474 121.433 62.4801 121.423C62.3127 121.414 62.1459 121.449 61.9969 121.526C61.6707 121.635 61.397 121.862 61.2295 122.163C61.1936 122.233 61.1792 122.313 61.1881 122.391C61.1969 122.47 61.2287 122.544 61.2793 122.605C61.33 122.666 61.3973 122.71 61.473 122.733C61.5488 122.756 61.6296 122.756 61.7054 122.734Z" fill="#263238"/>
<path d="M63.4784 124.037C63.4784 124.037 63.4308 124.078 63.4368 124.108C63.6093 124.816 63.6807 125.655 63.0858 126.023C63.0858 126.023 63.0858 126.071 63.0858 126.059C63.8651 125.791 63.7283 124.679 63.4784 124.037Z" fill="#263238"/>
<path d="M62.693 123.424C61.5032 123.573 61.9077 125.887 62.9904 125.75C64.0731 125.613 63.6686 123.299 62.693 123.424Z" fill="#263238"/>
<path d="M62.2589 123.62C62.0744 123.781 61.9138 124.048 61.664 124.114C61.4141 124.179 61.1345 123.977 60.9085 123.775C60.9085 123.775 60.8728 123.775 60.8728 123.811C60.9442 124.257 61.1881 124.679 61.6759 124.667C62.1637 124.655 62.3659 124.215 62.4016 123.751C62.4195 123.662 62.3302 123.555 62.2589 123.62Z" fill="#263238"/>
<path d="M67.5947 123.138C67.5947 123.138 67.6542 123.168 67.6602 123.198C67.7494 123.918 67.9754 124.727 68.6595 124.863V124.905C67.8505 124.887 67.565 123.811 67.5947 123.138Z" fill="#263238"/>
<path d="M68.118 122.258C69.2602 121.99 69.7123 124.292 68.6534 124.542C67.5945 124.792 67.1603 122.484 68.118 122.258Z" fill="#263238"/>
<path d="M68.6298 122.317C68.832 122.401 69.0581 122.591 69.2782 122.561C69.4983 122.532 69.6708 122.24 69.7838 121.966C69.7838 121.966 69.8195 121.966 69.8255 121.966C69.9207 122.401 69.8671 122.888 69.4626 123.055C69.0581 123.222 68.7309 122.888 68.5406 122.46C68.487 122.419 68.5465 122.282 68.6298 122.317Z" fill="#263238"/>
<path d="M64.4359 130.402C64.6262 130.556 64.8166 130.77 65.0843 130.77C65.3534 130.741 65.613 130.653 65.8457 130.515C65.8457 130.515 65.8933 130.515 65.8814 130.55C65.7903 130.702 65.6599 130.827 65.5038 130.911C65.3478 130.994 65.172 131.034 64.995 131.026C64.8487 130.996 64.7145 130.923 64.6088 130.818C64.5031 130.712 64.4306 130.578 64.4002 130.431C64.3526 130.396 64.4061 130.378 64.4359 130.402Z" fill="#263238"/>
<path d="M67.0773 127.118C67.2302 127.631 67.3573 128.151 67.458 128.677C67.458 128.724 67.345 128.766 67.1784 128.801C66.7558 128.945 66.3018 128.97 65.8663 128.872C65.4307 128.774 65.0305 128.559 64.7097 128.248C64.7009 128.239 64.6957 128.227 64.6951 128.214C64.6945 128.201 64.6986 128.188 64.7065 128.178C64.7144 128.168 64.7257 128.161 64.7383 128.159C64.7509 128.156 64.764 128.159 64.7751 128.165C65.4851 128.513 66.2893 128.619 67.0654 128.468C67.0654 128.326 66.4705 126.684 66.5598 126.684C66.9588 126.665 67.3586 126.697 67.7495 126.779C67.1546 124.566 66.2445 122.466 65.7031 120.235C65.7017 120.22 65.7051 120.205 65.7128 120.192C65.7206 120.179 65.7322 120.169 65.7461 120.163C65.76 120.157 65.7754 120.156 65.7901 120.159C65.8049 120.162 65.8181 120.17 65.8281 120.182C66.893 122.4 67.7321 124.72 68.3325 127.106C68.392 127.404 67.2974 127.177 67.0773 127.118Z" fill="#263238"/>
<path d="M67.1249 128.605C66.92 129.075 66.5985 129.484 66.191 129.795C65.9646 129.959 65.6915 130.047 65.4117 130.045C64.8168 130.045 64.6562 129.515 64.6503 129.039C64.6497 128.787 64.6776 128.536 64.7336 128.29C65.4769 128.646 66.3146 128.757 67.1249 128.605Z" fill="#263238"/>
<path d="M66.191 129.789C65.9646 129.953 65.6915 130.041 65.4117 130.039C64.8168 130.039 64.6562 129.509 64.6503 129.033C64.9546 128.969 65.2716 129.009 65.5509 129.146C65.8301 129.282 66.0555 129.509 66.191 129.789Z" fill="#FF9CBD"/>
<path d="M53.2169 128.26C54.3353 127.891 56.4471 123.989 55.0729 118.498C55.0729 118.498 55.9652 123.513 55.7868 124.328C55.6083 125.143 56.9765 122.139 55.9236 117.695C57.576 118.317 59.3087 118.7 61.0692 118.831C63.306 118.831 64.579 118.498 64.6861 118.308C64.7931 118.118 61.4738 117.969 60.3911 117.237C60.3911 117.237 66.6134 118.326 69.219 117.832C69.5224 117.779 68.2493 111.616 63.6153 110.099C58.9812 108.582 53.4727 113.031 52.2295 115.108C52.2295 115.108 50.3259 115.917 48.9636 119.408C47.6014 122.9 52.0213 128.659 53.2169 128.26Z" fill="#263238"/>
<path d="M54.3231 127.862C54.3231 127.862 51.4856 124.953 50.159 126.017C48.8325 127.082 51.3131 131.562 53.1691 131.925C53.404 131.991 53.6501 132.008 53.892 131.976C54.134 131.944 54.3667 131.862 54.5758 131.736C54.7849 131.61 54.9659 131.442 55.1077 131.243C55.2494 131.045 55.3489 130.819 55.3999 130.58L54.3231 127.862Z" fill="#FFD7D1"/>
<path d="M50.8788 127.302C50.849 127.302 50.849 127.344 50.8788 127.35C52.1875 127.641 53.0203 128.677 53.6687 129.783C53.5749 129.674 53.4585 129.586 53.3276 129.526C53.1967 129.466 53.0543 129.434 52.9102 129.434C52.7662 129.434 52.6238 129.466 52.4929 129.526C52.362 129.586 52.2456 129.674 52.1518 129.783C52.122 129.783 52.1518 129.854 52.1994 129.842C52.4034 129.737 52.6353 129.698 52.8625 129.731C53.0897 129.765 53.3009 129.868 53.4664 130.027C53.7438 130.281 53.9931 130.564 54.21 130.872C54.2874 130.973 54.4718 130.872 54.4123 130.759C54.1624 129.158 52.586 127.166 50.8788 127.302Z" fill="#263238"/>
<path d="M45.6678 148.408C42.5328 166.189 45.5667 179.508 48.5827 181.162C56.7146 185.6 76.2442 176.593 81.7527 174.803C83.9537 174.083 73.8409 157.046 71.5566 158.105C66.2027 160.579 58.7014 164.779 58.398 164.744C57.8032 164.684 57.0893 160.145 53.9841 146.897C51.4678 136.225 46.9527 141.139 45.6678 148.408Z" fill="#FFD7D1"/>
<path d="M99.5038 149.676C100.063 151.912 94.4355 152.816 94.4355 152.816C95.371 153.153 96.1599 153.805 96.6662 154.661C97.4872 156.207 95.417 158.164 95.417 158.164C96.3142 158.713 97.0252 159.52 97.4574 160.478C98.0939 162.037 96.2677 164.315 96.2677 164.315C96.8133 165.274 96.995 166.398 96.7793 167.48C96.0892 170.347 91.6931 171.478 89.1114 172.715C86.3452 174.041 81.7647 174.529 79.6886 175.463L70.6882 158.973C70.6882 158.973 79.3852 149.765 84.3703 148.337C87.1245 147.528 98.6531 146.261 99.5038 149.676Z" fill="#FFD7D1"/>
<path d="M94.3758 152.769C91.2468 152.632 88.0881 153.245 85.0483 153.869C85.0378 153.873 85.0287 153.88 85.0222 153.889C85.0158 153.898 85.0123 153.909 85.0123 153.92C85.0123 153.931 85.0158 153.942 85.0222 153.951C85.0287 153.96 85.0378 153.967 85.0483 153.97C88.0643 153.316 91.3301 153.453 94.3639 152.918C94.3806 152.914 94.3958 152.906 94.4071 152.893C94.4184 152.881 94.4253 152.865 94.4267 152.848C94.428 152.831 94.4238 152.814 94.4146 152.8C94.4054 152.785 94.3918 152.775 94.3758 152.769Z" fill="#263238"/>
<path d="M95.2561 157.962C94.5423 157.999 93.8364 158.129 93.1562 158.349C92.4245 158.539 91.6988 158.741 90.9671 158.944C89.5156 159.372 88.0701 159.83 86.6424 160.33C86.5769 160.33 86.5948 160.455 86.6424 160.437C88.0879 160.014 89.5453 159.616 91.0147 159.247C91.7464 159.063 92.484 158.89 93.2157 158.718C93.9234 158.595 94.6156 158.396 95.2799 158.123C95.29 158.111 95.2974 158.097 95.3018 158.082C95.3061 158.068 95.3071 158.052 95.3049 158.037C95.3026 158.022 95.2971 158.007 95.2887 157.994C95.2802 157.981 95.2691 157.97 95.2561 157.962Z" fill="#263238"/>
<path d="M96.2317 164.333C95.5856 164.374 94.9516 164.527 94.3579 164.785L92.377 165.38C91.0564 165.785 89.7358 166.183 88.4032 166.54C88.3378 166.54 88.3557 166.665 88.4032 166.647C89.7595 166.29 91.1218 165.957 92.4781 165.588C93.1384 165.41 93.8047 165.225 94.465 165.035C95.095 164.929 95.7 164.707 96.2496 164.381C96.2516 164.376 96.2527 164.372 96.2529 164.367C96.253 164.362 96.2523 164.358 96.2506 164.353C96.249 164.349 96.2464 164.345 96.2432 164.341C96.24 164.338 96.2361 164.335 96.2317 164.333Z" fill="#263238"/>
<path d="M58.3741 164.744C60.5038 163.518 62.6632 162.364 64.8285 161.174L68.1062 159.473L69.754 158.646C70.3143 158.354 70.8925 158.098 71.4851 157.879L71.378 157.938C72.8295 156.528 74.2869 155.13 75.8277 153.816C76.5891 153.155 77.3624 152.501 78.1655 151.888C78.957 151.255 79.8008 150.69 80.6878 150.199C79.8519 150.757 79.0567 151.373 78.3083 152.043C77.5468 152.697 76.7914 153.364 76.0537 154.054C74.5903 155.434 73.121 156.814 71.7052 158.218L71.6695 158.248L71.5981 158.277C71.0925 158.462 70.5095 158.765 69.9682 159.015L68.3085 159.824L65.0189 161.472C62.8178 162.596 60.6228 163.697 58.3741 164.744Z" fill="#263238"/>
<path d="M42.6459 163.875L56.8573 156.737C56.8573 156.737 55.0727 148.944 53.4844 144.768C51.3786 139.247 48.8385 138.736 46.346 145.529C44.6446 150.08 42.6459 163.875 42.6459 163.875Z" fill="#EEE1FF"/>
<path d="M43.4132 161.805C45.406 160.615 47.4167 159.473 49.4749 158.414C50.5041 157.885 51.5451 157.367 52.5861 156.868C53.6271 156.368 54.7277 155.981 55.7627 155.47C55.8163 155.47 55.8579 155.535 55.7984 155.559C54.7455 156.011 53.7342 156.618 52.7051 157.135C51.676 157.653 50.6349 158.17 49.6058 158.7C47.5476 159.753 45.4834 160.8 43.4489 161.9C43.3954 161.924 43.3597 161.835 43.4132 161.805Z" fill="#263238"/>
<path d="M44.3472 162.995C43.7999 163.328 43.2466 163.637 42.6994 163.952L42.5031 164.065L42.5328 163.833C42.747 161.864 43.0265 159.913 43.3716 157.968C43.7166 156.023 44.1152 154.084 44.6446 152.18C44.5256 153.161 44.3947 154.137 44.246 155.113C44.0973 156.088 43.9605 157.064 43.7999 158.039C43.4905 159.985 43.1396 161.93 42.7588 163.869L42.5923 163.744C43.1753 163.518 43.7523 163.256 44.3472 162.995Z" fill="#263238"/>
<path d="M43.8653 154.161C43.892 154.617 43.892 155.073 43.8653 155.529C43.8515 155.985 43.8138 156.439 43.7523 156.891C43.6768 155.981 43.7047 155.065 43.8355 154.161H43.8653Z" fill="#263238"/>
<path d="M55.1263 157.641C55.6737 157.309 56.2376 157.005 56.8157 156.731C56.5837 155.815 56.3398 154.91 56.1197 153.994C56.0067 153.536 55.9056 153.078 55.8104 152.62C55.7152 152.162 55.5546 151.537 55.4594 151.091C55.4594 151.02 55.5368 150.996 55.5546 151.062C55.739 151.656 55.852 152.067 56.0067 152.561C56.1614 153.054 56.2685 153.453 56.3874 153.899C56.6313 154.845 56.9347 155.844 57.137 156.802C56.4961 157.145 55.8322 157.443 55.1501 157.694C55.1433 157.696 55.1361 157.695 55.1299 157.692C55.1236 157.689 55.1186 157.684 55.1157 157.678C55.1129 157.671 55.1124 157.664 55.1143 157.657C55.1163 157.651 55.1205 157.645 55.1263 157.641Z" fill="#263238"/>
<path d="M56.2625 151.692C56.3577 152.253 56.3577 152.826 56.2625 153.387C56.1594 152.827 56.1594 152.253 56.2625 151.692Z" fill="#263238"/>
<path d="M112.145 173.934H70.7772V175.79H112.145V173.934Z" fill="#C7C7C7"/>
<path d="M79.629 173.934L78.2133 175.79H112.145V173.934H79.629Z" fill="#A6A6A6"/>
<path d="M81.4017 175.784H121.716L125.071 148.408H84.7568L81.4017 175.784Z" fill="#C7C7C7"/>
<path d="M100.783 162.096C100.772 162.418 100.827 162.738 100.944 163.038C101.06 163.337 101.237 163.61 101.462 163.84C101.687 164.07 101.957 164.251 102.254 164.374C102.551 164.496 102.87 164.557 103.192 164.553C103.846 164.55 104.474 164.292 104.941 163.833C105.407 163.374 105.676 162.751 105.69 162.096C105.7 161.778 105.645 161.461 105.53 161.164C105.415 160.867 105.241 160.596 105.019 160.367C104.797 160.139 104.532 159.957 104.238 159.833C103.945 159.709 103.629 159.645 103.311 159.646C102.652 159.639 102.017 159.893 101.543 160.352C101.07 160.81 100.797 161.437 100.783 162.096Z" fill="white"/>
<path d="M124.744 151.056C126.261 153.399 130.015 156.142 130.532 158.152C130.678 158.644 130.662 159.169 130.485 159.651C130.308 160.132 129.98 160.543 129.551 160.823C129.551 160.823 131.722 161.573 131.888 163.477C131.978 164.452 130.485 165.451 130.485 165.451C130.485 165.451 132.204 166.124 132.269 167.831C132.305 169.187 130.806 169.984 130.806 169.984C130.806 169.984 132.15 171.4 131.746 172.792C130.919 175.618 119.378 177.141 117.035 173.125C115.94 171.257 118.784 171.037 118.784 171.037C118.784 171.037 114.619 170.365 114.245 167.992C113.87 165.618 117.576 165.559 117.576 165.559C117.576 165.559 113.555 164.874 113.412 162.376C113.263 159.776 116.981 160.353 116.981 160.353C116.981 160.353 114.185 158.95 114.518 157.01C115.06 153.816 121.657 157.213 124.102 156.279L124.744 151.056Z" fill="#FFD7D1"/>
<path d="M130.567 170.133C130.575 170.133 130.583 170.136 130.589 170.142C130.594 170.147 130.597 170.155 130.597 170.163C130.597 170.171 130.594 170.178 130.589 170.184C130.583 170.189 130.575 170.193 130.567 170.193C126.754 171.689 122.575 171.99 118.587 171.055C118.462 171.019 118.456 170.805 118.587 170.811C122.592 171.17 126.628 170.941 130.567 170.133Z" fill="#263238"/>
<path d="M130.544 165.469C130.592 165.469 130.604 165.529 130.544 165.547C126.749 166.998 121.698 167.331 117.415 165.678C117.267 165.618 117.195 165.422 117.368 165.475C120.318 166.374 126.868 166.278 130.544 165.469Z" fill="#263238"/>
<path d="M116.672 160.121C120.836 161.573 125.059 161.543 129.384 160.889C129.437 160.889 129.443 160.96 129.384 160.984C127.355 161.876 124.554 162.007 122.364 161.924C120.333 161.887 118.348 161.316 116.606 160.27C116.564 160.229 116.594 160.092 116.672 160.121Z" fill="#263238"/>
<path d="M206.527 229.293C205.962 230.822 178.253 265.271 176.367 265.913C175.653 266.163 170.418 262.421 164.178 257.716C162.84 256.699 161.459 255.646 160.061 254.563C150.99 247.556 141.531 239.906 141.531 239.906L159.972 216.813L177.997 232.101L181.953 235.456C181.953 235.456 198.46 227.015 200.608 226.533C202.755 226.051 207.092 227.77 206.527 229.293Z" fill="#FFD7D1"/>
<path d="M206.533 229.299C205.938 230.822 178.252 265.271 176.367 265.919C175.742 266.139 171.649 263.302 166.468 259.441C171.756 255.592 191.827 237.514 194.522 232.618C195.938 230.043 193.868 230.06 191.334 230.774C195.498 228.734 199.632 226.759 200.637 226.527C202.779 226.051 207.092 227.77 206.533 229.299Z" fill="#263238"/>
<path d="M177.057 228.615L157.836 254.551L92.9955 209.543L86.7196 205.231C86.7196 205.231 84.935 206.42 82.2819 207.896C78.5818 209.942 73.1566 212.536 68.356 213.249C60.3014 214.439 46.8573 214.314 40.0698 205.236C34.3531 197.598 37.4584 187.628 37.4584 187.628L46.2981 183.815C46.2981 183.815 67.2198 166.385 80.8007 165.862C86.5531 165.63 94.9348 170.026 102.698 174.553C110.461 179.08 177.057 228.615 177.057 228.615Z" fill="#37474F"/>
<path d="M86.7198 205.23C86.7198 205.23 84.9352 206.42 82.2821 207.896C77.5707 202.256 67.5948 192.007 67.2914 191.644L86.7198 205.23Z" fill="#263238"/>
<path d="M53.9664 177.956C52.7172 178.824 51.5037 179.74 50.2723 180.639C49.0409 181.537 47.8036 182.34 46.6495 183.298C45.4955 184.255 44.3652 185.314 43.2588 186.361C42.7293 186.867 42.1999 187.378 41.6823 187.902C41.138 188.406 40.6348 188.953 40.1773 189.538C40.1357 189.591 40.219 189.657 40.2666 189.627C40.8545 189.207 41.4149 188.75 41.9441 188.259C42.539 187.765 43.1338 187.265 43.693 186.772C44.8173 185.814 45.9654 184.886 47.0838 183.928C48.2021 182.97 49.2313 181.935 50.3377 180.954C51.4442 179.972 52.7648 178.955 53.9902 177.979C54.014 177.979 53.9902 177.938 53.9664 177.956Z" fill="#263238"/>
<path d="M172.548 227.687C171.299 229.031 170.168 230.483 168.979 231.905C167.789 233.326 166.653 234.766 165.499 236.2C163.197 239.085 160.871 241.946 158.604 244.861C157.361 246.461 156.129 248.073 154.975 249.733C154.922 249.81 155.041 249.893 155.1 249.828C157.581 247.098 159.859 244.189 162.15 241.315C164.44 238.442 166.748 235.569 169.02 232.624C170.258 231.03 171.537 229.442 172.673 227.77C172.703 227.705 172.59 227.627 172.548 227.687Z" fill="#263238"/>
<path d="M119.313 227.955C116.088 225.409 112.739 223.005 109.396 220.62C106.053 218.234 102.739 215.861 99.3606 213.565C98.3909 212.904 97.4094 212.256 96.4338 211.608C95.4582 210.959 94.441 210.358 93.4892 209.686C93.4297 209.65 93.3821 209.74 93.4357 209.781C94.3161 210.412 95.1429 211.114 96.0055 211.768C96.8681 212.422 97.6473 213.023 98.4742 213.636C100.098 214.826 101.734 216.016 103.37 217.205C106.685 219.585 110.027 221.944 113.394 224.284C115.309 225.593 117.213 226.914 119.17 228.163C119.289 228.222 119.426 228.038 119.313 227.955Z" fill="#263238"/>
<path d="M140.056 201.191C137.082 198.723 133.881 196.498 130.752 194.213C127.623 191.929 124.446 189.568 121.27 187.277C118.093 184.987 114.976 182.721 111.823 180.448C108.772 178.241 105.732 175.999 102.508 174.041C100.723 172.977 98.9384 171.983 97.0765 171.067C95.2732 170.144 93.3945 169.375 91.4609 168.771C91.4475 168.765 91.4324 168.765 91.419 168.771C91.4056 168.777 91.395 168.787 91.3895 168.801C91.384 168.814 91.384 168.829 91.3896 168.842C91.3952 168.856 91.4058 168.866 91.4192 168.872C93.0135 169.758 94.6791 170.502 96.2912 171.359C97.9033 172.215 99.444 173.096 100.985 174.03C104.185 175.975 107.207 178.194 110.241 180.359C116.547 184.892 122.84 189.449 129.194 193.922C132.763 196.42 136.225 199.062 139.901 201.364C140.032 201.459 140.163 201.281 140.056 201.191Z" fill="#263238"/>
<path d="M131.35 138.591C133.008 128.476 126.153 118.932 116.037 117.273C105.922 115.615 96.3774 122.471 94.7191 132.586C93.0608 142.702 99.9167 152.246 110.032 153.904C120.147 155.563 129.692 148.707 131.35 138.591Z" fill="#A851FF"/>
<path d="M123.84 147.57H102.211V129.271L113.025 122.407L123.84 129.271V147.57Z" fill="#A6A6A6"/>
<path d="M122.621 147.385H103.436V123.346H117.683L122.621 128.046V147.385Z" fill="white"/>
<path d="M117.683 123.346L122.621 128.046H117.683V123.346Z" fill="#EBEBEB"/>
<path d="M105.31 128.117H115.976V127.487H105.31V128.117Z" fill="#DBDBDB"/>
<path d="M105.31 129.712H115.976V129.081H105.31V129.712Z" fill="#DBDBDB"/>
<path d="M105.31 131.306H115.976V130.675H105.31V131.306Z" fill="#DBDBDB"/>
<path d="M105.304 132.906H120.938V132.275H105.304V132.906Z" fill="#DBDBDB"/>
<path d="M105.304 134.5H120.938V133.87H105.304V134.5Z" fill="#DBDBDB"/>
<path d="M105.304 136.1H120.938V135.47H105.304V136.1Z" fill="#DBDBDB"/>
<path d="M105.304 137.695H120.938V137.064H105.304V137.695Z" fill="#DBDBDB"/>
<path d="M105.304 139.289H120.938V138.658H105.304V139.289Z" fill="#DBDBDB"/>
<path d="M105.304 140.889H120.938V140.259H105.304V140.889Z" fill="#DBDBDB"/>
<path d="M105.304 142.483H120.938V141.853H105.304V142.483Z" fill="#DBDBDB"/>
<path d="M105.304 144.084H120.938V143.453H105.304V144.084Z" fill="#DBDBDB"/>
<path d="M105.304 145.678H120.938V145.047H105.304V145.678Z" fill="#DBDBDB"/>
<path d="M123.84 133.846V147.564H102.217V133.846C103.145 134.369 104.055 134.923 104.977 135.464C105.899 136.005 106.809 136.559 107.713 137.118C108.729 137.736 109.742 138.363 110.753 138.998L113.025 140.419L115.292 138.998H115.262H115.298L118.332 137.124C119.242 136.564 120.158 136.017 121.074 135.47C121.99 134.923 122.912 134.375 123.84 133.846Z" fill="#EBEBEB"/>
<path d="M123.84 133.846C122.972 134.441 122.056 135.036 121.199 135.631C120.342 136.225 119.414 136.82 118.528 137.415C117.642 138.01 116.66 138.635 115.726 139.235L115.643 139.295L113.15 140.883L113.025 140.955L112.907 140.883L110.42 139.289L110.331 139.235C109.391 138.637 108.455 138.03 107.523 137.415C106.637 136.82 105.738 136.225 104.858 135.631C103.977 135.036 103.073 134.441 102.217 133.846C103.145 134.369 104.055 134.923 104.977 135.464C105.899 136.005 106.809 136.559 107.713 137.118C108.729 137.736 109.742 138.363 110.753 138.998L113.025 140.419L115.292 138.998L118.326 137.124C119.236 136.564 120.152 136.017 121.068 135.47C121.984 134.923 122.912 134.375 123.84 133.846Z" fill="#DBDBDB"/>
<path d="M110.783 138.986L110.444 139.277C109.903 139.735 109.343 140.175 108.778 140.598C108.088 141.127 107.386 141.627 106.678 142.127C105.97 142.626 105.251 143.108 104.519 143.572C103.787 144.036 103.056 144.5 102.288 144.916C102.949 144.322 103.627 143.81 104.317 143.287C105.007 142.763 105.715 142.257 106.417 141.758C107.119 141.258 107.844 140.776 108.576 140.306C109.171 139.931 109.766 139.569 110.361 139.224C110.497 139.14 110.64 139.063 110.783 138.986Z" fill="#DBDBDB"/>
<path d="M123.811 144.934C123.043 144.518 122.306 144.06 121.58 143.59C120.854 143.12 120.134 142.638 119.415 142.144C118.695 141.651 118.005 141.145 117.315 140.616C116.756 140.193 116.196 139.759 115.661 139.301L115.316 139.003H115.286H115.322L115.744 139.247C116.339 139.592 116.934 139.955 117.529 140.33C118.255 140.8 118.974 141.288 119.682 141.781C120.39 142.275 121.098 142.781 121.782 143.31C122.466 143.84 123.133 144.363 123.811 144.934Z" fill="#DBDBDB"/>
<path d="M117.46 132.61C118.04 130.165 116.527 127.712 114.081 127.133C111.636 126.553 109.183 128.066 108.604 130.512C108.025 132.957 109.537 135.41 111.983 135.989C114.429 136.569 116.881 135.056 117.46 132.61Z" fill="#A851FF"/>
<path d="M110.723 131.936C111.373 132.479 111.989 133.061 112.567 133.679L112.151 133.709C112.377 133.311 112.621 132.924 112.871 132.519C113.121 132.115 113.371 131.752 113.638 131.383C114.162 130.627 114.736 129.908 115.357 129.23C114.994 130.076 114.57 130.895 114.09 131.681C113.864 132.073 113.609 132.46 113.365 132.87C113.121 133.281 112.859 133.632 112.585 134.007L112.377 134.298L112.169 134.036C111.642 133.368 111.159 132.667 110.723 131.936Z" fill="white"/>
</svg>
