<svg width="48" height="48" viewBox="0 0 48 48" fill="none" xmlns="http://www.w3.org/2000/svg">
<g clip-path="url(#clip0_1294_11882)">
<path d="M14.588 8.98801C14.054 8.53601 13.86 7.80001 14.102 7.14401C14.342 6.48801 14.966 6.05201 15.666 6.05201H20.668L22.438 1.08601C22.68 0.434014 23.304 0.00201416 24 0.00201416C24.696 0.00201416 25.32 0.434014 25.562 1.08601L27.332 6.05201H32.334C33.034 6.05201 33.66 6.49001 33.9 7.14801C34.14 7.80601 33.944 8.54401 33.408 8.99401L29.466 12.206L31.096 17.174C31.32 17.846 31.092 18.586 30.532 19.018C29.97 19.45 29.198 19.48 28.604 19.094L24.014 16.104L19.5 19.124C19.22 19.312 18.896 19.406 18.572 19.406C18.22 19.406 17.868 19.294 17.572 19.074C17.006 18.65 16.77 17.914 16.982 17.24L18.55 12.214L14.588 8.98801ZM42 6.00001C38.692 6.00001 36 8.69201 36 12V22.368C35.468 22.18 34.916 22.04 34.336 22.008C32.75 21.924 31.202 22.46 29.99 23.546L23.972 29.084C23.806 28.916 23.652 28.74 23.478 28.578L17.99 23.528C16.796 22.46 15.242 21.926 13.664 22.008C13.084 22.04 12.532 22.18 12 22.368V12C12 8.69201 9.308 6.00001 6 6.00001C2.692 6.00001 0 8.69201 0 12V32.202C0 36.476 1.664 40.494 4.686 43.516L8.586 47.416C8.976 47.806 9.488 48.002 10 48.002C10.512 48.002 11.024 47.806 11.414 47.416C12.196 46.634 12.196 45.368 11.414 44.588L7.514 40.688C5.248 38.422 4 35.408 4 32.202V12C4 10.898 4.896 10 6 10C7.104 10 8 10.898 8 12C8 12 7.99 28.152 8 28.232C8.06 29.542 8.57 30.85 9.492 31.946L14.724 37.388C15.49 38.182 16.754 38.21 17.552 37.442C18.346 36.676 18.372 35.41 17.606 34.614L12.464 29.274C11.832 28.52 11.85 27.398 12.508 26.664C12.862 26.268 13.35 26.034 13.882 26.004C14.408 25.968 14.924 26.154 15.302 26.492L20.768 31.524C22.82 33.412 23.998 36.096 23.998 38.884V46.002C23.998 47.106 24.892 48.002 25.998 48.002C27.104 48.002 27.998 47.106 27.998 46.002V38.884C27.998 36.58 27.41 34.334 26.35 32.332L32.676 26.51C33.072 26.154 33.584 25.968 34.116 26.004C34.648 26.034 35.136 26.268 35.49 26.664C35.81 27.02 35.972 27.468 36 27.91V28C36 28 36 28.002 36 28.004C36.006 28.438 35.884 28.858 35.624 29.172L30.558 34.44C29.792 35.236 29.818 36.502 30.612 37.268C31 37.642 31.498 37.826 31.998 37.826C32.524 37.826 33.046 37.62 33.44 37.212L38.596 31.842C39.496 30.77 39.968 29.452 39.998 28.128C40.002 28.082 39.998 11.998 39.998 11.998C39.998 10.896 40.894 9.99801 41.998 9.99801C43.102 9.99801 43.998 10.896 43.998 11.998V32.2C43.998 35.406 42.75 38.418 40.484 40.686L36.584 44.586C35.802 45.366 35.802 46.632 36.584 47.414C36.974 47.804 37.486 48 37.998 48C38.51 48 39.022 47.804 39.412 47.414L43.312 43.514C46.334 40.492 47.998 36.474 47.998 32.2V12C47.998 8.69201 45.308 6.00001 42 6.00001Z" fill="#A851FF"/>
</g>
<defs>
<clipPath id="clip0_1294_11882">
<rect width="48" height="48" fill="white"/>
</clipPath>
</defs>
</svg>
