<svg width="40" height="40" viewBox="0 0 40 40" fill="none" xmlns="http://www.w3.org/2000/svg">
<g id="busqueda-de-miembros 1" clip-path="url(#clip0_1294_11876)">
<path id="Vector" d="M39.5117 37.155L33.6117 31.255C34.485 29.9367 35 28.3617 35 26.6667C35 22.0717 31.2617 18.3333 26.6667 18.3333C22.0717 18.3333 18.3334 22.0717 18.3334 26.6667C18.3334 31.2617 22.0717 35 26.6667 35C28.3617 35 29.9367 34.485 31.255 33.6117L37.155 39.5117C37.48 39.8367 37.9067 40 38.3334 40C38.76 40 39.1867 39.8367 39.5117 39.5117C40.1634 38.86 40.1634 37.8067 39.5117 37.155ZM21.6667 26.6667C21.6667 23.91 23.91 21.6667 26.6667 21.6667C29.4234 21.6667 31.6667 23.91 31.6667 26.6667C31.6667 29.4233 29.4234 31.6667 26.6667 31.6667C23.91 31.6667 21.6667 29.4233 21.6667 26.6667ZM25 10C25 4.485 20.515 0 15 0C9.48502 0 5.00002 4.485 5.00002 10C5.00002 15.515 9.48502 20 15 20C20.515 20 25 15.515 25 10ZM15 16.6667C11.3234 16.6667 8.33335 13.6767 8.33335 10C8.33335 6.32333 11.3234 3.33333 15 3.33333C18.6767 3.33333 21.6667 6.32333 21.6667 10C21.6667 13.6767 18.6767 16.6667 15 16.6667ZM14.9867 24.8967C15.1 25.81 14.4534 26.6417 13.5384 26.7567C7.72002 27.4833 3.33169 32.4583 3.33169 38.3333C3.33169 39.2533 2.58502 40 1.66502 40C0.745019 40 -0.00164795 39.2533 -0.00164795 38.3333C-0.00164795 30.7817 5.64169 24.3833 13.125 23.45C14.0284 23.335 14.87 23.9833 14.985 24.8983L14.9867 24.8967Z" fill="#A851FF"/>
</g>
<defs>
<clipPath id="clip0_1294_11876">
<rect width="40" height="40" fill="white"/>
</clipPath>
</defs>
</svg>
