<svg width="310" height="300" viewBox="0 0 310 300" fill="none" xmlns="http://www.w3.org/2000/svg">
<path d="M212.901 24.8121C214.575 14.4561 207.536 4.70415 197.18 3.03046C186.824 1.35677 177.072 8.39514 175.399 18.7511C173.725 29.107 180.763 38.859 191.119 40.5327C201.475 42.2064 211.227 35.168 212.901 24.8121Z" fill="#4D4D4D"/>
<path d="M212.987 25.8896C214.599 16.0383 207.919 6.74589 198.068 5.13444C188.216 3.52299 178.924 10.2027 177.312 20.054C175.701 29.9053 182.381 39.1977 192.232 40.8091C202.083 42.4206 211.376 35.7409 212.987 25.8896Z" fill="#DBDBDB"/>
<path d="M202.599 38.3271C211.296 34.7737 215.465 24.8433 211.912 16.1469C208.358 7.45048 198.428 3.28122 189.731 6.8346C181.035 10.388 176.866 20.3184 180.419 29.0148C183.973 37.7112 193.903 41.8805 202.599 38.3271Z" fill="white"/>
<path d="M195.376 7.26672H194.943V9.83661H195.376V7.26672Z" fill="#4D4D4D"/>
<path d="M187.502 9.28355L187.127 9.5L188.412 11.7258L188.787 11.5094L187.502 9.28355Z" fill="#4D4D4D"/>
<path d="M181.878 14.1319L181.661 14.5087L183.897 15.7936L184.113 15.4169L181.878 14.1319Z" fill="#4D4D4D"/>
<path d="M182.029 22.7571H179.459V23.1901H182.029V22.7571Z" fill="#4D4D4D"/>
<path d="M183.684 29.3629L181.459 30.6483L181.675 31.0232L183.901 29.7379L183.684 29.3629Z" fill="#4D4D4D"/>
<path d="M188.406 34.2338L187.123 36.4601L187.498 36.6764L188.782 34.4502L188.406 34.2338Z" fill="#4D4D4D"/>
<path d="M195.376 36.1106H194.943V38.6805H195.376V36.1106Z" fill="#4D4D4D"/>
<path d="M201.922 34.2595L201.547 34.476L202.832 36.7016L203.207 36.4851L201.922 34.2595Z" fill="#4D4D4D"/>
<path d="M206.638 29.3548L206.421 29.7298L208.641 31.0112L208.857 30.6362L206.638 29.3548Z" fill="#4D4D4D"/>
<path d="M210.866 22.7571H208.296V23.1901H210.866V22.7571Z" fill="#4D4D4D"/>
<path d="M208.644 14.9298L206.425 16.2112L206.641 16.5863L208.861 15.3049L208.644 14.9298Z" fill="#4D4D4D"/>
<path d="M202.839 9.27441L201.555 11.5007L201.93 11.717L203.214 9.49074L202.839 9.27441Z" fill="#4D4D4D"/>
<path d="M197.668 17.5398L190.24 32.1439L190.626 32.3403L198.054 17.7361L197.668 17.5398Z" fill="#4D4D4D"/>
<path d="M194.294 17.152L193.73 17.2649L196.897 33.0873L197.461 32.9745L194.294 17.152Z" fill="#DBDBDB"/>
<path d="M139.527 145.175H17.6486V4.42712H139.527V145.175ZM20.4811 142.335H136.687V7.26678H20.4882L20.4811 142.335Z" fill="#4D4D4D"/>
<path d="M78.9 8.01215H76.0603V143.755H78.9V8.01215Z" fill="#4D4D4D"/>
<path d="M142.111 10.1703H15.0715V14.1245H142.111V10.1703Z" fill="#4D4D4D"/>
<path d="M142.111 14.6215H15.0715V18.5757H142.111V14.6215Z" fill="#4D4D4D"/>
<path d="M142.111 19.0656H15.0715V23.0198H142.111V19.0656Z" fill="#4D4D4D"/>
<path d="M142.111 23.5167H15.0715V27.4709H142.111V23.5167Z" fill="#4D4D4D"/>
<path d="M142.111 27.9678H15.0715V31.9221H142.111V27.9678Z" fill="#4D4D4D"/>
<path d="M142.111 32.4119H15.0715V36.3661H142.111V32.4119Z" fill="#4D4D4D"/>
<path d="M142.111 36.863H15.0715V40.8173H142.111V36.863Z" fill="#4D4D4D"/>
<path d="M142.111 41.3142H15.0715V45.2684H142.111V41.3142Z" fill="#4D4D4D"/>
<path d="M142.111 45.7583H15.0715V49.7125H142.111V45.7583Z" fill="#4D4D4D"/>
<path d="M133.677 9.3681H132.967V100.514H133.677V9.3681Z" fill="#263238"/>
<path d="M134.579 103.822H132.058L132.69 100.202H133.947L134.579 103.822Z" fill="#263238"/>
<path d="M136.233 9.3681H135.523V141.221H136.233V9.3681Z" fill="#263238"/>
<path d="M137.134 143.883H134.621L135.246 140.262H136.509L137.134 143.883Z" fill="#263238"/>
<path d="M146.512 3.87335H10.663V12.1439H146.512V3.87335Z" fill="#4D4D4D"/>
<path d="M257.6 83.0856H237.467V84.91H257.6V83.0856Z" fill="black"/>
<path d="M268.774 105.98H237.467V107.805H268.774V105.98Z" fill="black"/>
<path d="M268.774 117.531H237.467V119.355H268.774V117.531Z" fill="black"/>
<path d="M289.986 125.155C293.189 125.155 295.786 122.558 295.786 119.355C295.786 116.152 293.189 113.555 289.986 113.555C286.783 113.555 284.186 116.152 284.186 119.355C284.186 122.558 286.783 125.155 289.986 125.155Z" fill="#4D4D4D"/>
<path d="M160.817 224.202H301.458L304.383 166.501H157.892L160.817 224.202Z" fill="#4D4D4D"/>
<path d="M294.792 192.916H235.99L234.89 172.883H296.077L294.792 192.916ZM236.664 192.207H294.125L295.317 173.593H235.642L236.664 192.207Z" fill="#DBDBDB"/>
<path d="M293.706 215.96H238.297L237.395 197.879H294.835L293.706 215.96ZM238.971 215.25H293.038L294.082 198.589H238.141L238.971 215.25Z" fill="#DBDBDB"/>
<path d="M271.053 185.058H261.171L260.553 180.223H271.677L271.053 185.058ZM261.824 184.348H270.456L270.896 180.933H261.384L261.824 184.348Z" fill="#DBDBDB"/>
<path d="M271.053 209.337H261.171L260.553 204.502H271.677L271.053 209.337ZM261.824 208.627H270.456L270.896 205.212H261.384L261.824 208.627Z" fill="#DBDBDB"/>
<path d="M225.632 192.916H166.83L165.73 172.883H226.917L225.632 192.916ZM167.504 192.207H224.965L226.136 173.593H166.503L167.504 192.207Z" fill="#DBDBDB"/>
<path d="M224.546 215.96H169.137L168.236 197.879H225.675L224.546 215.96ZM169.812 215.25H223.879L224.922 198.589H168.981L169.812 215.25Z" fill="#DBDBDB"/>
<path d="M201.893 185.058H192.011L191.393 180.223H202.517L201.893 185.058ZM192.664 184.348H201.289L201.729 180.933H192.217L192.664 184.348Z" fill="#DBDBDB"/>
<path d="M201.893 209.337H192.011L191.393 204.502H202.517L201.893 209.337ZM192.664 208.627H201.289L201.729 205.212H192.217L192.664 208.627Z" fill="#DBDBDB"/>
<path d="M173.432 224.202L172.545 230.492L170.77 243.122H167.299V224.202H173.432Z" fill="#4D4D4D"/>
<path d="M173.432 224.202L172.545 230.492H167.299V224.202H173.432Z" fill="black"/>
<path d="M288.843 224.202L289.723 230.492L291.505 243.122H294.977V224.202H288.843Z" fill="#4D4D4D"/>
<path d="M288.843 224.202L289.723 230.492H294.977V224.202H288.843Z" fill="black"/>
<path d="M155.855 300C226.601 300 283.952 292.528 283.952 283.31C283.952 274.092 226.601 266.62 155.855 266.62C85.1087 266.62 27.7577 274.092 27.7577 283.31C27.7577 292.528 85.1087 300 155.855 300Z" fill="#B39F9C"/>
<path d="M38.3496 265.044C59.5295 265.044 76.6992 260.931 76.6992 255.858C76.6992 250.784 59.5295 246.671 38.3496 246.671C17.1697 246.671 0 250.784 0 255.858C0 260.931 17.1697 265.044 38.3496 265.044Z" fill="#B39F9C"/>
<path d="M2.08716 243.122L40.529 242.951L78.9709 242.887L155.855 242.774L232.738 242.887L271.18 242.951L309.622 243.122L271.18 243.299L232.738 243.363L155.855 243.477L78.9709 243.363L40.529 243.299L2.08716 243.122Z" fill="#263238"/>
<path d="M39.4786 120.179C39.4786 120.179 20.389 117.509 24.8472 94.4584C24.8472 94.4584 46.1802 99.2503 39.4786 120.179Z" fill="#496445"/>
<path opacity="0.1" d="M39.4786 120.179C39.4786 120.179 20.389 117.509 24.8472 94.4584C24.8472 94.4584 46.1802 99.2503 39.4786 120.179Z" fill="black"/>
<path d="M38.5131 115.365C38.1402 114.2 37.7065 113.056 37.214 111.936C37.214 111.787 37.214 111.638 37.1643 111.496C37.1643 111.177 37.1075 110.864 37.0862 110.545C37.0294 109.835 36.9868 109.168 36.9442 108.479C36.8661 107.102 36.7809 105.725 36.7596 104.347C36.7596 104.269 36.6389 104.276 36.6389 104.347C36.6389 105.732 36.6389 107.109 36.6389 108.486C36.6389 109.196 36.7099 109.863 36.7525 110.552C36.7525 110.708 36.7525 110.857 36.7525 111.014C35.6796 108.718 34.3962 106.527 32.919 104.468C32.2965 103.551 31.6259 102.667 30.9099 101.82C30.1503 100.947 29.3481 100.116 28.5743 99.2574C28.5246 99.2006 28.4465 99.2574 28.4962 99.3425C29.867 100.859 31.0978 102.496 32.1736 104.234C32.7557 105.107 33.3023 106.009 33.8277 106.924L33.6502 106.861L32.9403 106.584L31.3785 105.994C30.3562 105.611 29.3339 105.242 28.3116 104.851C28.2477 104.851 28.2051 104.937 28.269 104.958C29.2842 105.363 30.2852 105.789 31.2933 106.222L32.7699 106.861L33.5153 107.166C33.6752 107.246 33.8445 107.306 34.0193 107.343C34.4027 108.053 34.786 108.728 35.141 109.438C36.0264 111.223 36.8039 113.061 37.4695 114.939C37.5192 115.067 37.5618 115.202 37.6115 115.337C37.1073 115.047 36.583 114.793 36.0426 114.577L34.069 113.683C32.7273 113.065 31.3998 112.44 30.1148 111.716C30.1016 111.709 30.086 111.707 30.0714 111.711C30.0567 111.715 30.0442 111.724 30.0367 111.738C30.0292 111.751 30.0272 111.766 30.0312 111.781C30.0352 111.796 30.0448 111.808 30.058 111.816C31.3714 112.526 32.6563 113.299 33.9696 114.009C34.6299 114.364 35.2901 114.719 35.9645 115.039C36.5195 115.369 37.1233 115.608 37.7535 115.749C38.394 117.496 38.8161 119.315 39.01 121.165C39.223 123.771 39.2017 126.397 39.2656 129.01H39.3295C39.5212 126.639 39.6277 124.246 39.6419 121.868C39.614 119.654 39.2329 117.459 38.5131 115.365Z" fill="#263238"/>
<path d="M35.5741 101.813C35.3898 103.161 35.3256 104.522 35.3824 105.881C35.3824 105.916 35.4392 105.916 35.4392 105.881C35.5173 104.532 35.5315 103.183 35.6877 101.841C35.6948 101.77 35.5812 101.742 35.5741 101.813Z" fill="#263238"/>
<path d="M30.1148 102.97C29.2613 102.643 28.4392 102.239 27.6585 101.763C27.5946 101.721 27.5378 101.827 27.6017 101.863C28.3666 102.379 29.204 102.779 30.0864 103.048C30.129 103.062 30.2 102.991 30.1148 102.97Z" fill="#263238"/>
<path d="M40.0891 156.768C40.0891 154.638 40.0323 152.551 40.011 150.442C39.9684 143.435 39.9116 136.429 39.7838 129.422C39.6844 123.856 39.5543 118.295 39.3934 112.739C39.3929 112.724 39.3887 112.71 39.3813 112.698C39.3738 112.685 39.3633 112.675 39.3508 112.668C39.3508 111.148 39.3508 109.629 39.3508 108.11C39.3508 108.067 39.3082 108.053 39.2585 108.053C39.2088 108.053 39.1662 108.053 39.1733 108.11C39.1733 109.634 39.1733 111.156 39.1733 112.675C39.1733 112.675 39.1236 112.71 39.1236 112.739C38.8468 122.677 38.5983 132.538 38.5344 142.441C38.5344 144.458 38.5344 146.467 38.5344 148.483C38.4634 154.934 38.4374 161.389 38.4563 167.849C38.4563 168.872 38.4563 169.901 38.4563 170.93C38.4563 176.837 38.5202 182.743 38.5202 188.678C38.5202 188.991 38.8751 189.154 39.2301 189.168C39.5851 189.182 40.1175 189.012 40.1175 188.65C40.1175 182.14 40.1601 175.623 40.1601 169.113C40.1388 164.981 40.1388 160.871 40.0891 156.768Z" fill="#263238"/>
<path d="M32.1168 150.357C32.1168 150.357 22.9305 143.556 14.2198 148.142C5.50919 152.728 4.13196 170.462 4.13196 170.462C4.13196 170.462 16.9104 172.293 24.9893 164.619C32.7557 157.236 32.1168 150.357 32.1168 150.357Z" fill="#496445"/>
<path d="M34.6157 150.776C32.9291 150.104 31.1023 149.86 29.2984 150.066C28.9279 150 28.553 149.962 28.1768 149.952L26.8776 149.853L24.2013 149.668C22.391 149.534 20.5736 149.42 18.7633 149.235C18.7508 149.24 18.7399 149.248 18.7322 149.259C18.7245 149.269 18.7204 149.282 18.7204 149.296C18.7204 149.309 18.7245 149.322 18.7322 149.333C18.7399 149.344 18.7508 149.352 18.7633 149.356C20.5523 149.583 22.3129 149.839 24.1232 150.016C25.0461 150.109 25.9689 150.208 26.8989 150.272L27.5662 150.336C27.2965 150.4 27.0196 150.464 26.7498 150.542C25.309 150.961 23.915 151.527 22.5897 152.231C21.8798 152.359 21.1699 152.565 20.46 152.728C19.3241 152.998 18.1954 153.289 17.0666 153.587C14.8375 154.169 12.6296 154.829 10.4147 155.475C10.3437 155.475 10.3792 155.603 10.4147 155.582C12.6225 155.042 14.8517 154.546 17.0666 154.02L20.2896 153.246L21.1344 153.048C18.6704 154.58 16.4678 156.498 14.6103 158.727C12.8227 160.927 11.3023 163.332 10.0811 165.89C10.0811 165.954 10.1378 166.018 10.1804 165.954C11.6922 163.339 13.5368 160.931 15.6681 158.791C15.6255 158.911 15.59 159.039 15.5474 159.16L15.0363 160.779C14.6955 161.865 14.3263 162.944 14.0282 164.03C14.0282 164.101 14.1205 164.122 14.1418 164.03C14.5322 162.979 14.9014 161.9 15.2705 160.871C15.448 160.353 15.6326 159.841 15.8101 159.323C15.9095 159.053 16.0017 158.784 16.0869 158.514C16.0869 158.436 16.1508 158.351 16.1792 158.265C17.2027 157.272 18.2887 156.345 19.4306 155.49C20.9469 154.38 22.5829 153.444 24.3077 152.7C24.3077 152.856 24.2509 153.019 24.2155 153.168C24.1232 153.587 24.0309 154.006 23.9457 154.425C23.7682 155.291 23.5978 156.164 23.4274 157.037C23.0796 158.812 22.8666 160.587 22.533 162.39C22.533 162.468 22.6323 162.497 22.6465 162.39C23.0583 160.601 23.5907 158.84 23.9883 157.051C24.1871 156.157 24.3858 155.263 24.5775 154.368L24.8331 153.104C24.8757 152.87 24.9325 152.636 24.9609 152.394L25.4578 152.189C27.8644 151.294 30.5266 150.648 33.0965 151.145C34.3121 151.37 35.4531 151.892 36.418 152.665C37.3829 153.438 38.1416 154.438 38.6267 155.575C38.7119 155.774 39.0243 155.646 38.9746 155.44C38.4776 153.268 36.639 151.628 34.6157 150.776Z" fill="#263238"/>
<path d="M20.5595 158.343C20.3039 159.508 20.0412 160.672 19.7857 161.836C19.4956 162.952 19.2821 164.085 19.1467 165.23C19.1467 165.279 19.2035 165.279 19.2177 165.23C19.5558 164.111 19.8167 162.97 19.9986 161.815C20.2258 160.665 20.453 159.515 20.673 158.365C20.6872 158.301 20.5737 158.272 20.5595 158.343Z" fill="#263238"/>
<path d="M11.6784 161.304C10.507 161.893 9.37827 162.568 8.12882 163.057C8.12183 163.06 8.11546 163.064 8.11007 163.07C8.10468 163.075 8.10038 163.081 8.09741 163.088C8.09444 163.095 8.09287 163.102 8.09278 163.11C8.09269 163.117 8.09408 163.125 8.09688 163.132C8.09967 163.139 8.10382 163.145 8.10908 163.151C8.11434 163.156 8.12061 163.16 8.12753 163.163C8.13445 163.166 8.14189 163.168 8.14942 163.168C8.15695 163.168 8.16442 163.167 8.17142 163.164C9.39347 162.623 10.5855 162.016 11.7423 161.347C11.7423 161.347 11.7423 161.29 11.6784 161.304Z" fill="#263238"/>
<path d="M34.1826 137.862C34.1826 137.862 22.9588 138.572 17.7339 131.182C12.5089 123.792 13.6874 113.207 13.6874 113.207C13.6874 113.207 25.479 114.627 30.1574 119.958C34.8357 125.29 34.1826 137.862 34.1826 137.862Z" fill="#496445"/>
<path d="M39.429 148.937C39.0385 147.737 38.5558 146.552 38.1014 145.388C37.6471 144.223 37.1998 143.13 36.6816 142.023C35.682 139.761 34.5611 137.554 33.3237 135.413C32.5286 134.05 31.6767 132.723 30.8035 131.416C30.8035 131.218 30.7467 131.019 30.7183 130.82C30.6686 130.472 30.6189 130.11 30.5621 129.777C30.4486 129.067 30.3279 128.357 30.2072 127.647C29.9516 126.092 29.6322 124.552 29.3837 123.004C29.3837 122.933 29.2559 122.933 29.2701 123.004C29.4902 124.537 29.6463 126.078 29.8593 127.611C29.9658 128.364 30.0652 129.116 30.1788 129.869L30.3066 130.685C28.5947 128.18 26.7412 125.774 24.755 123.48L23.9812 122.585C23.9812 122.5 23.9102 122.415 23.8747 122.33C23.7896 122.117 23.7115 121.904 23.6334 121.684C23.463 121.243 23.3068 120.796 23.1435 120.349C22.8312 119.469 22.5472 118.581 22.3058 117.68C22.3058 117.609 22.1781 117.644 22.1993 117.68C22.4265 118.603 22.6608 119.518 22.9093 120.427C23.0441 120.867 23.1861 121.3 23.3423 121.733C23.3423 121.804 23.392 121.875 23.4204 121.946C22.0006 120.384 20.4885 118.879 18.9763 117.389C18.9266 117.339 18.8486 117.389 18.8982 117.474C21.7984 120.508 24.4568 123.765 26.8493 127.214C26.577 127.128 26.2996 127.059 26.0187 127.008C25.1526 126.838 24.2865 126.717 23.4133 126.603C21.5817 126.369 19.7572 126.142 17.9399 125.851C17.8618 125.851 17.8334 125.95 17.9399 125.964C19.6792 126.305 21.3971 126.674 23.1293 127.1C23.9457 127.285 24.7621 127.441 25.5785 127.604C26.2482 127.747 26.9075 127.934 27.5521 128.165C27.7296 128.428 27.9213 128.683 28.0987 128.946C28.9222 130.139 29.7102 131.367 30.4841 132.595L29.3411 132.375C28.475 132.204 27.6018 132.048 26.7357 131.906C25.0248 131.622 23.3068 131.324 21.6172 130.941C21.5462 130.941 21.5178 131.04 21.6172 131.054C23.3352 131.459 25.0319 131.928 26.7357 132.382C27.5592 132.602 28.3898 132.801 29.2204 132.985L30.4628 133.255C30.6302 133.299 30.8013 133.328 30.9739 133.34C32.6138 135.995 34.1472 138.721 35.5741 141.497C36.1989 142.718 36.8023 143.954 37.3844 145.189C37.9666 146.424 38.499 147.766 39.0527 149.058C39.1308 149.328 39.5355 149.221 39.429 148.937Z" fill="#263238"/>
<path d="M27.9567 123.146C27.7437 122.074 27.5165 121.016 27.2468 119.937C27.2468 119.866 27.119 119.902 27.1332 119.937C27.3462 120.988 27.552 122.067 27.7437 123.096C27.9003 124.155 28.1112 125.204 28.3755 126.241C28.3086 125.201 28.1686 124.167 27.9567 123.146Z" fill="#263238"/>
<path d="M21.4113 122.834C20.8931 122.571 20.3393 122.365 19.7998 122.124L18.9479 121.79L18.5149 121.62C18.349 121.566 18.1895 121.495 18.0392 121.407C17.954 121.35 17.9043 121.492 17.9895 121.506C18.156 121.551 18.3159 121.618 18.4652 121.705L18.8911 121.896L19.7146 122.259C20.2526 122.511 20.8049 122.731 21.3687 122.919C21.4326 122.968 21.4752 122.862 21.4113 122.834Z" fill="#263238"/>
<path d="M45.6691 129.038C45.6691 129.038 52.463 116.352 62.7922 114.386C73.1215 112.419 79.4539 123.054 79.4539 123.054C79.4539 123.054 71.9146 132.68 62.4159 134.363C52.9173 136.045 45.6691 129.038 45.6691 129.038Z" fill="#496445"/>
<path d="M69.721 120.072C67.0283 119.707 64.2966 119.741 61.6137 120.171L62.0752 119.923L64.3682 118.745C65.9437 117.873 67.562 117.082 69.2169 116.373C69.295 116.338 69.2169 116.231 69.1743 116.267C67.5557 117.019 65.8803 117.687 64.2617 118.397C63.4453 118.766 62.6502 119.156 61.8622 119.575C61.3511 119.845 60.7902 120.1 60.2862 120.427C58.0164 120.882 55.8111 121.614 53.7195 122.606L55.0115 121.187C55.9699 120.129 56.9212 119.021 57.979 118.063C58.0358 118.013 57.979 117.935 57.8938 117.985C56.8147 118.965 55.6718 119.873 54.6211 120.896C54.117 121.392 53.6272 121.904 53.1516 122.436C52.9173 122.699 52.6759 122.969 52.4416 123.252C48.8928 125.152 45.8094 127.816 43.4132 131.05C41.0171 134.285 39.3678 138.01 38.5841 141.959C38.5841 142.03 38.6764 142.065 38.6977 141.994C40.153 137.158 42.7595 132.746 46.2938 129.138C50.1027 125.27 54.8935 122.514 60.1513 121.165C63.2702 120.371 66.4958 120.078 69.7068 120.299C69.7369 120.301 69.7665 120.291 69.7892 120.271C69.8118 120.251 69.8256 120.223 69.8275 120.193C69.8293 120.163 69.8192 120.133 69.7992 120.11C69.7792 120.088 69.7511 120.074 69.721 120.072Z" fill="#263238"/>
<path opacity="0.1" d="M79.4539 123.054C79.4539 123.054 71.9146 132.68 62.4159 134.363C55.1819 135.64 49.2328 131.871 46.7978 130.011L46.2725 129.152C46.2725 129.152 51.1638 125.034 60.4211 122.656C69.6783 120.278 79.4539 123.054 79.4539 123.054Z" fill="black"/>
<path d="M63.7151 115.55C62.9242 116.012 62.1588 116.517 61.4221 117.062C60.7042 117.61 60.0366 118.22 59.4272 118.887C59.4193 118.899 59.4161 118.914 59.418 118.929C59.42 118.944 59.4271 118.957 59.438 118.967C59.449 118.978 59.4631 118.983 59.478 118.984C59.4929 118.985 59.5076 118.981 59.5195 118.972C60.2295 118.375 60.8897 117.779 61.6067 117.218C62.2972 116.65 63.0228 116.126 63.779 115.649C63.7855 115.645 63.7912 115.64 63.7956 115.633C63.8 115.627 63.8032 115.62 63.8048 115.612C63.8065 115.605 63.8066 115.597 63.8052 115.589C63.8038 115.581 63.801 115.574 63.7968 115.568C63.7926 115.561 63.7871 115.555 63.7808 115.551C63.7744 115.547 63.7672 115.544 63.7596 115.542C63.752 115.54 63.7442 115.54 63.7366 115.541C63.7289 115.543 63.7217 115.546 63.7151 115.55Z" fill="#263238"/>
<path d="M69.3873 117.694C69.0039 117.857 68.6135 117.992 68.2301 118.155L67.0801 118.631C67.002 118.631 67.0375 118.801 67.1227 118.766L68.2727 118.297C68.6632 118.141 69.0394 117.964 69.4228 117.807C69.4938 117.779 69.4583 117.665 69.3873 117.694Z" fill="#263238"/>
<path d="M44.3131 145.004C44.3131 145.004 46.1305 157.591 55.5937 161.993C65.0568 166.394 76.5929 161.993 76.5929 161.993C76.5929 161.993 72.085 134.767 44.3131 145.004Z" fill="#496445"/>
<path d="M70.0688 153.821C69.2027 153.722 68.3295 153.573 67.4705 153.417L66.1926 153.175L65.5324 153.04C65.2768 152.806 65.0284 152.565 64.7657 152.331C62.9684 150.756 61.0291 149.352 58.9728 148.135C57.8547 147.472 56.6978 146.877 55.5084 146.353H55.6859L58.8024 146.488C60.8754 146.587 62.9554 146.63 65.0284 146.765C65.1065 146.765 65.0994 146.658 65.0284 146.651C62.9412 146.509 60.8683 146.282 58.7882 146.105L55.764 145.835L54.2022 145.7L53.8046 145.657C53.2651 145.452 52.7256 145.26 52.1718 145.089C49.5924 144.204 46.8178 144.052 44.1569 144.649C41.7787 145.26 39.4005 146.822 38.7828 149.328C38.7828 149.413 38.8964 149.477 38.9319 149.392C39.8193 147.262 42.1478 146.232 44.2492 145.799C45.6542 145.533 47.0941 145.504 48.5087 145.714C48.6041 146.362 48.7634 147 48.9843 147.617C49.247 148.504 49.5025 149.392 49.7723 150.272C50.3119 152.04 50.9011 153.821 51.4264 155.561C51.4264 155.576 51.4324 155.59 51.4431 155.601C51.4537 155.611 51.4682 155.617 51.4832 155.617C51.4983 155.617 51.5127 155.611 51.5234 155.601C51.534 155.59 51.54 155.576 51.54 155.561C51.0999 153.793 50.7236 152.011 50.2977 150.236C50.0918 149.37 49.8717 148.504 49.6587 147.638C49.535 147.033 49.3762 146.436 49.1831 145.849C50.0122 145.994 50.8323 146.186 51.6394 146.424C53.0912 146.859 54.5139 147.385 55.8989 148C56.0338 148.895 56.2396 149.782 56.4455 150.669C56.7011 151.777 56.9922 152.877 57.34 153.963C57.344 153.974 57.3513 153.984 57.3608 153.99C57.3703 153.997 57.3817 154 57.3932 154C57.4048 154 57.4162 153.997 57.4257 153.99C57.4352 153.984 57.4425 153.974 57.4465 153.963L57.4039 153.758C57.1909 152.728 56.9638 151.699 56.7437 150.669C56.5733 149.839 56.41 149.008 56.2325 148.185C57.4112 148.708 58.5628 149.291 59.6827 149.931C59.6827 150.187 59.7679 150.449 59.8034 150.684C59.8744 151.11 59.9525 151.543 60.0306 151.976C60.2081 152.941 60.3997 153.914 60.634 154.872C61.0623 156.728 61.6052 158.556 62.2597 160.346C62.2517 160.356 62.2473 160.368 62.2473 160.381C62.2473 160.394 62.2517 160.406 62.2597 160.417L62.3165 160.48C62.3591 160.53 62.423 160.48 62.4088 160.424C61.9757 158.557 61.4717 156.704 61.06 154.837C60.8612 153.899 60.6553 152.962 60.4636 151.997C60.3713 151.528 60.2862 151.06 60.1939 150.577L60.13 150.158C61.4046 150.905 62.6348 151.725 63.8144 152.615C65.8572 154.144 67.7473 155.868 69.4583 157.761C69.5221 157.84 69.657 157.761 69.5931 157.648C68.8906 156.694 68.1395 155.777 67.3427 154.9C66.8671 154.389 66.3701 153.892 65.8661 153.41H66.0223C66.4695 153.488 66.9097 153.552 67.3569 153.608C68.2301 153.729 69.1104 153.814 69.9907 153.914C70.1185 153.928 70.1469 153.821 70.0688 153.821Z" fill="#263238"/>
<path d="M63.424 158.081C63.424 157.974 63.424 157.861 63.3672 157.754C63.3104 157.648 63.2749 157.484 63.2536 157.342C63.0619 156.498 62.8986 155.653 62.7425 154.801C62.7425 154.744 62.6431 154.758 62.6431 154.801C62.7007 155.928 62.9405 157.038 63.353 158.088C63.353 158.123 63.4311 158.088 63.424 158.088V158.081Z" fill="#263238"/>
<path d="M55.5014 157.875C55.5014 157.875 55.5014 157.818 55.4446 157.818C55.1748 156.704 54.9192 155.589 54.6921 154.467C54.5714 153.878 54.4507 153.289 54.3371 152.7C54.2732 152.38 54.2164 152.061 54.1596 151.741C54.1349 151.46 54.0654 151.184 53.9538 150.925C53.9497 150.914 53.9425 150.905 53.9329 150.898C53.9234 150.892 53.9121 150.888 53.9005 150.888C53.8889 150.888 53.8776 150.892 53.8681 150.898C53.8586 150.905 53.8513 150.914 53.8473 150.925C53.8398 151.497 53.9212 152.067 54.0886 152.615C54.2022 153.225 54.3229 153.843 54.4578 154.453C54.7347 155.696 55.0399 156.931 55.3949 158.152C55.3992 158.164 55.4074 158.175 55.4182 158.183C55.429 158.191 55.442 158.195 55.4552 158.195C55.4685 158.195 55.4814 158.191 55.4922 158.183C55.5031 158.175 55.5112 158.164 55.5156 158.152L55.5014 157.875Z" fill="#263238"/>
<path d="M69.2454 150.18C67.5132 149.945 65.7881 149.697 64.0559 149.47C63.9849 149.47 63.9565 149.576 64.0559 149.583C65.781 149.839 67.5132 150.052 69.2454 150.293C69.2454 150.307 69.2809 150.194 69.2454 150.18Z" fill="#263238"/>
<path d="M39.4644 115.486C39.4644 115.486 33.6715 90.0852 60.9677 79.7986C60.9677 79.7986 68.5354 113.243 39.4644 115.486Z" fill="#496445"/>
<path d="M45.3568 101.082L45.6478 100.904L47.1954 100.038L50.3617 98.2706C52.4417 97.0992 54.5005 95.8924 56.5947 94.721C56.6657 94.721 56.5947 94.5861 56.5379 94.6216C54.4082 95.7646 52.2784 96.8366 50.1842 97.9511L47.0535 99.6052L45.7756 100.315C46.6843 98.59 47.6569 96.9005 48.7289 95.2676C50.1487 93.0882 51.7176 91.0082 53.3433 88.992C53.3602 88.9741 53.3694 88.9502 53.3687 88.9256C53.3681 88.901 53.3576 88.8776 53.3398 88.8607C53.3219 88.8437 53.298 88.8346 53.2733 88.8352C53.2487 88.8359 53.2254 88.8463 53.2084 88.8642C50.8115 91.1899 48.6935 93.7867 46.8973 96.6023C46.8973 96.51 46.8973 96.4177 46.8973 96.3325C46.8973 95.7007 46.947 95.0689 46.9541 94.437C46.9541 93.1947 46.9115 91.9523 46.9541 90.7171C46.9541 90.639 46.8405 90.6461 46.8334 90.7171C46.7837 91.9381 46.6346 93.1592 46.5636 94.3803C46.5636 94.9837 46.5068 95.5942 46.4855 96.2047C46.4855 96.5313 46.4855 96.9146 46.4855 97.2696C45.9271 98.1641 45.3899 99.0704 44.874 99.9886C43.9592 101.645 43.1437 103.354 42.4319 105.107C42.4319 104.475 42.368 103.843 42.3325 103.212C42.2473 101.792 42.0841 100.436 42.0202 99.0444C42.0202 99.0293 42.0142 99.0149 42.0035 99.0042C41.9929 98.9936 41.9784 98.9876 41.9634 98.9876C41.9483 98.9876 41.9339 98.9936 41.9232 99.0042C41.9126 99.0149 41.9066 99.0293 41.9066 99.0444C41.9066 100.464 41.9066 101.827 41.9066 103.219C41.9066 103.929 41.9492 104.639 41.9918 105.306C41.9918 105.561 41.9918 105.824 42.0415 106.08C41.1736 108.351 40.4852 110.686 39.9827 113.065C39.5092 115.604 39.1704 118.165 38.9675 120.739C39.2427 118.424 39.7177 116.136 40.3874 113.903C40.721 112.703 41.0973 111.51 41.4664 110.353C42.6023 109.821 43.6885 109.154 44.7817 108.543L48.2106 106.669C50.4894 105.419 52.7612 104.149 55.111 103.048C55.1749 103.048 55.111 102.913 55.0471 102.949C52.6689 104.021 50.2694 105.079 47.9479 106.222C46.7837 106.811 45.6407 107.436 44.5049 108.075C43.5607 108.607 42.581 109.139 41.6652 109.757C41.9279 108.962 42.2047 108.174 42.51 107.4C43.3477 105.246 44.2979 103.137 45.3568 101.082Z" fill="#263238"/>
<path d="M43.0566 95.2676C43.0522 95.2551 43.0441 95.2442 43.0333 95.2365C43.0225 95.2289 43.0095 95.2247 42.9963 95.2247C42.983 95.2247 42.97 95.2289 42.9592 95.2365C42.9484 95.2442 42.9403 95.2551 42.9359 95.2676C43.0353 96.6875 43.085 98.1641 43.2412 99.6123C43.2412 99.6292 43.2479 99.6455 43.2599 99.6575C43.2719 99.6695 43.2881 99.6762 43.3051 99.6762C43.322 99.6762 43.3383 99.6695 43.3502 99.6575C43.3622 99.6455 43.369 99.6292 43.369 99.6123C43.3193 98.1641 43.1631 96.723 43.0566 95.2676Z" fill="#263238"/>
<path d="M56.1403 100.123C54.4365 100.833 52.7114 101.465 51.0076 102.175C50.965 102.175 51.0076 102.274 51.0076 102.253C52.7327 101.607 54.4294 100.904 56.1474 100.237C56.2468 100.209 56.2113 100.095 56.1403 100.123Z" fill="#263238"/>
<path d="M58.7386 88.4027C57.0675 89.1695 55.4457 90.0397 53.8828 91.0081C53.8715 91.0206 53.8646 91.0364 53.863 91.0532C53.8614 91.07 53.8654 91.0868 53.8741 91.1012C53.8829 91.1155 53.8961 91.1267 53.9117 91.133C53.9274 91.1392 53.9446 91.1402 53.9609 91.1359C55.544 90.2059 57.1555 89.3185 58.7954 88.5021C58.8664 88.5092 58.8025 88.3743 58.7386 88.4027Z" fill="#263238"/>
<path d="M58.3197 170.426H18.955V211.921H58.3197V170.426Z" fill="#455A64"/>
<path d="M18.2664 185.114H16.2502V256.191H18.2664V185.114Z" fill="#263238"/>
<path d="M60.8257 185.114H58.8096V256.191H60.8257V185.114Z" fill="#263238"/>
<path d="M40.6145 185.114H38.5984V256.191H40.6145V185.114Z" fill="#263238"/>
<path d="M59.8177 209.266H17.2583V215.009H59.8177V209.266Z" fill="#263238"/>
<path d="M216.644 232.977C216.644 232.977 216.644 263.553 216.644 263.574C216.644 269.417 216.595 274.542 216.304 277.19C216.307 277.197 216.309 277.204 216.309 277.212C216.309 277.219 216.307 277.226 216.304 277.233C216.304 277.861 216.158 278.481 215.878 279.043L215.842 279.079C214.11 280.264 167.398 281.869 165.751 281.372C164.104 280.875 165.374 276.147 167.17 274.635C168.966 273.122 186.551 264.518 186.551 264.518L186.842 233.956L216.644 232.977Z" fill="#AD6359"/>
<path d="M216.637 257.292V263.574C216.637 269.417 216.588 274.542 216.297 277.19C216.3 277.197 216.302 277.204 216.302 277.212C216.302 277.219 216.3 277.227 216.297 277.233C216.223 277.851 216.08 278.458 215.871 279.043L215.835 279.079C214.103 280.264 167.39 281.869 165.743 281.372C164.096 280.875 165.367 276.147 167.163 274.635C168.959 273.123 186.544 264.518 186.544 264.518L186.459 258.129L216.637 257.292Z" fill="#C7C7C7"/>
<path d="M165.743 281.372C167.39 281.869 214.103 280.271 215.842 279.079C216.509 278.639 216.673 271.816 216.637 263.574V263.312L186.487 264.021L186.523 264.533C186.523 264.533 168.917 273.144 167.142 274.656C165.367 276.168 164.089 280.896 165.743 281.372Z" fill="#263238"/>
<path d="M166.205 279.547C174.078 279.079 205.854 277.957 213.663 278.127C213.727 278.127 213.727 278.17 213.663 278.177C205.854 278.802 174.092 279.675 166.212 279.703C166.049 279.675 166.042 279.554 166.205 279.547Z" fill="#455A64"/>
<path d="M183.981 264.696C187.062 263.986 190.867 264.355 193.31 266.485C193.409 266.57 193.31 266.698 193.189 266.669C190.194 265.817 187.117 265.286 184.01 265.086C183.963 265.082 183.92 265.061 183.887 265.027C183.855 264.994 183.835 264.95 183.832 264.903C183.828 264.856 183.841 264.81 183.869 264.772C183.896 264.734 183.936 264.707 183.981 264.696Z" fill="#455A64"/>
<path d="M181.795 266.123C184.869 265.413 188.681 265.782 191.123 267.912C191.215 267.99 191.123 268.125 190.995 268.096C188.001 267.242 184.923 266.712 181.816 266.513C181.77 266.507 181.727 266.485 181.696 266.451C181.664 266.417 181.645 266.373 181.643 266.327C181.64 266.28 181.654 266.235 181.682 266.197C181.709 266.16 181.749 266.134 181.795 266.123Z" fill="#455A64"/>
<path d="M179.601 267.543C182.682 266.833 186.487 267.209 188.929 269.332C189.029 269.417 188.929 269.552 188.809 269.523C185.814 268.668 182.737 268.135 179.63 267.933C179.583 267.928 179.54 267.907 179.507 267.874C179.475 267.84 179.455 267.796 179.452 267.75C179.448 267.703 179.461 267.657 179.489 267.619C179.516 267.581 179.556 267.554 179.601 267.543Z" fill="#455A64"/>
<path d="M219.321 119.625L219.292 121.648L218.149 210.998L218.142 211.339L217.468 264.859L184.769 264.206L191.08 119.731L191.166 117.8L191.485 101.039H219.101L219.321 119.625Z" fill="#455A64"/>
<path d="M186.139 258.754C191.244 258.704 189.774 258.647 194.878 258.662C197.377 258.662 213.798 258.725 216.126 259.137C216.176 259.137 216.176 259.237 216.126 259.244C213.783 259.599 197.37 259.244 194.871 259.201C189.767 259.095 191.237 259.066 186.132 258.903C186.117 258.897 186.103 258.887 186.094 258.873C186.085 258.859 186.08 258.842 186.081 258.826C186.082 258.809 186.088 258.793 186.098 258.78C186.109 258.767 186.123 258.758 186.139 258.754Z" fill="#263238"/>
<path d="M200.785 129.024C200.785 129.009 200.779 128.995 200.768 128.984C200.758 128.973 200.743 128.967 200.728 128.967C200.713 128.967 200.699 128.973 200.688 128.984C200.677 128.995 200.671 129.009 200.671 129.024C200.671 137.579 200.324 142.37 200.118 150.918C199.912 159.465 199.663 168.013 199.408 176.553C198.946 193.64 198.258 210.714 197.626 227.794C197.271 237.374 196.828 246.948 196.298 256.518C196.298 256.531 196.304 256.543 196.313 256.553C196.322 256.562 196.335 256.567 196.348 256.567C196.361 256.567 196.374 256.562 196.383 256.553C196.392 256.543 196.398 256.531 196.398 256.518C197.64 239.48 198.826 222.385 199.507 205.297C200.189 188.21 200.671 171.129 200.749 154.041C200.82 144.451 200.764 138.615 200.785 129.024Z" fill="#263238"/>
<path d="M219.314 119.625L218.149 210.998L196.234 101.039H219.093L219.314 119.625Z" fill="#263238"/>
<path d="M253.319 231.323C253.319 231.323 257.436 261.615 257.436 261.636C258.26 267.429 258.856 272.519 258.941 275.181C258.941 275.181 258.941 275.181 258.941 275.224C259.024 275.844 258.966 276.475 258.771 277.07C258.77 277.084 258.77 277.098 258.771 277.112C257.209 278.532 211.135 286.412 209.439 286.142C207.742 285.873 208.367 281.017 209.907 279.277C211.448 277.538 227.747 266.641 227.747 266.641L223.914 236.321L253.319 231.323Z" fill="#AD6359"/>
<path d="M256.591 255.417C256.591 255.417 257.436 261.615 257.436 261.636C258.26 267.429 258.856 272.519 258.941 275.181C258.941 275.181 258.941 275.181 258.941 275.224C258.954 275.844 258.897 276.463 258.771 277.07C258.77 277.084 258.77 277.098 258.771 277.112C257.209 278.532 211.135 286.412 209.439 286.142C207.742 285.873 208.367 281.017 209.907 279.277C211.448 277.538 227.747 266.641 227.747 266.641L226.775 260.309L256.591 255.417Z" fill="#C7C7C7"/>
<path d="M209.41 286.142C211.114 286.412 257.18 278.525 258.742 277.112C259.346 276.58 258.586 269.807 257.436 261.636L257.393 261.381L227.62 266.137L227.719 266.641C227.719 266.641 211.434 277.545 209.879 279.285C208.324 281.024 207.678 285.866 209.41 286.142Z" fill="#263238"/>
<path d="M209.623 284.268C217.361 282.749 248.669 277.346 256.478 276.459C256.542 276.459 256.549 276.495 256.478 276.509C248.846 278.184 217.475 283.331 209.666 284.424C209.481 284.446 209.46 284.304 209.623 284.268Z" fill="#455A64"/>
<path d="M225.234 267.159C228.195 266.066 232.014 265.896 234.719 267.67C234.825 267.741 234.719 267.89 234.619 267.876C231.538 267.432 228.418 267.32 225.312 267.543C225.266 267.544 225.22 267.528 225.184 267.499C225.148 267.47 225.123 267.429 225.113 267.384C225.104 267.338 225.111 267.29 225.133 267.249C225.155 267.208 225.191 267.176 225.234 267.159Z" fill="#455A64"/>
<path d="M223.254 268.863C226.214 267.77 230.033 267.599 232.738 269.381C232.845 269.445 232.738 269.594 232.639 269.58C229.557 269.139 226.437 269.027 223.332 269.246C223.285 269.247 223.24 269.232 223.203 269.203C223.167 269.174 223.142 269.133 223.133 269.087C223.123 269.042 223.13 268.994 223.153 268.953C223.175 268.912 223.211 268.88 223.254 268.863Z" fill="#455A64"/>
<path d="M221.28 270.574C224.24 269.481 228.053 269.31 230.764 271.085C230.871 271.156 230.764 271.305 230.665 271.291C227.584 270.843 224.463 270.731 221.358 270.957C221.312 270.958 221.266 270.943 221.23 270.914C221.193 270.885 221.168 270.844 221.159 270.798C221.15 270.753 221.157 270.705 221.179 270.664C221.201 270.623 221.237 270.591 221.28 270.574Z" fill="#455A64"/>
<path d="M194.296 101.011C194.417 101.579 196.348 110.538 198.35 118.233C199.805 123.856 201.303 128.797 202.162 129.308C203.135 129.883 207.877 131.984 209.467 132.645L216.73 202.096L226.548 266.4L258.65 261.43L235.805 120.697L232.085 101.011H194.296Z" fill="#455A64"/>
<path d="M226.739 259.947C231.78 259.137 230.289 259.293 235.372 258.527C237.842 258.158 254.085 255.751 256.449 255.815C256.499 255.815 256.513 255.9 256.449 255.914C254.192 256.624 237.906 258.754 235.429 259.066C230.367 259.719 231.815 259.478 226.746 260.081C226.734 260.075 226.724 260.066 226.717 260.054C226.709 260.043 226.705 260.03 226.704 260.016C226.703 260.002 226.706 259.989 226.712 259.977C226.719 259.964 226.728 259.954 226.739 259.947Z" fill="#263238"/>
<path d="M245.304 240.743C244.502 236.285 243.706 231.827 242.883 227.369C241.241 218.452 239.584 209.538 237.914 200.626C234.563 182.788 231.25 164.936 227.975 147.07C226.143 136.989 226.186 137.933 224.588 127.803C224.588 127.739 224.461 127.746 224.475 127.803C226.008 136.805 225.284 134.831 226.732 143.847C228.181 152.863 229.7 161.687 231.297 170.582C234.506 188.465 237.871 206.32 241.271 224.167C242.218 229.174 243.186 234.174 244.175 239.167C245.169 244.264 246.305 249.333 247.355 254.416C247.355 254.53 247.561 254.523 247.54 254.416C246.802 249.866 246.134 245.294 245.304 240.743Z" fill="#263238"/>
<path d="M236.479 128.47C235.628 128.25 234.712 128.179 233.846 128.044C233.136 127.931 232.426 127.803 231.716 127.654C230.38 127.415 229.114 126.882 228.01 126.092C226.803 125.155 226.186 123.728 225.604 122.358C225.253 121.549 224.898 120.739 224.539 119.93L224.006 118.759C223.758 118.299 223.538 117.825 223.346 117.339C223.346 117.268 223.211 117.339 223.24 117.339C223.36 117.671 223.46 118.01 223.538 118.354C223.658 118.745 223.765 119.135 223.886 119.525C224.106 120.235 224.319 120.945 224.546 121.655C224.891 122.936 225.389 124.171 226.029 125.333C227.322 127.377 229.622 128.208 231.922 128.499C232.582 128.577 233.249 128.627 233.917 128.662C234.753 128.737 235.594 128.737 236.43 128.662C236.449 128.657 236.467 128.647 236.481 128.632C236.495 128.618 236.506 128.6 236.511 128.581C236.516 128.561 236.515 128.541 236.51 128.521C236.504 128.502 236.494 128.484 236.479 128.47Z" fill="#263238"/>
<path d="M199.642 128.08C203.028 129.31 206.299 130.835 209.417 132.638C209.444 132.65 209.464 132.672 209.474 132.699C209.484 132.727 209.483 132.757 209.471 132.783C209.458 132.809 209.436 132.83 209.409 132.84C209.382 132.85 209.352 132.849 209.325 132.836C206.031 131.416 202.673 130.068 199.464 128.477C199.42 128.449 199.387 128.406 199.372 128.355C199.357 128.305 199.36 128.25 199.382 128.202C199.403 128.154 199.441 128.115 199.489 128.093C199.537 128.07 199.591 128.066 199.642 128.08Z" fill="#263238"/>
<path d="M198.648 105.547C198.648 105.434 198.861 105.405 198.861 105.547C198.859 109.222 199.043 112.895 199.415 116.551C199.564 118.248 200.927 127.618 203.873 126.937C204.363 126.823 204.583 126.333 204.689 125.595C204.679 124.624 204.548 123.659 204.299 122.72C203.972 120.754 203.71 118.787 203.546 116.806C203.2 113.116 203.24 109.4 203.667 105.718C203.667 105.693 203.677 105.67 203.694 105.652C203.712 105.635 203.735 105.625 203.759 105.625C203.784 105.625 203.807 105.635 203.825 105.652C203.842 105.67 203.852 105.693 203.852 105.718C203.77 110.837 204.069 115.955 204.746 121.03C205.115 123.465 206.344 127.136 203.795 127.512C201.246 127.888 199.535 121.747 199.202 120.065C198.389 115.27 198.202 110.39 198.648 105.547Z" fill="#263238"/>
<path d="M203.795 127.15C204.054 127.784 204.275 128.434 204.455 129.095C204.645 129.606 204.739 130.147 204.732 130.692C204.728 130.714 204.717 130.735 204.701 130.751C204.686 130.767 204.665 130.778 204.643 130.783C204.621 130.787 204.598 130.785 204.577 130.777C204.557 130.768 204.539 130.754 204.526 130.735C204.209 130.257 203.97 129.733 203.816 129.18C203.589 128.584 203.355 127.98 203.149 127.377C203.119 127.291 203.124 127.197 203.163 127.115C203.202 127.033 203.273 126.971 203.358 126.94C203.444 126.91 203.538 126.915 203.62 126.955C203.702 126.994 203.765 127.064 203.795 127.15Z" fill="#263238"/>
<path d="M236.139 122.763C232.248 122.507 191.166 117.793 191.166 117.793L191.485 101.032H194.325H232.113L235.833 120.718L236.139 122.763Z" fill="#263238"/>
<path d="M207.366 62.5406C202.666 77.25 194.708 92.4351 192.408 95.4238C186.239 103.46 167.703 111.376 162.045 112.398C159.596 112.838 153.725 97.0424 155.244 94.8701C156.763 92.6977 179.8 83.8948 180.929 82.7234C181.709 81.907 191.428 69.3841 197.967 61.8306C206.138 52.4385 208.601 58.6928 207.366 62.5406Z" fill="#AD6359"/>
<path d="M160.164 91.8033L169.265 110.261C169.265 110.261 188.61 101.877 193.217 95.8924C197.825 89.9078 206.173 69.6256 207.415 63.1654C208.658 56.7051 206.514 52.0907 197.86 61.5326C189.206 70.9744 182.036 80.3808 180.488 81.9568C178.941 83.5328 160.164 91.8033 160.164 91.8033Z" fill="#4D4D4D"/>
<path d="M160.93 90.8662L171.835 109.991C171.835 109.991 188.873 101.849 193.217 96.5029C197.562 91.1572 204.725 74.744 206.968 65.8843C209.212 57.0246 207.898 50.7418 197.867 61.5822C187.836 72.4226 182.164 80.2955 180.119 82.0632C179.147 82.8299 160.93 90.8662 160.93 90.8662Z" fill="#37474F"/>
<path d="M165.523 92.6338C166.076 92.6338 166.524 92.1856 166.524 91.6328C166.524 91.08 166.076 90.6318 165.523 90.6318C164.971 90.6318 164.522 91.08 164.522 91.6328C164.522 92.1856 164.971 92.6338 165.523 92.6338Z" fill="#263238"/>
<path d="M170.244 90.4616C170.797 90.4616 171.245 90.0134 171.245 89.4606C171.245 88.9078 170.797 88.4596 170.244 88.4596C169.692 88.4596 169.243 88.9078 169.243 89.4606C169.243 90.0134 169.692 90.4616 170.244 90.4616Z" fill="#263238"/>
<path d="M206.968 65.8559C204.725 74.7156 197.569 91.1005 193.217 96.4745C191.357 98.7676 187.197 101.565 183.03 104.021L204.988 55.9313C208.388 55.0084 208.495 59.8358 206.968 65.8559Z" fill="#263238"/>
<path d="M238.283 115.727C238.169 115.855 189.057 116.004 188.589 115.5C187.957 114.79 199.053 61.5467 204.093 55.0083C205.165 53.5885 208.722 53.2123 211.746 53.5885C212.535 53.6775 213.314 53.8367 214.074 54.0642H214.16C214.773 54.2451 215.351 54.5283 215.871 54.9019C224.276 61.6176 231.361 85.0945 233.015 92.144C235.784 103.779 238.687 115.266 238.283 115.727Z" fill="#4D4D4D"/>
<path d="M215.729 54.2772C215.729 54.2772 211.732 76.0716 211.036 81.7367C210.34 87.4018 211.363 117.325 211.363 117.325L242.201 119.604C242.201 119.604 235.535 99.7969 235.457 98.5404C235.457 98.5404 229.92 74.8151 224.73 64.9046C222.464 60.8007 219.404 57.1882 215.729 54.2772Z" fill="#37474F"/>
<path d="M242.201 119.604L228.216 118.567L218.235 56.4708V56.5134L224.496 64.5355C224.567 64.6632 224.638 64.791 224.702 64.9188C229.891 74.8576 235.429 98.5546 235.429 98.5546C235.535 99.7969 242.201 119.604 242.201 119.604Z" fill="#263238"/>
<path d="M203.795 54.7528C203.795 54.7528 200.522 76.8241 200.167 78.6485C199.812 80.473 194.857 116.466 194.857 116.466L187.14 116.707L191.166 100.251C191.166 100.251 200.118 59.4524 203.795 54.7528Z" fill="#37474F"/>
<path d="M208.303 66.864L206.116 62.6045L203.291 65.6855L203.987 68.7524L206.769 69.1144L208.303 66.864Z" fill="#263238"/>
<path d="M206.769 69.1144L208.104 100.45L202.233 110.815L199.18 99.1509L203.987 68.7523L206.769 69.1144Z" fill="#263238"/>
<path d="M205.539 155.72L205.5 192.522L266.241 192.586L266.279 155.784L205.539 155.72Z" fill="#4D4D4D"/>
<path opacity="0.1" d="M205.536 155.724L205.518 173.053L266.258 173.117L266.276 155.788L205.536 155.724Z" fill="#F7F1FF"/>
<path d="M204.089 167.475L267.705 167.542L267.723 150.369L204.107 150.303L204.089 167.475Z" fill="#4D4D4D"/>
<path d="M222.53 140.532L222.515 150.321L227.123 150.329L227.13 144.756L244.7 144.777L244.693 150.35H249.3L249.308 140.553L222.53 140.532Z" fill="#263238"/>
<path d="M254.819 171.623L258.965 171.628L258.974 163.421L254.828 163.417L254.819 171.623Z" fill="#263238"/>
<path d="M212.814 171.589L216.96 171.594L216.968 163.387L212.822 163.383L212.814 171.589Z" fill="#263238"/>
<path d="M222.515 60.8226C236.217 73.2532 244.913 91.0082 245.502 94.5932C246.922 103.261 248.718 118.453 248.413 125.12C248.3 127.59 229.579 124.594 229.615 121.953C229.735 113.69 228.635 95.5161 228.585 95.1967C228.252 92.9746 224.177 82.9861 220.066 72.1528C215.956 61.3196 216.751 55.6047 222.515 60.8226Z" fill="#AD6359"/>
<path d="M227.641 147.851C228.187 148.099 228.796 148.175 229.386 148.067C229.976 147.959 230.519 147.673 230.942 147.248C231.476 148.115 232.298 148.768 233.264 149.093C234.989 149.59 236.522 147.099 236.522 147.099C237.266 147.883 238.228 148.427 239.284 148.66C240.98 148.966 242.89 146.673 242.89 146.673C243.969 147.013 245.135 146.957 246.177 146.516C247.945 145.686 249.442 140.617 249.812 137.699C250.181 134.781 248.484 126.156 248.328 124.481L229.615 121.968C229.615 121.968 224.248 134.59 224.304 138.083C224.354 141.043 225.582 146.829 227.641 147.851Z" fill="#AD6359"/>
<path d="M230.658 147.077C229.856 143.961 230.019 140.773 230.005 137.593C230.005 137.578 230.011 137.563 230.022 137.553C230.032 137.542 230.047 137.536 230.062 137.536C230.077 137.536 230.091 137.542 230.102 137.553C230.113 137.563 230.119 137.578 230.119 137.593C230.119 140.759 230.701 143.89 230.829 147.056C230.831 147.079 230.825 147.101 230.811 147.119C230.797 147.137 230.777 147.149 230.754 147.152C230.731 147.155 230.709 147.148 230.691 147.134C230.673 147.12 230.661 147.1 230.658 147.077Z" fill="#263238"/>
<path d="M236.288 147.006C236.173 146.281 236.154 145.543 236.231 144.813C236.231 144.039 236.316 143.258 236.38 142.484C236.503 140.932 236.662 139.384 236.856 137.841C236.856 137.77 236.969 137.77 236.962 137.841C236.849 139.389 236.756 140.936 236.699 142.484C236.699 143.265 236.657 144.039 236.643 144.813C236.674 145.547 236.626 146.282 236.501 147.006C236.493 147.028 236.478 147.047 236.459 147.06C236.44 147.073 236.417 147.08 236.394 147.08C236.371 147.08 236.348 147.073 236.329 147.06C236.31 147.047 236.296 147.028 236.288 147.006Z" fill="#263238"/>
<path d="M242.89 146.609C242.799 145.95 242.818 145.281 242.947 144.628C243.018 143.918 243.082 143.208 243.145 142.498C243.273 141.078 243.394 139.659 243.465 138.239C243.465 138.168 243.579 138.168 243.579 138.239C243.508 139.659 243.458 141.121 243.38 142.562L243.252 144.692C243.267 145.341 243.168 145.987 242.961 146.602C242.958 146.608 242.953 146.613 242.947 146.617C242.941 146.621 242.934 146.624 242.927 146.624C242.92 146.625 242.913 146.624 242.907 146.621C242.9 146.619 242.894 146.614 242.89 146.609Z" fill="#263238"/>
<path d="M228.699 122.053L249.45 123.174C249.45 123.174 247.916 100.457 246.269 94.146C244.622 87.8348 230.566 66.8001 222.267 59.1756C214.458 51.9983 214.458 57.9687 217.418 66.3812C220.379 74.7937 227.705 95.1256 227.953 96.6094C228.202 98.0931 228.699 122.053 228.699 122.053Z" fill="#37474F"/>
<path d="M229.629 117.864C230.424 117.793 231.226 117.864 232.021 117.864C232.816 117.864 233.611 117.9 234.406 117.935C235.94 117.999 237.473 118.091 239.007 118.191L243.6 118.496C245.183 118.603 246.802 118.631 248.37 118.865C248.381 118.869 248.391 118.876 248.397 118.886C248.404 118.896 248.407 118.907 248.407 118.918C248.407 118.93 248.404 118.941 248.397 118.951C248.391 118.96 248.381 118.968 248.37 118.972C246.787 119.036 245.176 118.894 243.593 118.837L238.907 118.645C237.345 118.574 235.784 118.496 234.222 118.397C233.455 118.354 232.688 118.297 231.929 118.212C231.169 118.127 230.374 118.12 229.622 117.971C229.551 117.956 229.572 117.871 229.629 117.864Z" fill="#263238"/>
<path d="M206.855 62.0365C207.664 62.001 213.038 57.777 214.664 54.5256C214.777 54.2985 214.358 51.9841 213.989 49.1516C213.769 47.4336 213.563 45.5097 213.507 43.742C213.507 43.38 212.285 44.0899 212.285 44.0899L210.014 44.7146L202.517 46.8018C203.223 48.9906 203.657 51.2581 203.809 53.5531C203.817 53.7908 203.801 54.0287 203.759 54.263C203.763 54.3031 203.763 54.3435 203.759 54.3837C203.596 55.7822 205.548 62.0862 206.855 62.0365Z" fill="#AD6359"/>
<path d="M203.788 54.2772C203.791 54.3174 203.791 54.3577 203.788 54.3979C204.168 54.4339 204.551 54.4339 204.931 54.3979C212.385 53.9862 213.003 44.4591 213.003 44.4591L210.057 44.6863L202.56 46.7734C203.266 48.9623 203.7 51.2298 203.852 53.5247C203.858 53.7771 203.837 54.0295 203.788 54.2772Z" fill="#263238"/>
<path d="M213.23 28.7629C215.019 32.4615 214.72 44.0047 212.342 46.9367C208.906 51.1962 202.403 52.5521 198.57 48.2145C194.857 44.0189 195.517 28.9829 198.25 26.2072C202.276 22.1749 210.589 23.2965 213.23 28.7629Z" fill="#AD6359"/>
<path d="M203.334 37.1824C203.334 37.1824 203.39 37.1824 203.39 37.2534C203.348 38.0272 203.433 38.9288 204.1 39.1985C204.1 39.1985 204.1 39.2482 204.1 39.2411C203.27 39.1062 203.17 37.9136 203.334 37.1824Z" fill="#263238"/>
<path d="M204.043 36.3873C205.293 36.3163 205.343 38.8294 204.178 38.8933C203.014 38.9572 202.993 36.4441 204.043 36.3873Z" fill="#263238"/>
<path d="M198.833 37.3954C198.833 37.3954 198.776 37.4309 198.776 37.4664C198.811 38.2402 198.726 39.1418 198.023 39.4115V39.4541C198.889 39.3122 198.996 38.1053 198.833 37.3954Z" fill="#263238"/>
<path d="M198.123 36.5861C196.873 36.5151 196.816 39.0282 197.981 39.0921C199.145 39.156 199.159 36.6855 198.123 36.5861Z" fill="#263238"/>
<path d="M205.016 35.223C204.668 35.1378 204.363 35.0101 204.036 34.8965C203.674 34.8321 203.343 34.6469 203.099 34.3711C203.038 34.2714 203.013 34.1541 203.027 34.0381C203.041 33.9221 203.094 33.8143 203.177 33.7322C203.363 33.5899 203.583 33.4997 203.815 33.471C204.047 33.4423 204.283 33.4761 204.498 33.5689C204.962 33.6918 205.364 33.9827 205.626 34.3853C205.681 34.4804 205.707 34.5892 205.701 34.6986C205.695 34.808 205.657 34.9134 205.593 35.0019C205.528 35.0905 205.439 35.1584 205.337 35.1977C205.235 35.2369 205.123 35.2457 205.016 35.223Z" fill="#263238"/>
<path d="M197.129 35.3437C197.465 35.2698 197.797 35.1774 198.123 35.0669C198.485 35.0163 198.822 34.8494 199.081 34.5912C199.147 34.4943 199.179 34.378 199.171 34.2609C199.163 34.1438 199.117 34.0327 199.038 33.9452C198.86 33.7929 198.644 33.6915 198.413 33.6515C198.182 33.6115 197.944 33.6345 197.725 33.718C197.256 33.8173 196.841 34.0882 196.561 34.4776C196.502 34.5699 196.471 34.6771 196.472 34.7865C196.473 34.8959 196.505 35.0028 196.565 35.0942C196.625 35.1857 196.71 35.2579 196.81 35.3022C196.91 35.3464 197.021 35.3609 197.129 35.3437Z" fill="#263238"/>
<path d="M203.319 42.0738C203.128 42.3848 202.873 42.6527 202.573 42.8604C202.272 43.0681 201.932 43.2112 201.573 43.2806C201.261 43.3483 200.94 43.3698 200.622 43.3445C200.56 43.3519 200.498 43.3519 200.437 43.3445H200.267C200.226 43.337 200.188 43.3163 200.16 43.2855C200.132 43.2548 200.114 43.2157 200.11 43.1741C200.107 43.1482 200.107 43.122 200.11 43.0961V43.0251C200.11 42.4287 200.11 41.52 200.11 41.52C199.89 41.6336 198.783 42.1519 198.797 41.8395C198.82 39.14 199.118 36.4498 199.685 33.8104C199.685 33.7915 199.692 33.7735 199.705 33.7602C199.719 33.7469 199.737 33.7394 199.756 33.7394C199.774 33.7394 199.792 33.7469 199.806 33.7602C199.819 33.7735 199.827 33.7915 199.827 33.8104C199.827 36.3093 199.372 38.7798 199.33 41.2929C199.723 41.1006 200.141 40.9644 200.572 40.8882C200.657 40.8882 200.458 42.6488 200.494 42.9186C200.984 42.9591 201.478 42.9001 201.945 42.7452C202.413 42.5902 202.844 42.3426 203.213 42.017C203.305 41.9602 203.362 42.0099 203.319 42.0738Z" fill="#263238"/>
<path d="M200.969 43.0321C201.303 43.4547 201.741 43.7827 202.24 43.9834C202.515 44.086 202.815 44.1009 203.099 44.026C203.724 43.8485 203.724 43.3161 203.603 42.7907C203.533 42.5438 203.436 42.3056 203.312 42.0808C202.652 42.6387 201.831 42.9719 200.969 43.0321Z" fill="#263238"/>
<path d="M202.24 43.9834C202.515 44.0861 202.815 44.101 203.099 44.026C203.724 43.8485 203.724 43.3161 203.603 42.7908C203.276 42.81 202.964 42.9376 202.717 43.1536C202.471 43.3695 202.303 43.6615 202.24 43.9834Z" fill="#FF9ABB"/>
<path d="M196.66 30.0691C197.065 29.0752 197.541 28.0742 198.13 27.8613C198.719 27.6483 199.138 29.0965 200.494 29.1604C202.318 29.2527 203.17 27.5631 205.719 27.3359C209.375 27.0094 211.043 30.0407 211.235 35.2373C211.398 39.873 214.216 40.2564 214.216 40.2564C214.216 40.2564 215.721 29.991 212.797 26.6544C209.872 23.3178 203.199 21.9477 198.811 25.2346C197.186 26.4769 196.66 30.0691 196.66 30.0691Z" fill="#263238"/>
<path d="M211.838 38.4745C211.838 38.4745 213.89 34.4918 215.665 35.1734C217.439 35.8549 216.24 41.3922 214.394 42.379C214.166 42.521 213.912 42.6154 213.647 42.6565C213.382 42.6976 213.111 42.6847 212.851 42.6183C212.591 42.552 212.347 42.4337 212.134 42.2705C211.921 42.1074 211.743 41.9028 211.611 41.6691L211.838 38.4745Z" fill="#AD6359"/>
<path d="M215.281 36.7565C215.281 36.7565 215.324 36.792 215.281 36.8062C213.996 37.5161 213.45 38.8933 213.152 40.2705C213.211 40.1229 213.303 39.9901 213.419 39.8814C213.536 39.7728 213.675 39.6909 213.826 39.6415C213.978 39.5921 214.138 39.5765 214.296 39.5956C214.454 39.6148 214.607 39.6682 214.742 39.7523C214.777 39.7523 214.742 39.8304 214.742 39.8304C214.493 39.7861 214.236 39.8204 214.007 39.9285C213.778 40.0366 213.588 40.2132 213.464 40.4338C213.256 40.8026 213.09 41.1931 212.967 41.5981C212.924 41.733 212.69 41.6975 212.719 41.5484C212.42 39.7878 213.443 37.1824 215.281 36.7565Z" fill="#263238"/>
<path d="M203.752 54.5469L206.429 61.1207L214.55 52.8147L216.864 55.4698C216.864 55.4698 208.928 68.6316 208.878 68.0566L206.166 62.4198L202.283 66.3528L202.574 56.492L203.752 54.5469Z" fill="#4D4D4D"/>
<path d="M202.148 61.4757C202.254 59.85 202.311 58.203 202.489 56.5844C202.489 56.5276 202.588 56.5063 202.602 56.5844C202.929 58.1533 202.503 64.3935 202.51 65.863C202.673 65.6926 206.109 62.4057 206.145 62.4554C206.734 63.3499 208.722 67.4248 208.857 67.8295C210.113 65.7352 214.919 58.1249 216.41 56.1443C216.419 56.1364 216.431 56.1315 216.443 56.1306C216.455 56.1296 216.467 56.1325 216.477 56.1388C216.487 56.1451 216.495 56.1546 216.5 56.1658C216.505 56.177 216.505 56.1893 216.502 56.2011C215.416 58.3734 209.055 68.6317 208.956 68.6317C207.909 66.6934 206.961 64.703 206.116 62.6684C205.534 63.3783 202.063 67.1053 202.049 66.864C201.988 65.0674 202.021 63.2689 202.148 61.4757Z" fill="#263238"/>
<path d="M112.053 61.3195C120.983 78.9467 130.056 121.35 130.901 127.022C131.476 130.877 111.208 134.363 111.208 131.693C111.208 128.272 107.119 88.2466 107.509 72.4297C107.722 63.7048 110.207 57.6776 112.053 61.3195Z" fill="#EB9481"/>
<path d="M111.13 130.004C110.803 132.325 111.577 140.368 113.096 146.332C113.806 149.242 116.845 157.371 119.123 156.98C121.402 156.59 120.728 154.141 120.728 154.141C120.728 154.141 122.517 157.378 124.767 156.775C127.018 156.171 125.861 152.38 125.861 152.38C125.861 152.38 127.933 155.582 130.12 154.815C132.307 154.048 130.51 150.435 130.51 150.435C130.51 150.435 132.278 153.452 133.826 152.054C135.693 150.371 131.817 145.189 131.164 141.93C131.015 141.22 129.204 126.724 129.204 126.724L111.13 130.004Z" fill="#EB9481"/>
<path d="M130.539 150.385C127.699 146.566 127.117 144.401 126.762 139.737C126.757 139.721 126.747 139.707 126.734 139.697C126.72 139.687 126.704 139.682 126.688 139.682C126.671 139.682 126.655 139.687 126.641 139.697C126.628 139.707 126.618 139.721 126.613 139.737C126.549 144.344 126.89 147.162 130.361 150.549C130.532 150.698 130.674 150.563 130.539 150.385Z" fill="#263238"/>
<path d="M125.917 152.586C123.312 148.362 122.659 146.019 121.921 141.156C121.921 141.085 121.793 141.093 121.8 141.156C122.119 145.991 122.51 148.795 125.683 152.678C125.825 152.863 126.038 152.778 125.917 152.586Z" fill="#263238"/>
<path d="M120.522 153.821C118.3 149.562 117.476 147.013 117.37 142.2C117.364 142.181 117.353 142.164 117.337 142.152C117.321 142.14 117.301 142.133 117.281 142.133C117.261 142.133 117.242 142.14 117.226 142.152C117.21 142.164 117.198 142.181 117.192 142.2C116.823 147.12 117.831 150.293 120.387 153.885C120.565 154.091 120.664 154.063 120.522 153.821Z" fill="#263238"/>
<path d="M130.773 126.014C130.773 126.014 134.039 130.983 134.99 133.518C135.941 136.052 136.048 146.68 133.748 146.836C130.78 147.035 129.488 140.894 129.275 137.806C129.275 137.806 122.403 138.267 120.543 134.057C118.683 129.848 130.773 126.014 130.773 126.014Z" fill="#EB9481"/>
<path d="M132.917 146.616C130.077 144.848 130.035 140.773 129.588 137.792C129.583 137.747 129.568 137.704 129.543 137.667C129.519 137.63 129.485 137.599 129.446 137.578C129.407 137.556 129.364 137.544 129.319 137.543C129.274 137.542 129.23 137.552 129.19 137.571C126.301 137.571 122.219 136.734 120.472 134.235C120.469 134.225 120.463 134.216 120.455 134.209C120.448 134.202 120.439 134.197 120.429 134.193C120.42 134.19 120.409 134.189 120.399 134.19C120.389 134.191 120.379 134.194 120.37 134.199C120.361 134.204 120.353 134.211 120.348 134.22C120.342 134.228 120.338 134.238 120.336 134.248C120.334 134.258 120.335 134.269 120.337 134.279C120.34 134.289 120.345 134.298 120.352 134.306C121.857 137.245 125.804 138.395 128.97 138.189C129.382 141.249 129.602 145.338 132.896 146.644C132.917 146.651 132.931 146.63 132.917 146.616Z" fill="#263238"/>
<path d="M132.846 124.821L109.824 128.371C109.824 128.371 106.153 85.627 106.018 71.2796C105.884 56.9322 111.038 53.4182 116.568 68.0921C122.098 82.766 132.846 124.821 132.846 124.821Z" fill="#4D4D4D"/>
<path d="M109.71 124.772C119.131 122.642 129.346 121.854 131.121 121.591C131.206 121.591 131.213 121.712 131.121 121.719C129.375 121.889 117.789 124.069 109.71 124.914C109.646 124.921 109.639 124.786 109.71 124.772Z" fill="#263238"/>
<path d="M160.739 281.336C159.141 281.854 112.322 281.152 110.604 280.023C110.399 279.895 110.37 275.664 110.427 269.864L108.148 235.412L137.773 235.497L140.116 265.313C140.116 265.313 146.76 268.38 152.241 271.064C154.639 272.153 156.969 273.386 159.219 274.755C160.987 276.232 162.336 280.825 160.739 281.336Z" fill="#EB9481"/>
<path d="M160.739 281.336C159.141 281.854 112.322 281.152 110.604 280.023C110.399 279.895 110.37 275.664 110.427 269.864C121.991 272.441 152.83 276.615 153.732 274.194C154.094 273.222 153.355 272.122 152.255 271.106C154.653 272.196 156.983 273.429 159.234 274.798C160.987 276.232 162.336 280.825 160.739 281.336Z" fill="#263238"/>
<path d="M95.6395 110.02C95.6395 110.02 104.031 199.057 104.215 200.136C104.215 200.278 104.308 201.925 104.386 204.602C104.854 219.29 106.004 265.093 106.004 265.093H141.202C141.202 265.093 138.909 210.842 137.588 198.191C135.906 182.04 125.562 110.02 125.562 110.02H95.6395Z" fill="#37474F"/>
<path d="M108.411 203.146C107.327 184.66 105.697 166.202 103.52 147.773C102.284 137.408 100.793 127.079 99.3168 116.743C99.3168 116.65 99.1607 116.657 99.1749 116.743C101.901 135.136 103.825 153.658 105.486 172.194C107.147 190.73 108.326 209.223 109.036 227.78C109.469 238.287 109.795 248.808 110.129 259.322C110.138 259.367 110.162 259.408 110.197 259.438C110.233 259.467 110.278 259.483 110.324 259.483C110.37 259.483 110.415 259.467 110.451 259.438C110.486 259.408 110.511 259.367 110.519 259.322C110.051 240.608 109.511 221.867 108.411 203.146Z" fill="#263238"/>
<path d="M138.98 259.421C138.057 259.301 137.056 259.336 136.14 259.308C135.089 259.308 134.01 259.258 132.974 259.222C130.936 259.144 128.892 259.088 126.854 259.059C122.744 258.988 118.626 259.017 114.523 259.144L111.13 259.265C109.923 259.308 108.716 259.421 107.509 259.414C107.424 259.414 107.424 259.521 107.509 259.521C109.575 259.521 111.669 259.698 113.742 259.776C115.815 259.854 117.817 259.883 119.855 259.911C123.965 259.968 128.09 259.911 132.193 259.783C133.322 259.741 134.45 259.726 135.579 259.691L137.397 259.599C137.936 259.599 138.469 259.599 139.008 259.549C139.079 259.549 139.072 259.435 138.98 259.421Z" fill="#263238"/>
<path d="M121.069 110.02L104.989 225.991C104.762 217.345 104.535 209.351 104.386 204.602C104.308 201.925 104.244 200.278 104.215 200.136C104.017 199.057 95.6395 110.02 95.6395 110.02H121.069Z" fill="#263238"/>
<path d="M101.773 287.513C100.098 287.378 57.1479 268.721 55.9978 267.017C55.8559 266.826 57.4177 262.907 59.7391 257.575L69.2093 224.209L96.612 235.206L88.8811 264.831C88.8811 264.831 93.8505 270.219 97.8686 274.77C99.6632 276.701 101.342 278.737 102.895 280.868C103.967 282.891 103.441 287.655 101.773 287.513Z" fill="#EB9481"/>
<path d="M101.773 287.513C100.098 287.378 57.1479 268.721 55.9978 267.017C55.8559 266.826 57.4177 262.907 59.7391 257.575C69.4294 264.405 96.2855 280.108 98.0745 278.22C98.7844 277.467 98.5217 276.161 97.897 274.798C99.6916 276.729 101.37 278.766 102.923 280.896C103.967 282.891 103.441 287.655 101.773 287.513Z" fill="#263238"/>
<path d="M56.6581 254.139L90.9967 264.788C90.9967 264.788 107.765 205.972 109.05 192.157C110.321 178.462 111.549 150.485 112.095 130.188C112.095 130.188 117.831 126.795 119.287 124.942C120.742 123.089 122.048 116.423 124.916 110.034H82.9036C72.8654 129.535 80.4189 138.21 80.4189 142.463C80.4189 162.993 77.3166 190.247 76.3298 194.286C74.2711 202.706 56.6581 254.139 56.6581 254.139Z" fill="#37474F"/>
<path d="M90.9185 257.277C90.0596 256.922 89.087 256.702 88.1925 256.425C87.1773 256.12 86.155 255.836 85.1469 255.524C83.2018 254.92 81.2424 254.345 79.283 253.792C75.3312 252.665 71.3509 251.629 67.3423 250.682L64.0341 249.923C62.8627 249.653 61.663 249.447 60.4845 249.135C60.3922 249.135 60.3709 249.213 60.4845 249.241C62.4865 249.766 64.46 250.483 66.4407 251.094C68.4214 251.704 70.3523 252.251 72.3117 252.812C76.2659 253.926 80.2556 254.942 84.2595 255.872C85.367 256.12 86.4603 256.397 87.5607 256.66L89.3283 257.05C89.8537 257.171 90.3648 257.341 90.8973 257.419C90.9161 257.422 90.9353 257.417 90.9506 257.406C90.9659 257.395 90.9761 257.378 90.9789 257.359C90.9817 257.34 90.9769 257.321 90.9656 257.306C90.9543 257.29 90.9374 257.28 90.9185 257.277Z" fill="#263238"/>
<path d="M120.266 124.481C118.262 125.402 116.358 126.53 114.587 127.846C112.706 129.138 110.974 130.621 109.163 132.006C109.092 132.063 109.163 132.176 109.234 132.126C111.144 130.905 113.146 129.833 115.034 128.577C116.931 127.427 118.717 126.105 120.373 124.63C120.423 124.573 120.359 124.445 120.266 124.481Z" fill="#263238"/>
<path d="M120.529 112.646C120.288 113.953 119.968 115.252 119.684 116.551C119.4 117.85 119.223 119.014 118.903 120.221C118.639 121.388 118.045 122.455 117.192 123.295C116.717 123.742 116.184 124.133 115.673 124.544C115.403 124.765 115.105 124.97 114.821 125.198C114.857 125.02 114.885 124.85 114.914 124.665C115.006 124.175 115.091 123.678 115.169 123.181C115.354 122.081 115.531 120.974 115.702 119.873C116.035 117.701 116.341 115.507 116.795 113.356C116.8 113.337 116.797 113.317 116.787 113.301C116.777 113.284 116.761 113.272 116.742 113.267C116.723 113.263 116.703 113.266 116.686 113.276C116.67 113.286 116.658 113.302 116.653 113.321C116.113 115.45 115.517 117.58 115.049 119.71C114.814 120.761 113.991 125.957 113.955 126.326C113.92 126.696 113.884 127.086 113.87 127.469C113.824 127.858 113.824 128.252 113.87 128.641C113.87 128.733 114.012 128.719 114.048 128.641C114.207 128.28 114.319 127.901 114.381 127.512C114.474 127.143 114.559 126.766 114.623 126.39C114.623 126.255 114.665 126.113 114.686 125.971C115.198 125.659 115.673 125.261 116.156 124.907C116.639 124.552 117.192 124.197 117.682 123.756C118.585 122.995 119.236 121.977 119.549 120.839C119.865 119.612 120.072 118.36 120.167 117.097C120.33 115.621 120.451 114.137 120.657 112.668C120.678 112.646 120.543 112.575 120.529 112.646Z" fill="#263238"/>
<path d="M119.649 56.0377C118.974 64.3792 118.137 72.955 116.192 81.1048C114.672 87.4515 111.222 92.3854 104.336 93.0456C97.9467 93.6561 89.1083 92.3357 84.4228 87.5011C82.2363 85.2507 81.7607 82.4253 82.3357 79.4152C83.1379 75.2338 89.6478 52.6018 91.6285 45.531C92.8353 41.2289 94.028 36.863 95.9873 32.8164C100.091 24.2975 104.506 25.0074 105.117 24.9009C105.692 24.6311 109.27 23.5946 113.87 25.7812C115.081 26.3462 116.158 27.1607 117.031 28.1713C117.905 29.1818 118.555 30.3656 118.939 31.6451C121.381 39.2554 120.302 48.2287 119.649 56.0377Z" fill="#263238"/>
<path d="M103.598 25.9445C97.968 27.6909 95.9092 33.2992 93.9214 38.297C91.1528 45.2613 88.4977 52.2752 86.1834 59.4099C85.0759 62.8387 84.0536 66.296 83.1094 69.7746C82.222 73.1112 81.0649 76.6395 80.8235 80.0968C80.426 85.7761 85.2534 89.0985 90.166 90.5964C90.2149 90.6124 90.2682 90.6083 90.3142 90.585C90.3601 90.5617 90.3949 90.5211 90.4109 90.4722C90.4269 90.4232 90.4228 90.3699 90.3995 90.324C90.3762 90.2781 90.3356 90.2433 90.2867 90.2273C87.5038 89.2689 84.6996 88.0975 82.861 85.6625C80.497 82.5673 81.3063 79.0603 82.1085 75.5675C83.4857 69.6184 85.1966 63.7616 87.0779 57.9687C88.9591 52.1758 91.1315 46.4397 93.3464 40.7533C95.4762 35.3367 97.4426 28.0955 103.583 26.0368C103.676 26.0368 103.654 25.9232 103.598 25.9445Z" fill="#263238"/>
<path d="M120.508 38.0272C120.096 33.5618 118.421 29.0326 114.041 27.1513C119.677 29.8348 120.231 36.4725 120.274 41.953C120.321 47.7317 120.158 53.501 119.784 59.2607C119.429 64.8052 118.946 70.378 118.087 75.8656C117.157 81.7863 115.318 87.2243 111.144 91.6186C111.135 91.627 111.127 91.6372 111.122 91.6485C111.116 91.6598 111.113 91.6721 111.113 91.6846C111.112 91.6971 111.114 91.7097 111.118 91.7215C111.122 91.7333 111.129 91.7442 111.137 91.7535C111.145 91.7629 111.155 91.7704 111.167 91.7758C111.178 91.7812 111.19 91.7844 111.203 91.785C111.215 91.7857 111.228 91.7839 111.24 91.7797C111.252 91.7755 111.263 91.769 111.272 91.7606C115.269 88.2749 117.164 82.979 118.137 77.9102C119.31 71.1811 120.038 64.3819 120.316 57.5569C120.685 51.1322 121.104 44.4945 120.508 38.0272Z" fill="#263238"/>
<path d="M103.264 57.1737C103.534 57.8836 107.673 62.2141 111.023 61.6248C112.11 61.4261 111.307 55.4273 111.307 55.4273L111.35 54.9729L111.932 48.5837L104.031 44.8496L102.902 44.3668C102.902 44.3668 102.852 46.1274 102.824 48.3139C102.824 48.4204 102.824 48.5198 102.824 48.6263C102.817 48.7469 102.817 48.8678 102.824 48.9884C102.824 49.3149 102.824 49.6486 102.824 49.9822C102.824 50.3159 102.824 50.4792 102.824 50.7419C102.824 51.0045 102.824 51.2743 102.824 51.537C102.843 53.4237 102.99 55.3069 103.264 57.1737Z" fill="#EB9481"/>
<path d="M102.824 48.3139C103.676 49.9754 104.879 51.4315 106.35 52.5814C107.821 53.7313 109.525 54.5474 111.343 54.9729L111.925 48.5837L104.031 44.8496L102.902 44.3668C102.902 44.3668 102.852 46.1274 102.824 48.3139Z" fill="#263238"/>
<path d="M120.053 39.1773C120.948 50.394 114.332 52.1971 111.911 52.3888C109.71 52.5592 102.206 52.8716 100.162 41.7969C98.1171 30.7222 103.051 26.7467 108.056 26.1078C113.061 25.4689 119.166 27.9536 120.053 39.1773Z" fill="#EB9481"/>
<path d="M118.165 36.792C117.909 36.7543 117.656 36.7022 117.405 36.6358C117.128 36.6191 116.864 36.5119 116.653 36.3306C116.599 36.2602 116.57 36.1741 116.57 36.0857C116.57 35.9972 116.599 35.9112 116.653 35.8407C116.78 35.7186 116.936 35.632 117.107 35.5896C117.278 35.5472 117.457 35.5506 117.626 35.5994C117.987 35.6449 118.318 35.8279 118.548 36.1105C118.599 36.1767 118.629 36.2561 118.634 36.339C118.64 36.422 118.621 36.5048 118.581 36.5772C118.54 36.6497 118.479 36.7086 118.405 36.7468C118.331 36.785 118.248 36.8007 118.165 36.792Z" fill="#263238"/>
<path d="M110.697 36.9482C110.959 36.9127 111.194 36.8417 111.456 36.7849C111.72 36.7553 111.969 36.6436 112.166 36.4654C112.221 36.3955 112.251 36.3093 112.251 36.2205C112.251 36.1317 112.221 36.0455 112.166 35.9756C112.038 35.854 111.879 35.7689 111.707 35.7289C111.535 35.689 111.355 35.6957 111.186 35.7484C110.829 35.8057 110.506 35.9927 110.278 36.2737C110.226 36.3424 110.197 36.425 110.193 36.5107C110.189 36.5964 110.211 36.6813 110.257 36.7542C110.302 36.8271 110.368 36.8846 110.447 36.9192C110.525 36.9538 110.612 36.9639 110.697 36.9482Z" fill="#263238"/>
<path d="M112.45 39.7808C112.45 39.7808 112.393 39.7808 112.393 39.8447C112.443 40.6114 112.393 41.4988 111.683 41.7756C111.683 41.7756 111.683 41.8253 111.683 41.8182C112.55 41.6549 112.621 40.4978 112.45 39.7808Z" fill="#263238"/>
<path d="M111.74 38.9998C110.505 38.9501 110.491 41.4206 111.634 41.4703C112.777 41.52 112.777 39.0424 111.74 38.9998Z" fill="#263238"/>
<path d="M111.258 39.1276C111.038 39.2696 110.825 39.511 110.548 39.5394C110.271 39.5678 110.022 39.3051 109.838 39.0566H109.795C109.795 39.5252 109.958 40.015 110.505 40.086C111.052 40.157 111.307 39.7382 111.428 39.2625C111.421 39.2057 111.343 39.0708 111.258 39.1276Z" fill="#263238"/>
<path d="M116.71 39.6104C116.71 39.6104 116.767 39.6103 116.767 39.6742C116.731 40.4409 116.816 41.3283 117.512 41.591C117.512 41.591 117.512 41.6407 117.512 41.6336C116.66 41.5058 116.554 40.3274 116.71 39.6104Z" fill="#263238"/>
<path d="M117.405 38.8152C118.634 38.7442 118.698 41.2147 117.555 41.2857C116.412 41.3567 116.369 38.8791 117.405 38.8152Z" fill="#263238"/>
<path d="M117.924 38.9714C118.122 39.0921 118.321 39.3263 118.555 39.3405C118.79 39.3547 119.017 39.0779 119.187 38.8152H119.223C119.223 39.2837 119.102 39.7807 118.655 39.8801C118.208 39.9794 117.945 39.5748 117.803 39.1133C117.782 39.0495 117.846 38.9146 117.924 38.9714Z" fill="#263238"/>
<path d="M115.588 43.0747C115.588 43.0747 115.751 44.2177 115.751 44.7572C115.751 44.814 115.623 44.8353 115.439 44.8495C114.976 44.9371 114.498 44.8953 114.057 44.7287C113.616 44.5621 113.229 44.2772 112.94 43.9053C112.93 43.894 112.924 43.879 112.925 43.8637C112.926 43.8484 112.932 43.834 112.944 43.8236C112.955 43.8133 112.97 43.8078 112.985 43.8085C113 43.8092 113.015 43.8159 113.025 43.8272C113.714 44.2959 114.536 44.5277 115.368 44.4874C115.403 44.3383 115.02 42.5352 115.105 42.5281C115.525 42.5617 115.938 42.6525 116.333 42.7978C116.064 40.4054 115.41 38.0769 115.169 35.6987C115.169 35.6798 115.177 35.6618 115.19 35.6485C115.203 35.6352 115.221 35.6277 115.24 35.6277C115.259 35.6277 115.277 35.6352 115.29 35.6485C115.304 35.6618 115.311 35.6798 115.311 35.6987C116.09 38.1743 116.62 40.7213 116.894 43.3019C116.916 43.5432 115.801 43.1457 115.588 43.0747Z" fill="#263238"/>
<path d="M116.454 40.3558C116.284 38.5242 117.129 36.9482 118.335 36.8062C119.542 36.6642 120.671 38.084 120.841 39.9156C121.012 41.7472 120.131 43.3232 118.96 43.4652C117.789 43.6072 116.624 42.1873 116.454 40.3558ZM116.901 40.3132C117.05 41.8963 117.952 43.1102 118.918 43.025C119.883 42.9398 120.55 41.5697 120.401 39.9866C120.252 38.4035 119.343 37.1895 118.378 37.2747C117.412 37.3599 116.752 38.73 116.901 40.3132Z" fill="#263238"/>
<path d="M108.113 41.1438C108.097 40.537 108.26 39.939 108.58 39.4232C108.9 38.9074 109.363 38.4963 109.914 38.2402C110.464 37.9842 111.077 37.8944 111.678 37.9819C112.278 38.0694 112.84 38.3304 113.295 38.7328C113.749 39.1352 114.076 39.6616 114.235 40.2472C114.395 40.8328 114.38 41.4523 114.192 42.0295C114.004 42.6067 113.652 43.1166 113.179 43.4964C112.705 43.8763 112.132 44.1097 111.527 44.168C110.674 44.2166 109.837 43.926 109.197 43.3594C108.557 42.7929 108.167 41.9965 108.113 41.1438ZM108.56 41.1012C108.65 41.6116 108.887 42.0847 109.242 42.4626C109.597 42.8406 110.054 43.107 110.558 43.2295C111.062 43.3519 111.59 43.325 112.079 43.1521C112.567 42.9792 112.995 42.6678 113.31 42.2558C113.624 41.8438 113.812 41.3491 113.85 40.8321C113.888 40.3151 113.775 39.7982 113.525 39.3445C113.274 38.8908 112.896 38.52 112.438 38.2772C111.98 38.0345 111.461 37.9303 110.945 37.9775C110.215 38.0764 109.554 38.4607 109.107 39.0463C108.66 39.6318 108.463 40.3708 108.56 41.1012Z" fill="#263238"/>
<path d="M114.133 40.2705C115.737 39.5606 116.539 40.0079 116.546 40.015L116.788 39.6387C116.752 39.6387 115.801 39.014 113.948 39.8659L114.133 40.2705Z" fill="#263238"/>
<path d="M108.29 40.8314L108.333 40.3842C108.035 40.3842 101.148 39.7452 100.41 39.7736C99.6718 39.802 97.9184 40.9876 97.7267 41.1225L97.9823 41.4916C98.7116 40.9401 99.5272 40.5131 100.396 40.228H100.481C101.021 40.2351 105.841 40.6113 108.29 40.8314Z" fill="#263238"/>
<path d="M100.481 40.9947C101.695 40.9237 104.861 37.5658 104.961 31.6877C104.961 31.6877 104.506 36.9623 104.116 37.7361C103.725 38.51 105.884 35.8478 106.025 31.1126C107.521 32.1795 109.161 33.0281 110.896 33.6328C113.132 34.2576 114.502 34.2363 114.665 34.073C114.828 33.9097 111.527 32.8732 110.633 31.851C110.633 31.851 116.596 34.6125 119.336 34.8255C119.656 34.8255 120.046 28.3156 115.787 25.5469C111.527 22.7782 104.819 25.7741 103.008 27.5205C103.008 27.5205 100.879 27.8186 98.5856 30.9636C96.2926 34.1085 99.1748 41.0727 100.481 40.9947Z" fill="#263238"/>
<path d="M102.014 42.521C102.014 42.521 99.5795 38.9714 97.9821 39.8517C96.3848 40.732 98.188 45.8221 100.055 46.532C100.288 46.6396 100.541 46.699 100.798 46.7066C101.054 46.7143 101.31 46.67 101.549 46.5766C101.789 46.4831 102.007 46.3424 102.19 46.1627C102.374 45.9831 102.519 45.7682 102.618 45.5311L102.014 42.521Z" fill="#EB9481"/>
<path d="M98.5359 41.2999V41.3496C99.8421 41.8963 100.524 43.1173 100.999 44.381C100.925 44.2483 100.822 44.1335 100.699 44.0447C100.575 43.9559 100.434 43.8951 100.284 43.8667C100.135 43.8383 99.9809 43.843 99.8334 43.8803C99.6859 43.9176 99.5484 43.9867 99.4304 44.0828C99.4304 44.0828 99.4304 44.1609 99.4659 44.1538C99.697 44.0812 99.945 44.0826 100.175 44.1577C100.406 44.2328 100.607 44.3778 100.751 44.5726C100.991 44.8978 101.196 45.2476 101.361 45.6162C101.418 45.7369 101.631 45.673 101.589 45.5381C101.617 43.8343 100.332 41.4845 98.5359 41.2999Z" fill="#263238"/>
<path d="M101.624 46.2765C101.625 46.4397 101.578 46.5996 101.489 46.7359C101.399 46.8723 101.271 46.9789 101.121 47.0423C100.97 47.1058 100.804 47.1231 100.644 47.0921C100.484 47.0612 100.337 46.9833 100.221 46.8684C100.105 46.7535 100.026 46.6068 99.9934 46.4469C99.961 46.2869 99.9769 46.121 100.039 45.9701C100.101 45.8192 100.207 45.6902 100.342 45.5994C100.478 45.5086 100.637 45.4601 100.801 45.4601C101.018 45.4601 101.226 45.5459 101.38 45.6988C101.535 45.8517 101.622 46.0593 101.624 46.2765Z" fill="white"/>
<path d="M126.748 113.818C126.748 113.818 88.9379 114.378 79.5529 113.718C79.5529 113.718 87.2057 70.3425 97.3007 59.3814C97.6767 58.9696 98.0749 58.5786 98.4934 58.2101C99.111 57.6918 99.0258 53.553 99.3169 53.2407C99.6079 52.9283 111.875 54.5398 112.031 54.838C112.188 55.1361 112.819 59.0407 112.819 59.0407C115.602 62.5902 124.554 74.8575 125.598 79.9192C126.641 84.9809 123.355 90.568 123.355 90.568L126.748 113.818Z" fill="#3F2071"/>
<path d="M94.4113 67.1195C92.1751 77.896 93.5026 101.195 98.6708 105.455C107.19 112.426 127.664 114.464 133.379 115.138C135.842 115.429 140.747 99.307 139.058 97.227C137.368 95.1469 112.202 91.9097 111.002 90.8378C110.171 90.0711 106.26 75.9935 102.888 68.0566C98.3513 57.3156 95.2277 63.144 94.4113 67.1195Z" fill="#EB9481"/>
<path d="M134.798 95.9279C134.798 95.9279 142.352 95.8498 147.293 96.0344C150.054 96.1338 154.761 96.7443 156.756 97.7382C159.731 99.2361 171.231 107.4 169.307 110.233C167.568 112.795 164.146 109.423 164.146 109.423C164.146 109.423 168.235 112.753 165.729 114.769C163.223 116.785 159.17 111.972 159.17 111.972C159.17 111.972 163.756 115.209 160.874 117.098C158.375 118.745 153.128 113.69 153.128 113.69C153.128 113.69 158.318 116.53 155.918 118.496C153.27 120.626 144.453 114.038 144.453 114.038C138.135 115.458 134.152 115.458 129.51 114.698C128.658 114.556 134.798 95.9279 134.798 95.9279Z" fill="#EB9481"/>
<path d="M160.433 113.094L159.404 112.007C158.767 111.288 158.089 110.605 157.374 109.963C156.664 109.352 155.954 108.77 155.173 108.217C154.392 107.663 153.512 107.109 152.731 106.506C152.667 106.456 152.596 106.548 152.667 106.591C153.442 107.189 154.186 107.826 154.896 108.501C155.606 109.139 156.316 109.793 157.026 110.439C157.736 111.085 158.446 111.66 159.156 112.277C159.503 112.583 159.865 112.902 160.185 113.221C160.488 113.549 160.818 113.851 161.172 114.123C161.207 114.123 161.25 114.123 161.228 114.066C160.999 113.715 160.732 113.389 160.433 113.094Z" fill="#263238"/>
<path d="M164.984 110.133C163.845 108.757 162.611 107.462 161.292 106.257C159.957 105.06 158.504 104.002 156.955 103.098C156.898 103.098 156.841 103.141 156.884 103.183C158.218 104.383 159.574 105.561 160.93 106.733C161.59 107.308 164.515 110.02 164.856 110.282C164.934 110.325 165.034 110.211 164.984 110.133Z" fill="#263238"/>
<path d="M156.224 115.99C155.119 114.72 153.933 113.522 152.674 112.405C151.289 111.385 149.829 110.469 148.308 109.665C148.251 109.665 148.194 109.721 148.244 109.757C149.621 110.779 151.013 111.766 152.34 112.852C152.993 113.385 155.45 115.642 156.117 116.089C156.188 116.132 156.266 116.047 156.224 115.99Z" fill="#263238"/>
<path d="M127.713 115.806L136.722 94.7991C136.722 94.7991 112.046 90.7171 111.286 90.2202C110.526 89.7233 106.026 73.3384 103.136 66.9066C100.247 60.4748 95.2845 56.698 93.3678 70.5059C91.451 84.3137 94.2268 101.174 97.0025 104.681C100.368 108.926 113.693 114.3 127.713 115.806Z" fill="#C496FF"/>
<path d="M115.034 113.15C111.343 112.149 107.743 110.403 104.215 108.891C101.184 107.62 98.0886 106.051 96.4061 103.077C95.6217 101.562 95.0734 99.9366 94.7804 98.2564C94.3899 96.3822 94.0705 94.4868 93.8007 92.5771C93.4741 90.4 93.1807 88.2182 92.9204 86.0317C92.7926 84.91 92.6648 83.7883 92.5512 82.6667C92.4377 81.545 92.2318 80.4234 92.1892 79.2946C92.1892 79.2795 92.1832 79.2651 92.1726 79.2544C92.1619 79.2438 92.1475 79.2378 92.1324 79.2378C92.1173 79.2378 92.1029 79.2438 92.0922 79.2544C92.0816 79.2651 92.0756 79.2795 92.0756 79.2946C92.1537 80.3311 92.0756 81.3746 92.1608 82.4182C92.1608 83.1281 92.246 83.7812 92.2957 84.4628L92.0969 84.0297C91.8783 83.5324 91.7117 83.0137 91.6 82.4821C91.6 82.4182 91.4793 82.4466 91.4935 82.4821C91.6213 83.0145 91.749 83.5541 91.8981 84.0794C91.9691 84.335 92.0543 84.5905 92.1537 84.8461C92.2131 85.0177 92.2819 85.186 92.3596 85.3502C92.5299 87.39 92.75 89.4203 93.0198 91.4412C93.2825 93.4006 93.5877 95.3457 93.9356 97.2909C94.1931 99.0113 94.6505 100.696 95.2986 102.31C95.9432 103.832 96.9294 105.185 98.1809 106.264C99.4777 107.329 100.91 108.217 102.44 108.905C105.9 110.504 109.477 111.837 113.139 112.895C117.519 114.272 118.854 114.18 115.034 113.15Z" fill="#263238"/>
<path d="M124.299 92.6126C123.39 92.4919 112.649 90.2344 112.23 90.1137C112.02 90.0497 111.831 89.9324 111.68 89.773C111.53 89.6137 111.423 89.418 111.371 89.205C111.038 88.3389 110.746 87.4515 110.434 86.5783C109.895 85.0733 109.346 83.5754 108.787 82.0846C108.787 81.7509 108.723 81.3746 108.688 81.0836C108.652 80.7925 108.581 80.2885 108.517 79.8909C108.375 79.0319 108.12 78.1871 108.013 77.3281C108.013 77.2429 107.878 77.2713 107.9 77.3281C108.116 78.174 108.244 79.04 108.283 79.9122C108.319 80.253 108.34 80.6221 108.361 80.9416C108.035 80.0684 107.701 79.1952 107.353 78.3291C106.948 77.321 106.487 76.3059 106.16 75.2694C106.16 75.1984 106.033 75.2339 106.054 75.2694C106.423 76.1994 106.686 77.1861 106.977 78.109C107.268 79.0319 107.58 80.0258 107.893 80.9842C108.503 82.8655 109.149 84.7325 109.802 86.6067C110.115 87.5083 110.42 88.4241 110.754 89.3186C110.845 89.6535 111.025 89.9576 111.275 90.1987C111.525 90.4398 111.835 90.6091 112.173 90.6887C114.04 91.1928 123.17 92.7049 124.277 92.7475C124.391 92.8185 124.419 92.6268 124.299 92.6126Z" fill="#263238"/>
<path d="M132.158 95.1257C130.738 98.1428 129.318 101.139 128.033 104.22C126.733 107.251 125.593 110.348 124.618 113.498C124.613 113.512 124.613 113.528 124.619 113.542C124.625 113.556 124.636 113.567 124.65 113.573C124.664 113.578 124.68 113.578 124.694 113.572C124.708 113.566 124.719 113.555 124.725 113.541C126.145 110.581 127.387 107.507 128.643 104.461C129.9 101.416 131.043 98.2848 132.314 95.2322C132.378 95.1044 132.214 95.005 132.158 95.1257Z" fill="#263238"/>
<path d="M158.694 92.7262C157.608 93.3367 151.389 91.6187 148.869 93.5071C147.2 94.7565 145.568 97.7666 145.213 101.692C144.851 105.746 148.052 105.54 149.238 103.822C150.682 101.56 151.943 99.1865 153.008 96.723C154.148 96.9501 155.272 97.2512 156.373 97.6246L158.694 92.7262Z" fill="#AD6359"/>
<path d="M151.07 106.875C149.146 104.859 139.534 112.249 142.551 115.607C145.568 118.965 153.242 109.161 151.07 106.875Z" fill="#AD6359"/>
<path d="M154.278 109.764C152.355 107.748 142.742 115.138 145.759 118.496C148.777 121.854 156.451 112.05 154.278 109.764Z" fill="#AD6359"/>
<path d="M156.806 110.786C154.782 109.217 147.073 117.275 150.303 119.902C153.533 122.528 159.099 112.561 156.806 110.786Z" fill="#AD6359"/>
<path d="M159.553 111.227C157.232 110.339 152.34 119.994 156.082 121.52C159.823 123.047 162.187 112.199 159.553 111.227Z" fill="#AD6359"/>
<path d="M150.786 110.197C150.252 110.555 149.748 110.956 149.281 111.397C148.762 111.851 148.251 112.313 147.783 112.817C147.326 113.293 146.897 113.796 146.498 114.322C146.079 114.89 145.731 115.507 145.305 116.061C145.297 116.066 145.291 116.073 145.286 116.081C145.282 116.089 145.279 116.098 145.279 116.107C145.279 116.116 145.281 116.125 145.285 116.133C145.289 116.142 145.294 116.149 145.302 116.154C145.309 116.16 145.318 116.163 145.327 116.165C145.336 116.166 145.345 116.166 145.354 116.163C145.362 116.16 145.37 116.155 145.377 116.148C145.383 116.142 145.388 116.134 145.39 116.125C145.811 115.589 146.269 115.084 146.76 114.613C147.222 114.13 147.655 113.626 148.116 113.136C148.578 112.646 148.99 112.171 149.444 111.716C149.898 111.262 150.409 110.793 150.864 110.297C150.885 110.233 150.835 110.169 150.786 110.197Z" fill="#263238"/>
<path d="M154.605 111.099C154.193 111.731 152.752 114.18 152.312 114.797C151.872 115.415 151.41 116.033 150.942 116.636C150.473 117.24 150.019 117.9 149.486 118.468C149.444 118.517 149.522 118.595 149.572 118.546C150.104 117.978 150.686 117.46 151.19 116.863C151.694 116.267 152.156 115.664 152.61 115.032C153.399 113.78 154.11 112.48 154.74 111.141C154.74 111.077 154.64 111.042 154.605 111.099Z" fill="#263238"/>
<path d="M157.274 112.476C156.848 113.413 156.479 114.386 156.046 115.316C155.833 115.777 155.613 116.239 155.4 116.735L155.102 117.41C155.008 117.678 154.889 117.937 154.747 118.184C154.704 118.24 154.818 118.304 154.846 118.226C154.989 117.945 155.155 117.677 155.343 117.424C155.464 117.211 155.592 116.998 155.705 116.785C155.947 116.312 156.167 115.85 156.366 115.401C156.78 114.481 157.127 113.532 157.402 112.561C157.413 112.544 157.417 112.523 157.413 112.504C157.409 112.484 157.398 112.466 157.381 112.455C157.364 112.443 157.343 112.439 157.323 112.443C157.303 112.447 157.286 112.459 157.274 112.476Z" fill="#263238"/>
<path d="M163.543 31.7873C163.204 35.0302 161.97 38.115 159.979 40.6976C157.989 43.2802 155.32 45.2591 152.271 46.4135C149.221 47.5679 145.911 47.8524 142.709 47.2353C139.508 46.6182 136.54 45.1238 134.139 42.9187L125.328 44.2108L129.737 36.6005C128.591 33.7852 128.195 30.7212 128.585 27.7069C128.975 24.6926 130.14 21.8308 131.965 19.4003C133.79 16.9697 136.213 15.0533 138.999 13.8376C141.785 12.622 144.838 12.1485 147.861 12.4634C152.502 12.9485 156.761 15.2563 159.702 18.8797C162.642 22.5031 164.024 27.1457 163.543 31.7873Z" fill="white"/>
<path d="M163.543 31.7872C163.201 35.029 161.973 38.1139 159.993 40.7037C159.504 41.3505 158.973 41.9647 158.403 42.5424C157.816 43.1034 157.195 43.6274 156.543 44.1113C155.244 45.0993 153.81 45.8954 152.284 46.4753C150.767 47.0733 149.172 47.4534 147.549 47.6041C146.737 47.6809 145.921 47.6975 145.107 47.6538C144.289 47.633 143.475 47.5476 142.672 47.3982C139.429 46.8145 136.413 45.3396 133.961 43.1387L134.174 43.2026L125.385 44.4947L124.746 44.5941L125.066 44.0332L129.446 36.4088V36.7069C128.419 34.1915 127.981 31.4745 128.165 28.7638C128.35 26.053 129.152 23.4205 130.511 21.0675C131.881 18.7199 133.764 16.7128 136.02 15.1965C138.823 13.3195 142.104 12.2805 145.477 12.2013C148.85 12.1221 152.176 13.0061 155.064 14.7495C157.953 16.493 160.285 19.0237 161.786 22.045C163.288 25.0664 163.897 28.4532 163.543 31.8085V31.7872ZM163.543 31.7872C163.824 29.1371 163.492 26.4579 162.575 23.956C161.657 21.4541 160.177 19.1962 158.249 17.3562C156.321 15.5162 153.997 14.1432 151.455 13.3429C148.913 12.5427 146.222 12.3365 143.587 12.7402C140.98 13.1231 138.494 14.0942 136.318 15.5799C134.168 17.0898 132.373 19.0495 131.057 21.3231C129.757 23.6038 128.992 26.1503 128.821 28.7701C128.66 31.3834 129.082 33.9999 130.056 36.4301L130.12 36.5862L130.035 36.7353L125.605 44.3314L125.293 43.8629L134.103 42.6276H134.224L134.316 42.7057C136.666 44.9061 139.581 46.4102 142.735 47.0504C143.524 47.2076 144.324 47.3049 145.128 47.3414C145.929 47.3982 146.733 47.3982 147.534 47.3414C149.142 47.2172 150.724 46.8683 152.234 46.305C153.76 45.7595 155.196 44.989 156.494 44.019C157.814 43.0841 158.981 41.9488 159.951 40.654C161.937 38.083 163.18 35.0159 163.543 31.7872Z" fill="#263238"/>
<path d="M143.978 39.9939L136.467 32.3836L138.987 29.8918L143.382 34.3359L152.504 20.0311L155.493 21.9408L143.978 39.9939Z" fill="#C496FF"/>
</svg>
