<svg width="48" height="48" viewBox="0 0 48 48" fill="none" xmlns="http://www.w3.org/2000/svg">
<g clip-path="url(#clip0_1325_11900)">
<path d="M32 38C32 41.308 29.308 44 26 44V46C26 47.104 25.106 48 24 48C22.894 48 22 47.104 22 46V44H21.464C19.33 44 17.338 42.852 16.268 41.002C15.714 40.046 16.042 38.824 16.996 38.27C17.954 37.714 19.176 38.044 19.728 39C20.086 39.616 20.75 40 21.462 40H25.998C27.102 40 27.998 39.104 27.998 38C27.998 37.244 27.456 36.604 26.71 36.48L20.628 35.466C17.944 35.02 15.998 32.72 15.998 30C15.998 26.692 18.69 24 21.998 24V22C21.998 20.896 22.892 20 23.998 20C25.104 20 25.998 20.896 25.998 22V24H26.534C28.668 24 30.66 25.148 31.73 26.998C32.284 27.954 31.956 29.176 31.002 29.73C30.042 30.282 28.82 29.954 28.27 29C27.912 28.384 27.248 28 26.536 28H22C20.896 28 20 28.896 20 30C20 30.756 20.542 31.396 21.288 31.52L27.37 32.534C30.054 32.98 32 35.28 32 38ZM47.414 21.758L42.828 17.172C41.27 15.612 38.73 15.612 37.172 17.172L32.586 21.758C31.804 22.54 31.804 23.804 32.586 24.586C33.368 25.368 34.632 25.368 35.414 24.586L38 22V46C38 47.104 38.894 48 40 48C41.106 48 42 47.104 42 46V22L44.586 24.586C44.976 24.976 45.488 25.172 46 25.172C46.512 25.172 47.024 24.976 47.414 24.586C48.196 23.804 48.196 22.54 47.414 21.758ZM19.414 8.58595L22 5.99995V14C22 15.104 22.894 16 24 16C25.106 16 26 15.104 26 14V5.99995L28.586 8.58595C28.976 8.97595 29.488 9.17195 30 9.17195C30.512 9.17195 31.024 8.97595 31.414 8.58595C32.196 7.80395 32.196 6.53995 31.414 5.75795L26.828 1.17195C25.27 -0.388047 22.73 -0.388047 21.172 1.17195L16.586 5.75795C15.804 6.53995 15.804 7.80395 16.586 8.58595C17.368 9.36795 18.632 9.36795 19.414 8.58595ZM15.414 15.758L10.828 11.172C9.27001 9.61195 6.73001 9.61195 5.17201 11.172L0.586012 15.758C-0.195988 16.54 -0.195988 17.804 0.586012 18.586C1.36801 19.368 2.63201 19.368 3.41401 18.586L6.00001 16V46C6.00001 47.104 6.89401 48 8.00001 48C9.10601 48 10 47.104 10 46V16L12.586 18.586C12.976 18.976 13.488 19.172 14 19.172C14.512 19.172 15.024 18.976 15.414 18.586C16.196 17.804 16.196 16.54 15.414 15.758Z" fill="#A851FF"/>
</g>
<defs>
<clipPath id="clip0_1325_11900">
<rect width="48" height="48" fill="white"/>
</clipPath>
</defs>
</svg>
