<svg width="48" height="48" viewBox="0 0 48 48" fill="none" xmlns="http://www.w3.org/2000/svg">
<g clip-path="url(#clip0_1294_11890)">
<path d="M46.726 13.758C46.488 13.852 46.242 13.894 46 13.894C45.2 13.894 44.444 13.412 44.136 12.62L41.908 6.90998C34.594 22.414 21.36 32.842 2.52003 37.932C2.34603 37.978 2.17003 38 1.99803 38C1.11603 38 0.308033 37.414 0.0680327 36.522C-0.219967 35.456 0.410033 34.358 1.47803 34.068C19.196 29.282 31.592 19.51 38.378 5.00398L32.234 7.39998C31.2 7.80398 30.044 7.28998 29.644 6.26398C29.242 5.23398 29.752 4.07598 30.78 3.67398L39.582 0.239982C41.496 -0.512018 43.678 0.443982 44.43 2.36398L47.864 11.166C48.266 12.196 47.756 13.354 46.728 13.756L46.726 13.758ZM44 16C42.896 16 42 16.894 42 18V46C42 47.106 42.896 48 44 48C45.104 48 46 47.106 46 46V18C46 16.894 45.104 16 44 16ZM34 26C32.896 26 32 26.894 32 28V46C32 47.106 32.896 48 34 48C35.104 48 36 47.106 36 46V28C36 26.894 35.104 26 34 26ZM24 34C22.896 34 22 34.894 22 36V46C22 47.106 22.896 48 24 48C25.104 48 26 47.106 26 46V36C26 34.894 25.104 34 24 34ZM14 38C12.896 38 12 38.894 12 40V46C12 47.106 12.896 48 14 48C15.104 48 16 47.106 16 46V40C16 38.894 15.104 38 14 38ZM4.00003 42C2.89603 42 2.00003 42.894 2.00003 44V46C2.00003 47.106 2.89603 48 4.00003 48C5.10403 48 6.00003 47.106 6.00003 46V44C6.00003 42.894 5.10403 42 4.00003 42ZM3.27047e-05 12C3.27047e-05 5.38198 5.38203 -1.83769e-05 12 -1.83769e-05C18.618 -1.83769e-05 24 5.38198 24 12C24 18.618 18.618 24 12 24C5.38203 24 3.27047e-05 18.618 3.27047e-05 12ZM8.00003 7.99998C8.00003 10.21 9.79003 12 12 12C14.21 12 16 10.21 16 7.99998C16 5.78998 14.21 3.99998 12 3.99998C9.79003 3.99998 8.00003 5.78998 8.00003 7.99998ZM6.06803 17.32C7.53403 18.952 9.63603 20 12 20C14.364 20 16.466 18.952 17.932 17.32C16.696 15.334 14.512 14 12 14C9.48803 14 7.30403 15.334 6.06803 17.32Z" fill="#A851FF"/>
</g>
<defs>
<clipPath id="clip0_1294_11890">
<rect width="48" height="48" fill="white"/>
</clipPath>
</defs>
</svg>
