<svg width="210" height="148" viewBox="0 0 210 148" fill="none" xmlns="http://www.w3.org/2000/svg">
<path d="M161.7 94C188.375 94 210 72.9574 210 47C210 21.0426 188.375 0 161.7 0C135.025 0 113.4 21.0426 113.4 47C113.4 72.9574 135.025 94 161.7 94Z" fill="#C496FF"/>
<path d="M33.075 148C51.3418 148 66.15 133.449 66.15 115.5C66.15 97.5507 51.3418 83 33.075 83C14.8082 83 0 97.5507 0 115.5C0 133.449 14.8082 148 33.075 148Z" fill="#F7F1FF"/>
<path d="M132.128 38.4201V72.2544H122.316V38.4201C122.316 25.5386 112.295 15.0623 99.9775 15.0623C87.66 15.0623 77.6391 25.5386 77.6391 38.4201V72.2544H67.8269V38.4201C67.8269 19.9743 82.2529 4.97314 99.9775 4.97314C117.702 4.97314 132.128 19.9743 132.128 38.4201Z" fill="#C7C7C7"/>
<path d="M67.8269 47.2253L77.6391 47.6126V72.2953H67.8269V47.2253Z" fill="#A6A6A6"/>
<path d="M132.13 49.7931V72.295H122.318V49.3855L132.13 49.7931Z" fill="#A6A6A6"/>
<path d="M144.696 53.0139H55.2593V132.219H144.696V53.0139Z" fill="#EEE1FF"/>
<path opacity="0.1" d="M144.699 53.0139H99.98V132.219H144.699V53.0139Z" fill="black"/>
<path d="M103.757 95.5104L107.515 112.856H91.6065L95.3644 95.5104C93.8909 94.6232 92.7541 93.2909 92.1266 91.7156C91.4991 90.1404 91.4151 88.4083 91.8874 86.7822C92.3597 85.1562 93.3625 83.725 94.7436 82.7058C96.1246 81.6867 97.8086 81.1353 99.5398 81.1353C101.271 81.1353 102.955 81.6867 104.336 82.7058C105.717 83.725 106.72 85.1562 107.192 86.7822C107.665 88.4083 107.581 90.1404 106.953 91.7156C106.326 93.2909 105.189 94.6232 103.715 95.5104H103.757Z" fill="#3F2071"/>
</svg>
