<svg width="14" height="14" viewBox="0 0 14 14" fill="none" xmlns="http://www.w3.org/2000/svg">
<rect width="14" height="14" fill="#FFEBEB"/>
<g id="Profesionales">
<rect width="1512" height="3835" transform="translate(-299 -663)" fill="white"/>
<g id="Frame 1376">
<g id="card" clip-path="url(#clip0_1_2)">
<rect id="Rectangle 1" x="-136.5" y="-142.5" width="262" height="317" rx="9.5" fill="white" stroke="#CAC4D0"/>
<g id="new_releases">
<mask id="mask0_1_2" style="mask-type:alpha" maskUnits="userSpaceOnUse" x="0" y="0" width="14" height="14">
<rect id="Bounding box" width="14" height="14" fill="#D9D9D9"/>
</mask>
<g mask="url(#mask0_1_2)">
<path id="new_releases_2" d="M5.01634 13.125L3.90801 11.2583L1.80801 10.7917L2.01217 8.63333L0.583008 7L2.01217 5.36667L1.80801 3.20833L3.90801 2.74167L5.01634 0.875L6.99967 1.72083L8.98301 0.875L10.0913 2.74167L12.1913 3.20833L11.9872 5.36667L13.4163 7L11.9872 8.63333L12.1913 10.7917L10.0913 11.2583L8.98301 13.125L6.99967 12.2792L5.01634 13.125ZM5.51217 11.6375L6.99967 10.9958L8.51634 11.6375L9.33301 10.2375L10.9372 9.85833L10.7913 8.225L11.8705 7L10.7913 5.74583L10.9372 4.1125L9.33301 3.7625L8.48717 2.3625L6.99967 3.00417L5.48301 2.3625L4.66634 3.7625L3.06217 4.1125L3.20801 5.74583L2.12884 7L3.20801 8.225L3.06217 9.8875L4.66634 10.2375L5.51217 11.6375ZM6.38717 9.07083L9.68301 5.775L8.86634 4.92917L6.38717 7.40833L5.13301 6.18333L4.31634 7L6.38717 9.07083Z" fill="#C496FF"/>
</g>
</g>
</g>
</g>
</g>
<defs>
<clipPath id="clip0_1_2">
<rect width="263" height="318" fill="white" transform="translate(-137 -143)"/>
</clipPath>
</defs>
</svg>
