<svg width="16" height="16" viewBox="0 0 16 16" fill="none" xmlns="http://www.w3.org/2000/svg">
<g clip-path="url(#clip0_1126_2260)">
<path d="M7.99992 4C7.4725 4 6.95693 4.1564 6.5184 4.44941C6.07987 4.74243 5.73807 5.15891 5.53624 5.64618C5.33441 6.13345 5.2816 6.66962 5.38449 7.18691C5.48739 7.70419 5.74136 8.17935 6.1143 8.55229C6.48724 8.92523 6.9624 9.1792 7.47968 9.28209C7.99696 9.38499 8.53314 9.33218 9.02041 9.13035C9.50768 8.92851 9.92415 8.58672 10.2172 8.14819C10.5102 7.70966 10.6666 7.19408 10.6666 6.66667C10.6666 5.95942 10.3856 5.28115 9.88554 4.78105C9.38544 4.28095 8.70716 4 7.99992 4ZM7.99992 8C7.73621 8 7.47843 7.9218 7.25916 7.77529C7.03989 7.62878 6.869 7.42055 6.76808 7.17691C6.66716 6.93328 6.64076 6.66519 6.69221 6.40655C6.74365 6.14791 6.87064 5.91033 7.05711 5.72386C7.24358 5.53739 7.48116 5.4104 7.7398 5.35895C7.99844 5.30751 8.26653 5.33391 8.51016 5.43483C8.7538 5.53574 8.96204 5.70664 9.10855 5.92591C9.25505 6.14517 9.33325 6.40296 9.33325 6.66667C9.33325 7.02029 9.19278 7.35943 8.94273 7.60948C8.69268 7.85952 8.35354 8 7.99992 8Z" fill="#C496FF"/>
<path d="M7.99939 15.9987C7.43806 16.0016 6.88422 15.87 6.38423 15.6148C5.88425 15.3596 5.45267 14.9884 5.12563 14.5322C2.58519 11.0278 1.29663 8.39339 1.29663 6.70153C1.29663 4.92385 2.00281 3.21898 3.25982 1.96197C4.51683 0.70496 6.2217 -0.0012207 7.99939 -0.0012207C9.77707 -0.0012207 11.4819 0.70496 12.7389 1.96197C13.996 3.21898 14.7021 4.92385 14.7021 6.70153C14.7021 8.39339 13.4136 11.0278 10.8731 14.5322C10.5461 14.9884 10.1145 15.3596 9.61454 15.6148C9.11455 15.87 8.56071 16.0016 7.99939 15.9987ZM7.99939 1.45399C6.60778 1.45558 5.27363 2.00909 4.28962 2.9931C3.30561 3.97711 2.75209 5.31127 2.75051 6.70287C2.75051 8.04275 4.0124 10.5205 6.30287 13.6796C6.49731 13.9474 6.75241 14.1654 7.04728 14.3157C7.34215 14.466 7.66842 14.5444 7.99939 14.5444C8.33036 14.5444 8.65662 14.466 8.95149 14.3157C9.24637 14.1654 9.50146 13.9474 9.69591 13.6796C11.9864 10.5205 13.2483 8.04275 13.2483 6.70287C13.2467 5.31127 12.6932 3.97711 11.7092 2.9931C10.7251 2.00909 9.39099 1.45558 7.99939 1.45399Z" fill="#C496FF"/>
</g>
<defs>
<clipPath id="clip0_1126_2260">
<rect width="16" height="16" fill="white"/>
</clipPath>
</defs>
</svg>
