<svg width="24" height="24" viewBox="0 0 24 24" fill="none" xmlns="http://www.w3.org/2000/svg">
<g clip-path="url(#clip0_793_5918)">
<path d="M12 6C11.2089 6 10.4355 6.2346 9.77772 6.67412C9.11993 7.11365 8.60723 7.73836 8.30448 8.46927C8.00173 9.20017 7.92252 10.0044 8.07686 10.7804C8.2312 11.5563 8.61216 12.269 9.17157 12.8284C9.73098 13.3878 10.4437 13.7688 11.2196 13.9231C11.9956 14.0775 12.7998 13.9983 13.5307 13.6955C14.2616 13.3928 14.8864 12.8801 15.3259 12.2223C15.7654 11.5645 16 10.7911 16 10C16 8.93913 15.5786 7.92172 14.8284 7.17157C14.0783 6.42143 13.0609 6 12 6ZM12 12C11.6044 12 11.2178 11.8827 10.8889 11.6629C10.56 11.4432 10.3036 11.1308 10.1522 10.7654C10.0009 10.3999 9.96126 9.99778 10.0384 9.60982C10.1156 9.22186 10.3061 8.86549 10.5858 8.58579C10.8655 8.30608 11.2219 8.1156 11.6098 8.03843C11.9978 7.96126 12.3999 8.00087 12.7654 8.15224C13.1308 8.30362 13.4432 8.55996 13.6629 8.88886C13.8827 9.21776 14 9.60444 14 10C14 10.5304 13.7893 11.0391 13.4142 11.4142C13.0391 11.7893 12.5304 12 12 12Z" fill="black"/>
<path d="M11.9994 23.998C11.1575 24.0023 10.3267 23.8048 9.57672 23.4221C8.82674 23.0393 8.17937 22.4825 7.68882 21.7982C3.87815 16.5416 1.94531 12.59 1.94531 10.0522C1.94531 7.38566 3.00458 4.82835 4.8901 2.94283C6.77562 1.05732 9.33292 -0.00195312 11.9994 -0.00195312C14.666 -0.00195312 17.2233 1.05732 19.1088 2.94283C20.9943 4.82835 22.0536 7.38566 22.0536 10.0522C22.0536 12.59 20.1207 16.5416 16.3101 21.7982C15.8195 22.4825 15.1722 23.0393 14.4222 23.4221C13.6722 23.8048 12.8414 24.0023 11.9994 23.998ZM11.9994 2.18086C9.91204 2.18324 7.91081 3.01351 6.4348 4.48953C4.95878 5.96555 4.12851 7.96678 4.12612 10.0542C4.12612 12.064 6.01896 15.7807 9.45466 20.5193C9.74633 20.921 10.129 21.248 10.5713 21.4735C11.0136 21.6989 11.503 21.8165 11.9994 21.8165C12.4959 21.8165 12.9853 21.6989 13.4276 21.4735C13.8699 21.248 14.2526 20.921 14.5442 20.5193C17.9799 15.7807 19.8728 12.064 19.8728 10.0542C19.8704 7.96678 19.0401 5.96555 17.5641 4.48953C16.0881 3.01351 14.0868 2.18324 11.9994 2.18086Z" fill="black"/>
</g>
<defs>
<clipPath id="clip0_793_5918">
<rect width="24" height="24" fill="white"/>
</clipPath>
</defs>
</svg>
